{"glyphs":{"0":{"ha":897,"x_min":35,"x_max":863,"o":"m 449 -19 q 449 -19 449 -19 q 449 -19 449 -19 q 281 17 357 -19 q 149 121 204 54 q 65 278 94 188 q 35 474 35 368 q 65 669 35 579 q 149 824 94 758 q 281 927 204 890 q 449 964 357 964 q 616 927 540 964 q 747 824 692 890 q 833 669 803 758 q 863 474 863 579 q 833 278 863 368 q 747 121 803 188 q 616 17 692 54 q 449 -19 540 -19 m 449 210 q 449 210 449 210 q 449 210 449 210 q 542 242 504 210 q 601 335 581 275 q 622 474 622 394 q 601 612 622 553 q 542 703 581 671 q 449 735 504 735 q 356 703 394 735 q 296 613 317 671 q 275 474 275 554 q 296 335 275 394 q 356 242 317 275 q 449 210 394 210 z "},"1":{"ha":524,"x_min":28,"x_max":433,"o":"m 433 961 q 433 481 433 724 q 433 0 433 238 q 313 0 374 0 q 190 0 251 0 q 190 342 190 169 q 190 683 190 515 q 109 666 150 675 q 28 649 68 657 q 28 761 28 704 q 28 874 28 818 q 231 917 128 896 q 433 961 333 939 z "},"2":{"ha":744,"x_min":65,"x_max":693,"o":"m 65 0 q 65 110 65 54 q 65 221 65 167 q 176 328 121 274 q 288 436 232 383 q 385 537 351 499 q 431 601 418 575 q 444 650 444 628 q 392 716 444 696 q 256 728 339 736 q 78 682 172 719 q 78 798 78 739 q 78 914 78 857 q 330 960 217 960 q 524 923 443 960 q 649 821 606 886 q 693 669 693 756 q 647 508 693 583 q 507 340 601 432 q 446 281 476 311 q 385 221 415 250 q 535 221 460 221 q 686 221 611 221 q 686 110 686 167 q 686 0 686 54 q 376 0 532 0 q 65 0 219 0 z "},"3":{"ha":725,"x_min":69,"x_max":697,"o":"m 125 538 q 242 631 183 583 q 360 724 301 678 q 216 724 289 724 q 72 724 143 724 q 72 834 72 778 q 72 944 72 890 q 366 944 218 944 q 660 944 514 944 q 660 834 660 890 q 660 724 660 778 q 560 642 610 683 q 460 560 510 600 q 635 466 574 538 q 697 286 697 394 q 647 117 697 183 q 510 18 597 50 q 309 -11 422 -14 q 69 29 196 -8 q 69 145 69 86 q 69 261 69 204 q 260 215 171 225 q 403 223 349 206 q 458 285 458 240 q 415 350 458 328 q 297 378 372 372 q 125 376 221 385 q 125 458 125 417 q 125 538 125 499 z "},"4":{"ha":810,"x_min":35,"x_max":803,"o":"m 35 179 q 35 290 35 233 q 35 400 35 346 q 175 672 104 535 q 314 944 246 810 q 492 944 403 944 q 671 944 582 944 q 671 672 671 810 q 671 400 671 535 q 737 400 703 400 q 803 400 771 400 q 803 290 803 346 q 803 179 803 233 q 737 179 771 179 q 671 179 703 179 q 671 90 671 135 q 671 0 671 44 q 552 0 613 0 q 433 0 492 0 q 433 90 433 44 q 433 179 433 135 q 234 179 335 179 q 35 179 133 179 m 285 400 q 359 400 321 400 q 433 400 397 400 q 433 558 433 478 q 433 717 433 639 q 359 558 397 639 q 285 400 321 478 z "},"5":{"ha":721,"x_min":63,"x_max":693,"o":"m 74 396 q 99 671 86 532 q 124 944 111 810 q 383 944 251 944 q 643 944 515 944 q 643 834 643 890 q 643 724 643 778 q 488 724 567 724 q 331 724 408 724 q 324 669 328 697 q 317 613 319 640 q 519 579 435 614 q 648 476 603 544 q 693 307 693 408 q 642 128 693 199 q 502 24 590 58 q 301 -8 414 -10 q 63 29 188 -7 q 63 145 63 86 q 63 261 63 204 q 266 215 178 225 q 404 225 354 204 q 454 300 454 246 q 403 381 454 354 q 267 410 353 407 q 74 396 181 414 z "},"6":{"ha":782,"x_min":35,"x_max":757,"o":"m 686 683 q 686 683 686 683 q 686 683 686 683 q 543 726 614 717 q 414 720 472 735 q 319 667 356 706 q 276 568 282 629 q 390 621 326 607 q 517 624 453 635 q 635 576 581 613 q 724 476 690 539 q 757 322 757 413 q 732 188 757 250 q 660 80 707 126 q 549 8 614 33 q 403 -18 483 -18 q 255 11 322 -18 q 138 98 188 40 q 62 242 89 156 q 35 442 35 328 q 65 658 35 564 q 153 816 96 751 q 290 915 210 881 q 471 951 371 949 q 686 924 571 954 q 686 803 686 864 q 686 683 686 743 m 401 200 q 401 200 401 200 q 401 200 401 200 q 485 233 453 200 q 517 318 517 267 q 485 403 517 371 q 401 436 453 436 q 320 405 351 436 q 289 322 289 374 q 320 234 289 268 q 401 200 351 200 z "},"7":{"ha":722,"x_min":46,"x_max":676,"o":"m 676 944 q 676 834 676 890 q 676 724 676 778 q 517 362 597 544 q 358 0 438 179 q 233 0 297 0 q 108 0 169 0 q 267 362 188 179 q 426 724 347 544 q 237 724 333 724 q 46 724 140 724 q 46 834 46 778 q 46 944 46 890 q 362 944 203 944 q 676 944 521 944 z "},"8":{"ha":778,"x_min":35,"x_max":743,"o":"m 390 -21 q 390 -21 390 -21 q 390 -21 390 -21 q 208 16 289 -21 q 81 119 128 53 q 35 275 35 186 q 66 403 35 349 q 151 490 97 457 q 80 569 106 522 q 54 681 54 617 q 98 828 54 764 q 218 928 142 892 q 390 965 294 965 q 562 928 486 965 q 681 828 638 892 q 724 681 724 764 q 698 569 724 617 q 628 490 672 522 q 712 403 681 457 q 743 275 743 349 q 697 119 743 186 q 571 16 650 53 q 390 -21 492 -21 m 390 579 q 390 579 390 579 q 390 579 390 579 q 461 604 435 579 q 488 668 488 629 q 461 729 488 706 q 390 753 435 753 q 318 729 346 753 q 290 668 290 706 q 319 604 290 629 q 390 579 347 579 m 390 192 q 390 192 390 192 q 390 192 390 192 q 471 221 439 192 q 503 294 503 250 q 471 370 503 342 q 390 399 439 399 q 308 370 342 399 q 275 294 275 342 q 308 221 275 250 q 390 192 342 192 z "},"9":{"ha":782,"x_min":25,"x_max":747,"o":"m 96 263 q 96 263 96 263 q 96 263 96 263 q 239 220 168 229 q 368 226 310 211 q 463 278 426 240 q 506 378 500 317 q 392 325 456 339 q 265 322 329 311 q 147 370 201 333 q 58 470 92 407 q 25 624 25 533 q 50 758 25 696 q 122 866 75 819 q 233 938 168 913 q 379 964 299 964 q 527 935 460 964 q 644 848 594 906 q 720 704 693 790 q 747 504 747 618 q 717 288 747 382 q 629 130 686 194 q 492 31 572 65 q 311 -6 411 -3 q 96 22 211 -8 q 96 142 96 82 q 96 263 96 203 m 381 746 q 381 746 381 746 q 381 746 381 746 q 297 713 329 746 q 265 628 265 681 q 297 542 265 575 q 381 510 329 510 q 462 541 431 510 q 493 624 493 572 q 462 712 493 678 q 381 746 431 746 z "},"A":{"ha":913,"x_min":0,"x_max":913,"o":"m 0 0 q 145 472 72 233 q 290 944 218 711 q 456 944 372 944 q 622 944 540 944 q 767 472 694 711 q 913 0 840 233 q 791 0 853 0 q 668 0 729 0 q 642 90 654 44 q 615 179 629 135 q 456 179 536 179 q 297 179 376 179 q 271 90 283 135 q 244 0 258 44 q 123 0 185 0 q 0 0 61 0 m 358 386 q 456 386 407 386 q 554 386 506 386 q 506 551 531 468 q 457 717 481 635 q 408 551 433 635 q 358 386 382 468 z "},"B":{"ha":828,"x_min":90,"x_max":786,"o":"m 90 0 q 90 472 90 233 q 90 944 90 711 q 263 944 176 944 q 435 944 350 944 q 603 910 531 944 q 715 816 675 876 q 756 674 756 756 q 733 568 756 615 q 667 489 711 521 q 756 399 725 454 q 786 278 786 344 q 744 132 786 194 q 626 35 701 69 q 449 0 550 0 q 269 0 360 0 q 90 0 179 0 m 513 650 q 513 650 513 650 q 513 650 513 650 q 490 709 513 686 q 432 732 468 732 q 381 732 407 732 q 331 732 356 732 q 331 652 331 693 q 331 571 331 611 q 381 571 356 571 q 432 571 407 571 q 490 592 468 571 q 513 650 513 614 m 543 300 q 543 300 543 300 q 543 300 543 300 q 517 362 543 339 q 447 385 492 385 q 389 385 418 385 q 331 385 360 385 q 331 299 331 342 q 331 213 331 256 q 389 213 360 213 q 447 213 418 213 q 517 236 492 213 q 543 300 543 260 z "},"C":{"ha":814,"x_min":43,"x_max":744,"o":"m 43 472 q 43 472 43 472 q 43 472 43 472 q 77 667 43 579 q 174 821 111 756 q 324 922 236 886 q 517 961 411 958 q 744 928 624 964 q 744 810 744 869 q 744 693 744 751 q 582 738 663 732 q 436 715 501 743 q 332 627 371 688 q 293 472 293 567 q 332 317 293 378 q 436 229 371 257 q 582 207 501 201 q 744 251 663 213 q 744 134 744 193 q 744 17 744 75 q 517 -17 624 -19 q 324 22 411 -14 q 174 124 236 58 q 77 277 111 189 q 43 472 43 365 z "},"D":{"ha":943,"x_min":90,"x_max":900,"o":"m 90 0 q 90 472 90 233 q 90 944 90 711 q 258 944 174 944 q 426 944 343 944 q 615 909 529 944 q 765 810 701 874 q 865 660 829 746 q 900 474 900 575 q 865 286 900 372 q 765 135 829 200 q 615 35 701 71 q 426 0 529 0 q 258 0 343 0 q 90 0 174 0 m 426 725 q 381 725 404 725 q 333 725 357 725 q 333 472 333 600 q 333 219 333 344 q 381 219 357 219 q 426 219 404 219 q 547 253 496 219 q 626 344 599 286 q 654 474 654 401 q 626 603 654 546 q 547 692 599 660 q 426 725 496 725 z "},"E":{"ha":733,"x_min":90,"x_max":657,"o":"m 90 0 q 90 472 90 233 q 90 944 90 711 q 374 944 231 944 q 657 944 517 944 q 657 836 657 892 q 657 728 657 781 q 495 728 576 728 q 333 728 414 728 q 333 659 333 693 q 333 590 333 625 q 482 590 407 590 q 629 590 557 590 q 629 486 629 539 q 629 381 629 433 q 482 381 557 381 q 333 381 407 381 q 333 299 333 340 q 333 217 333 257 q 495 217 414 217 q 657 217 576 217 q 657 108 657 164 q 657 0 657 53 q 374 0 517 0 q 90 0 231 0 z "},"F":{"ha":719,"x_min":90,"x_max":657,"o":"m 90 0 q 90 472 90 233 q 90 944 90 711 q 374 944 231 944 q 657 944 517 944 q 657 835 657 890 q 657 725 657 779 q 495 725 576 725 q 333 725 414 725 q 333 642 333 685 q 333 560 333 600 q 482 560 407 560 q 629 560 557 560 q 629 456 629 508 q 629 350 629 403 q 482 350 557 350 q 333 350 407 350 q 333 175 333 264 q 333 0 333 86 q 213 0 274 0 q 90 0 151 0 z "},"G":{"ha":939,"x_min":43,"x_max":853,"o":"m 853 50 q 853 50 853 50 q 853 50 853 50 q 584 -17 708 -8 q 360 6 460 -26 q 189 106 260 39 q 81 264 118 172 q 43 464 43 356 q 78 662 43 571 q 180 819 113 753 q 343 924 247 886 q 561 960 439 961 q 829 915 683 960 q 829 798 829 857 q 829 681 829 739 q 616 733 714 726 q 445 713 518 740 q 331 624 372 685 q 290 474 290 564 q 320 333 290 394 q 404 238 350 272 q 528 203 458 203 q 575 205 551 203 q 621 213 599 207 q 621 286 621 249 q 621 360 621 324 q 543 360 582 360 q 465 360 504 360 q 465 463 465 411 q 465 567 465 515 q 659 567 561 567 q 853 567 757 567 q 853 308 853 439 q 853 50 853 178 z "},"H":{"ha":963,"x_min":90,"x_max":872,"o":"m 333 0 q 213 0 274 0 q 90 0 151 0 q 90 472 90 233 q 90 944 90 711 q 213 944 151 944 q 333 944 274 944 q 333 774 333 860 q 333 604 333 689 q 482 604 407 604 q 629 604 557 604 q 629 774 629 689 q 629 944 629 860 q 751 944 690 944 q 872 944 813 944 q 872 472 872 711 q 872 0 872 233 q 751 0 813 0 q 629 0 690 0 q 629 191 629 94 q 629 381 629 288 q 482 381 557 381 q 333 381 407 381 q 333 191 333 288 q 333 0 333 94 z "},"I":{"ha":438,"x_min":97,"x_max":340,"o":"m 97 0 q 97 472 97 233 q 97 944 97 711 q 219 944 158 944 q 340 944 281 944 q 340 472 340 711 q 340 0 340 233 q 219 0 281 0 q 97 0 158 0 z "},"J":{"ha":603,"x_min":28,"x_max":526,"o":"m 526 326 q 526 326 526 326 q 526 326 526 326 q 499 157 526 231 q 413 40 472 83 q 258 -14 353 -4 q 28 7 164 -24 q 28 122 28 64 q 28 238 28 181 q 222 220 161 200 q 283 326 283 240 q 283 635 283 479 q 283 944 283 792 q 406 944 344 944 q 526 944 467 944 q 526 635 526 792 q 526 326 526 479 z "},"K":{"ha":896,"x_min":90,"x_max":910,"o":"m 90 0 q 90 472 90 233 q 90 944 90 711 q 213 944 151 944 q 333 944 274 944 q 333 762 333 854 q 333 579 333 669 q 476 762 404 669 q 618 944 547 854 q 756 944 686 944 q 893 944 825 944 q 716 720 806 833 q 539 496 626 607 q 724 249 631 374 q 910 0 818 124 q 765 0 838 0 q 619 0 692 0 q 476 198 549 99 q 333 394 404 297 q 333 198 333 297 q 333 0 333 99 q 213 0 274 0 q 90 0 151 0 z "},"L":{"ha":671,"x_min":90,"x_max":629,"o":"m 90 0 q 90 472 90 233 q 90 944 90 711 q 213 944 151 944 q 333 944 274 944 q 333 583 333 765 q 333 221 333 400 q 482 221 407 221 q 629 221 557 221 q 629 110 629 167 q 629 0 629 54 q 360 0 496 0 q 90 0 224 0 z "},"M":{"ha":1192,"x_min":90,"x_max":1101,"o":"m 90 0 q 90 472 90 233 q 90 944 90 711 q 264 944 176 944 q 438 944 351 944 q 517 658 478 803 q 596 371 557 513 q 674 658 635 513 q 753 944 714 803 q 925 944 839 944 q 1096 944 1011 944 q 1099 472 1097 711 q 1101 0 1100 233 q 984 0 1043 0 q 867 0 925 0 q 867 320 867 158 q 867 640 867 482 q 782 320 825 482 q 697 0 739 158 q 592 0 646 0 q 486 0 539 0 q 403 315 444 156 q 319 629 361 474 q 319 315 319 474 q 319 0 319 156 q 206 0 264 0 q 90 0 147 0 z "},"N":{"ha":963,"x_min":90,"x_max":872,"o":"m 90 0 q 90 472 90 233 q 90 944 90 711 q 213 944 151 944 q 335 944 275 944 q 484 678 408 813 q 633 411 560 543 q 633 678 633 543 q 633 944 633 813 q 753 944 693 944 q 872 944 813 944 q 872 472 872 711 q 872 0 872 233 q 751 0 813 0 q 628 0 689 0 q 478 267 554 132 q 329 533 403 401 q 329 267 329 401 q 329 0 329 132 q 210 0 269 0 q 90 0 150 0 z "},"O":{"ha":1022,"x_min":43,"x_max":979,"o":"m 511 -22 q 511 -22 511 -22 q 511 -22 511 -22 q 324 15 410 -22 q 175 118 238 51 q 78 276 113 185 q 43 474 43 367 q 78 671 43 581 q 175 827 113 761 q 324 930 238 893 q 511 967 410 967 q 698 930 613 967 q 847 827 783 893 q 944 671 910 761 q 979 474 979 581 q 944 276 979 367 q 847 118 910 185 q 698 15 783 51 q 511 -22 613 -22 m 511 203 q 511 203 511 203 q 511 203 511 203 q 628 237 579 203 q 703 332 676 271 q 731 474 731 393 q 703 614 731 554 q 628 708 676 674 q 511 742 579 742 q 395 708 444 742 q 319 615 346 675 q 292 474 292 554 q 319 332 292 393 q 395 237 346 271 q 511 203 444 203 z "},"P":{"ha":824,"x_min":90,"x_max":789,"o":"m 90 0 q 90 472 90 233 q 90 944 90 711 q 263 944 176 944 q 435 944 350 944 q 621 903 542 944 q 744 789 700 863 q 789 617 789 715 q 745 446 789 519 q 626 332 701 372 q 454 292 550 292 q 394 292 424 292 q 333 292 364 292 q 333 146 333 219 q 333 0 333 72 q 213 0 274 0 q 90 0 151 0 m 435 726 q 384 726 410 726 q 333 726 358 726 q 333 615 333 671 q 333 503 333 558 q 391 503 361 503 q 449 503 421 503 q 519 535 492 503 q 546 614 546 567 q 517 694 546 663 q 435 726 488 726 z "},"Q":{"ha":1022,"x_min":43,"x_max":979,"o":"m 511 -22 q 511 -22 511 -22 q 511 -22 511 -22 q 324 15 410 -22 q 175 118 238 51 q 78 276 113 185 q 43 474 43 367 q 78 671 43 581 q 175 827 113 761 q 324 930 238 893 q 511 967 410 967 q 698 930 613 967 q 847 827 783 893 q 944 671 910 761 q 979 474 979 581 q 939 262 979 358 q 828 99 899 165 q 868 33 847 67 q 908 -33 889 -1 q 813 -90 861 -61 q 718 -147 765 -119 q 676 -77 697 -112 q 633 -7 654 -42 q 574 -18 604 -14 q 511 -22 543 -22 m 292 474 q 292 474 292 474 q 292 474 292 474 q 317 333 292 394 q 392 238 343 272 q 506 201 440 203 q 462 274 483 238 q 418 344 440 310 q 513 401 465 372 q 608 458 561 431 q 652 388 631 424 q 696 315 674 351 q 722 388 713 347 q 731 474 731 428 q 703 614 731 554 q 628 708 676 674 q 511 742 579 742 q 395 708 444 742 q 319 615 346 675 q 292 474 292 554 z "},"R":{"ha":869,"x_min":90,"x_max":876,"o":"m 90 0 q 90 472 90 233 q 90 944 90 711 q 258 944 174 944 q 425 944 342 944 q 610 905 531 944 q 733 794 689 865 q 776 626 776 722 q 743 481 776 544 q 653 376 710 417 q 765 188 708 283 q 876 0 821 93 q 740 0 808 0 q 604 0 672 0 q 517 158 561 78 q 429 317 474 239 q 381 317 406 317 q 333 317 357 317 q 333 158 333 239 q 333 0 333 78 q 213 0 274 0 q 90 0 151 0 m 425 725 q 380 725 403 725 q 333 725 357 725 q 333 622 333 674 q 333 519 333 571 q 386 519 360 519 q 439 519 413 519 q 507 549 481 519 q 533 622 533 579 q 505 696 533 667 q 425 725 476 725 z "},"S":{"ha":747,"x_min":57,"x_max":711,"o":"m 711 285 q 711 285 711 285 q 711 285 711 285 q 656 113 711 179 q 509 18 601 47 q 303 -8 417 -11 q 71 28 189 -4 q 71 147 71 88 q 71 267 71 207 q 268 218 179 228 q 410 226 357 208 q 463 285 463 243 q 433 333 463 314 q 358 367 404 351 q 260 402 311 382 q 162 453 208 422 q 86 535 115 485 q 57 663 57 586 q 107 822 57 757 q 242 921 157 888 q 437 954 328 954 q 663 921 546 954 q 663 801 663 861 q 663 682 663 742 q 484 733 565 724 q 354 724 403 742 q 306 668 306 707 q 335 622 306 640 q 410 590 364 604 q 508 555 457 575 q 606 502 560 535 q 682 417 653 469 q 711 285 711 365 z "},"T":{"ha":753,"x_min":42,"x_max":711,"o":"m 256 0 q 256 362 256 179 q 256 724 256 544 q 149 724 203 724 q 42 724 94 724 q 42 834 42 778 q 42 944 42 890 q 376 944 207 944 q 711 944 546 944 q 711 834 711 890 q 711 724 711 778 q 606 724 660 724 q 499 724 551 724 q 499 362 499 544 q 499 0 499 179 q 378 0 439 0 q 256 0 317 0 z "},"U":{"ha":935,"x_min":76,"x_max":858,"o":"m 858 358 q 858 358 858 358 q 858 358 858 358 q 828 201 858 271 q 745 81 799 131 q 620 4 692 31 q 465 -22 549 -22 q 310 4 381 -22 q 187 80 239 31 q 106 199 135 129 q 76 356 76 268 q 76 650 76 501 q 76 944 76 799 q 199 944 138 944 q 319 944 260 944 q 319 657 319 801 q 319 369 319 513 q 361 249 319 294 q 468 203 403 203 q 574 249 533 203 q 615 369 615 294 q 615 657 615 513 q 615 944 615 801 q 738 944 676 944 q 858 944 799 944 q 858 651 858 800 q 858 358 858 503 z "},"V":{"ha":899,"x_min":0,"x_max":899,"o":"m 247 944 q 349 625 299 786 q 451 306 400 464 q 554 625 503 464 q 657 944 606 786 q 778 944 717 944 q 899 944 839 944 q 747 472 824 711 q 594 0 669 233 q 449 0 522 0 q 304 0 376 0 q 152 472 229 233 q 0 944 75 711 q 124 944 61 944 q 247 944 186 944 z "},"W":{"ha":1238,"x_min":21,"x_max":1217,"o":"m 261 944 q 325 654 293 801 q 388 363 357 507 q 452 654 419 507 q 515 944 485 801 q 625 944 569 944 q 735 944 681 944 q 801 656 768 801 q 868 365 835 510 q 931 656 900 510 q 993 944 963 801 q 1105 944 1049 944 q 1217 944 1161 944 q 1114 472 1165 711 q 1011 0 1063 233 q 873 0 943 0 q 733 0 803 0 q 674 260 704 129 q 614 521 643 392 q 557 260 586 392 q 500 0 528 129 q 363 0 432 0 q 226 0 294 0 q 124 472 175 233 q 21 944 72 711 q 141 944 81 944 q 261 944 201 944 z "},"X":{"ha":900,"x_min":7,"x_max":893,"o":"m 25 944 q 162 944 93 944 q 299 944 231 944 q 376 812 338 879 q 454 679 415 744 q 532 812 493 744 q 610 944 571 879 q 744 944 676 944 q 879 944 813 944 q 742 717 811 832 q 606 489 674 601 q 749 244 676 368 q 893 0 822 121 q 756 0 825 0 q 619 0 688 0 q 535 148 578 74 q 450 294 492 222 q 363 148 407 222 q 276 0 319 74 q 142 0 210 0 q 7 0 74 0 q 152 242 79 119 q 297 485 225 365 q 161 715 229 599 q 25 944 93 831 z "},"Y":{"ha":832,"x_min":-6,"x_max":838,"o":"m 294 0 q 294 171 294 85 q 294 342 294 257 q 144 643 221 490 q -6 944 68 796 q 124 944 58 944 q 253 944 189 944 q 335 774 293 860 q 418 604 378 689 q 500 774 458 689 q 582 944 542 860 q 710 944 646 944 q 838 944 774 944 q 688 643 764 796 q 538 342 611 490 q 538 171 538 257 q 538 0 538 85 q 417 0 478 0 q 294 0 356 0 z "},"Z":{"ha":813,"x_min":69,"x_max":743,"o":"m 69 0 q 69 107 69 53 q 69 214 69 161 q 264 472 165 342 q 458 731 363 603 q 264 731 363 731 q 69 731 165 731 q 69 838 69 783 q 69 944 69 892 q 406 944 236 944 q 743 944 576 944 q 743 838 743 892 q 743 731 743 783 q 549 472 647 603 q 354 214 450 342 q 549 214 450 214 q 743 214 647 214 q 743 107 743 161 q 743 0 743 53 q 406 0 576 0 q 69 0 236 0 z "},"a":{"ha":861,"x_min":38,"x_max":785,"o":"m 556 0 q 556 22 556 11 q 556 42 556 32 q 477 -3 521 13 q 383 -19 433 -19 q 250 8 313 -19 q 140 85 188 35 q 65 206 92 136 q 38 360 38 275 q 65 515 38 446 q 140 634 92 585 q 250 710 188 683 q 382 738 313 738 q 476 722 432 738 q 556 678 521 706 q 556 699 556 689 q 556 718 556 708 q 671 718 613 718 q 785 718 729 718 q 785 359 785 540 q 785 0 785 178 q 671 0 729 0 q 556 0 613 0 m 414 183 q 414 183 414 183 q 414 183 414 183 q 521 232 481 183 q 561 360 561 281 q 521 487 561 439 q 414 535 481 535 q 306 488 346 535 q 267 360 267 440 q 306 231 267 279 q 414 183 346 183 z "},"b":{"ha":868,"x_min":83,"x_max":831,"o":"m 313 0 q 199 0 257 0 q 83 0 140 0 q 83 507 83 251 q 83 1014 83 763 q 199 1014 140 1014 q 313 1014 257 1014 q 313 846 313 931 q 313 678 313 761 q 392 722 347 706 q 486 738 436 738 q 618 710 556 738 q 728 633 681 683 q 803 514 776 583 q 831 360 831 444 q 803 207 831 276 q 728 87 776 138 q 618 8 681 36 q 485 -19 556 -19 q 391 -3 435 -19 q 313 42 347 13 q 313 22 313 32 q 313 0 313 11 m 454 183 q 454 183 454 183 q 454 183 454 183 q 562 231 522 183 q 601 360 601 279 q 562 488 601 440 q 454 535 522 535 q 347 487 388 535 q 307 360 307 439 q 347 232 307 281 q 454 183 388 183 z "},"c":{"ha":661,"x_min":38,"x_max":594,"o":"m 38 360 q 38 360 38 360 q 38 360 38 360 q 81 545 38 465 q 200 674 124 625 q 378 733 276 722 q 594 708 479 743 q 594 601 594 656 q 594 494 594 547 q 440 531 514 533 q 319 485 367 528 q 272 360 272 443 q 319 234 272 276 q 440 190 367 192 q 594 225 514 188 q 594 118 594 172 q 594 11 594 64 q 378 -13 479 -24 q 200 46 276 -3 q 81 174 124 94 q 38 360 38 254 z "},"d":{"ha":868,"x_min":38,"x_max":785,"o":"m 556 0 q 556 22 556 11 q 556 42 556 32 q 477 -3 521 13 q 383 -19 433 -19 q 250 8 313 -19 q 140 87 188 36 q 65 207 92 138 q 38 360 38 276 q 65 514 38 444 q 140 633 92 583 q 250 710 188 683 q 382 738 313 738 q 476 722 432 738 q 556 678 521 706 q 556 846 556 761 q 556 1014 556 931 q 671 1014 613 1014 q 785 1014 729 1014 q 785 507 785 763 q 785 0 785 251 q 671 0 729 0 q 556 0 613 0 m 414 183 q 414 183 414 183 q 414 183 414 183 q 521 232 481 183 q 561 360 561 281 q 521 487 561 439 q 414 535 481 535 q 306 488 346 535 q 267 360 267 440 q 306 231 267 279 q 414 183 346 183 z "},"e":{"ha":788,"x_min":38,"x_max":750,"o":"m 694 33 q 694 33 694 33 q 694 33 694 33 q 504 -17 599 -7 q 326 -6 410 -26 q 176 63 242 14 q 74 186 111 111 q 38 360 38 261 q 65 510 38 442 q 142 631 92 579 q 260 712 192 683 q 408 740 328 740 q 539 717 481 740 q 640 651 597 693 q 710 550 683 608 q 743 422 736 492 q 735 275 750 353 q 506 275 621 275 q 276 275 390 275 q 365 200 303 222 q 512 186 426 178 q 694 231 597 194 q 694 132 694 182 q 694 33 694 82 m 403 535 q 403 535 403 535 q 403 535 403 535 q 328 513 363 535 q 276 444 294 490 q 402 444 339 444 q 528 444 465 444 q 478 513 511 492 q 403 535 446 535 z "},"f":{"ha":594,"x_min":39,"x_max":581,"o":"m 39 513 q 39 615 39 564 q 39 718 39 667 q 95 718 67 718 q 151 718 124 718 q 151 731 151 725 q 151 742 151 736 q 190 898 151 835 q 291 995 228 961 q 430 1034 354 1029 q 581 1014 506 1039 q 581 908 581 963 q 581 801 581 854 q 439 813 497 829 q 381 740 381 796 q 381 729 381 735 q 381 718 381 724 q 467 718 424 718 q 553 718 510 718 q 553 615 553 667 q 553 513 553 564 q 467 513 510 513 q 381 513 424 513 q 381 257 381 386 q 381 0 381 128 q 267 0 325 0 q 151 0 208 0 q 151 257 151 128 q 151 513 151 386 q 95 513 124 513 q 39 513 67 513 z "},"g":{"ha":828,"x_min":38,"x_max":751,"o":"m 751 117 q 751 117 751 117 q 751 117 751 117 q 701 -81 751 -1 q 563 -199 650 -160 q 363 -240 475 -239 q 128 -207 251 -242 q 128 -98 128 -153 q 128 11 128 -43 q 326 -33 238 -32 q 467 2 415 -33 q 519 100 519 38 q 519 113 519 107 q 519 125 519 119 q 439 83 485 99 q 340 68 393 68 q 184 109 253 68 q 76 223 115 150 q 38 393 38 296 q 63 531 38 468 q 132 639 88 593 q 233 709 176 685 q 353 733 290 733 q 446 719 403 733 q 522 682 489 706 q 522 700 522 692 q 522 718 522 708 q 638 718 579 718 q 751 718 696 718 q 751 417 751 569 q 751 117 751 265 m 397 267 q 397 267 397 267 q 397 267 397 267 q 491 303 456 267 q 526 399 526 340 q 491 496 526 458 q 397 533 456 533 q 300 497 336 533 q 264 399 264 460 q 300 303 264 339 q 397 267 336 267 z "},"h":{"ha":832,"x_min":83,"x_max":765,"o":"m 83 0 q 83 507 83 251 q 83 1014 83 763 q 199 1014 140 1014 q 313 1014 257 1014 q 313 848 313 932 q 313 682 313 764 q 397 723 350 708 q 497 738 443 738 q 637 701 576 738 q 731 598 697 665 q 765 436 765 531 q 765 218 765 328 q 765 0 765 108 q 651 0 710 0 q 536 0 593 0 q 536 203 536 100 q 536 406 536 306 q 510 495 536 461 q 429 529 485 529 q 343 497 374 529 q 313 406 313 465 q 313 203 313 306 q 313 0 313 100 q 199 0 257 0 q 83 0 140 0 z "},"i":{"ha":396,"x_min":54,"x_max":342,"o":"m 199 800 q 199 800 199 800 q 199 800 199 800 q 126 819 158 800 q 74 871 93 839 q 54 942 54 903 q 74 1012 54 981 q 126 1063 93 1043 q 199 1082 158 1082 q 270 1063 238 1082 q 322 1012 303 1043 q 342 942 342 981 q 322 871 342 903 q 270 819 303 839 q 199 800 238 800 m 83 0 q 83 359 83 178 q 83 718 83 540 q 199 718 140 718 q 313 718 257 718 q 313 359 313 540 q 313 0 313 178 q 199 0 257 0 q 83 0 140 0 z "},"j":{"ha":421,"x_min":-11,"x_max":369,"o":"m 226 800 q 226 800 226 800 q 226 800 226 800 q 153 819 186 800 q 101 871 121 839 q 82 942 82 903 q 101 1012 82 981 q 153 1063 121 1043 q 226 1082 186 1082 q 298 1063 265 1082 q 350 1012 331 1043 q 369 942 369 981 q 350 871 369 903 q 298 819 331 839 q 226 800 265 800 m 111 44 q 111 381 111 211 q 111 718 111 551 q 226 718 168 718 q 340 718 285 718 q 340 372 340 547 q 340 26 340 197 q 297 -152 340 -90 q 174 -231 253 -214 q -11 -231 96 -247 q -11 -131 -11 -182 q -11 -32 -11 -81 q 83 -29 56 -46 q 111 44 111 -12 z "},"k":{"ha":793,"x_min":83,"x_max":793,"o":"m 83 0 q 83 507 83 251 q 83 1014 83 763 q 199 1014 140 1014 q 313 1014 257 1014 q 313 738 313 878 q 313 461 313 597 q 413 590 363 525 q 513 718 463 654 q 647 718 579 718 q 781 718 714 718 q 648 553 715 636 q 515 388 581 469 q 655 194 585 292 q 793 0 725 96 q 657 0 725 0 q 521 0 589 0 q 417 149 469 74 q 313 299 364 225 q 313 149 313 225 q 313 0 313 74 q 199 0 257 0 q 83 0 140 0 z "},"l":{"ha":396,"x_min":83,"x_max":313,"o":"m 83 0 q 83 507 83 251 q 83 1014 83 763 q 199 1014 140 1014 q 313 1014 257 1014 q 313 507 313 763 q 313 0 313 251 q 199 0 257 0 q 83 0 140 0 z "},"m":{"ha":1204,"x_min":76,"x_max":1139,"o":"m 76 0 q 76 359 76 178 q 76 718 76 540 q 192 718 133 718 q 306 718 250 718 q 306 700 306 708 q 306 682 306 692 q 386 723 342 708 q 478 738 431 738 q 572 720 529 738 q 646 669 615 703 q 747 719 690 701 q 863 738 803 738 q 1009 703 947 738 q 1105 604 1071 668 q 1139 450 1139 540 q 1139 225 1139 339 q 1139 0 1139 111 q 1025 0 1083 0 q 910 0 967 0 q 910 211 910 104 q 910 422 910 318 q 888 499 910 469 q 819 529 867 529 q 748 501 774 529 q 722 422 722 472 q 722 211 722 318 q 722 0 722 104 q 608 0 667 0 q 493 0 550 0 q 493 211 493 104 q 493 422 493 318 q 472 499 493 469 q 403 529 450 529 q 331 501 357 529 q 306 422 306 472 q 306 211 306 318 q 306 0 306 104 q 192 0 250 0 q 76 0 133 0 z "},"n":{"ha":824,"x_min":76,"x_max":758,"o":"m 76 0 q 76 359 76 178 q 76 718 76 540 q 192 718 133 718 q 306 718 250 718 q 306 700 306 708 q 306 682 306 692 q 390 723 343 708 q 490 738 436 738 q 630 701 569 738 q 724 598 690 665 q 758 436 758 531 q 758 218 758 328 q 758 0 758 108 q 644 0 703 0 q 529 0 586 0 q 529 203 529 100 q 529 406 529 306 q 503 495 529 461 q 422 529 478 529 q 336 497 367 529 q 306 406 306 465 q 306 203 306 306 q 306 0 306 100 q 192 0 250 0 q 76 0 133 0 z "},"o":{"ha":833,"x_min":38,"x_max":796,"o":"m 417 -22 q 417 -22 417 -22 q 417 -22 417 -22 q 267 6 336 -22 q 146 87 197 35 q 66 208 94 139 q 38 360 38 278 q 66 511 38 442 q 146 632 94 581 q 267 712 197 683 q 417 740 336 740 q 567 712 499 740 q 688 632 636 683 q 767 511 739 581 q 796 360 796 442 q 767 208 796 278 q 688 87 739 139 q 567 6 636 35 q 417 -22 499 -22 m 417 185 q 417 185 417 185 q 417 185 417 185 q 526 234 485 185 q 567 360 567 283 q 526 485 567 438 q 417 533 485 533 q 308 485 349 533 q 267 360 267 438 q 308 234 267 283 q 417 185 349 185 z "},"p":{"ha":861,"x_min":76,"x_max":824,"o":"m 306 -222 q 192 -222 250 -222 q 76 -222 133 -222 q 76 248 76 10 q 76 718 76 486 q 192 718 133 718 q 306 718 250 718 q 306 699 306 708 q 306 678 306 689 q 385 722 340 706 q 479 738 429 738 q 611 710 549 738 q 722 633 674 683 q 797 514 769 583 q 824 360 824 444 q 797 207 824 276 q 722 87 769 138 q 611 8 674 36 q 478 -19 549 -19 q 384 -3 428 -19 q 306 42 340 13 q 306 -90 306 -24 q 306 -222 306 -157 m 447 183 q 447 183 447 183 q 447 183 447 183 q 555 231 515 183 q 594 360 594 279 q 555 488 594 440 q 447 535 515 535 q 340 487 381 535 q 300 360 300 439 q 340 232 300 281 q 447 183 381 183 z "},"q":{"ha":861,"x_min":38,"x_max":785,"o":"m 556 -222 q 556 -90 556 -157 q 556 42 556 -24 q 477 -3 521 13 q 383 -19 433 -19 q 250 8 313 -19 q 140 87 188 36 q 65 207 92 138 q 38 360 38 276 q 65 514 38 444 q 140 633 92 583 q 250 710 188 683 q 382 738 313 738 q 476 722 432 738 q 556 678 521 706 q 556 699 556 689 q 556 718 556 708 q 671 718 613 718 q 785 718 729 718 q 785 248 785 486 q 785 -222 785 10 q 671 -222 729 -222 q 556 -222 613 -222 m 414 183 q 414 183 414 183 q 414 183 414 183 q 521 232 481 183 q 561 360 561 281 q 521 487 561 439 q 414 535 481 535 q 306 488 346 535 q 267 360 267 440 q 306 231 267 279 q 414 183 346 183 z "},"r":{"ha":549,"x_min":76,"x_max":521,"o":"m 76 0 q 76 359 76 178 q 76 718 76 540 q 192 718 133 718 q 306 718 250 718 q 306 699 306 708 q 306 679 306 689 q 403 725 349 710 q 521 733 457 740 q 521 621 521 678 q 521 508 521 564 q 358 490 411 524 q 306 379 306 456 q 306 190 306 286 q 306 0 306 94 q 192 0 250 0 q 76 0 133 0 z "},"s":{"ha":660,"x_min":54,"x_max":625,"o":"m 625 222 q 625 222 625 222 q 625 222 625 222 q 577 81 625 136 q 449 1 529 26 q 269 -20 368 -24 q 67 13 169 -17 q 67 121 67 65 q 67 229 67 176 q 183 188 125 203 q 289 171 242 174 q 365 178 336 168 q 394 214 394 189 q 370 244 394 233 q 307 265 346 256 q 224 287 268 274 q 142 324 181 300 q 78 390 103 349 q 54 496 54 431 q 99 628 54 574 q 221 712 144 683 q 392 740 297 740 q 585 708 486 740 q 585 600 585 656 q 585 492 585 544 q 439 542 507 529 q 329 545 371 554 q 288 507 288 536 q 312 477 288 488 q 374 458 336 467 q 456 436 413 450 q 538 398 500 422 q 601 331 576 374 q 625 222 625 289 z "},"t":{"ha":546,"x_min":39,"x_max":511,"o":"m 151 0 q 151 257 151 128 q 151 513 151 386 q 95 513 124 513 q 39 513 67 513 q 39 615 39 564 q 39 718 39 667 q 95 718 67 718 q 151 718 124 718 q 151 815 151 767 q 151 910 151 863 q 267 910 208 910 q 381 910 325 910 q 381 815 381 863 q 381 718 381 767 q 446 718 413 718 q 511 718 479 718 q 511 615 511 667 q 511 513 511 564 q 446 513 479 513 q 381 513 413 513 q 381 257 381 386 q 381 0 381 128 q 267 0 325 0 q 151 0 208 0 z "},"u":{"ha":824,"x_min":65,"x_max":747,"o":"m 747 718 q 747 359 747 540 q 747 0 747 178 q 633 0 692 0 q 518 0 575 0 q 518 18 518 10 q 518 36 518 26 q 434 -5 481 10 q 333 -19 388 -19 q 194 17 254 -19 q 99 121 133 53 q 65 282 65 189 q 65 500 65 390 q 65 718 65 610 q 181 718 122 718 q 294 718 239 718 q 294 515 294 618 q 294 313 294 413 q 320 223 294 257 q 401 189 346 189 q 488 221 457 189 q 518 313 518 253 q 518 515 518 413 q 518 718 518 618 q 633 718 575 718 q 747 718 692 718 z "},"v":{"ha":750,"x_min":-7,"x_max":757,"o":"m 242 0 q 117 359 181 178 q -7 718 54 540 q 113 718 53 718 q 233 718 174 718 q 306 498 269 608 q 378 278 343 388 q 450 498 414 388 q 521 718 486 608 q 639 718 579 718 q 757 718 699 718 q 633 359 696 540 q 508 0 569 178 q 375 0 443 0 q 242 0 307 0 z "},"w":{"ha":1075,"x_min":4,"x_max":1071,"o":"m 222 0 q 113 359 168 178 q 4 718 58 540 q 120 718 61 718 q 236 718 179 718 q 292 522 264 621 q 347 325 321 422 q 395 522 371 422 q 442 718 419 621 q 540 718 490 718 q 638 718 589 718 q 685 520 661 621 q 732 321 710 419 q 788 520 760 419 q 843 718 817 621 q 958 718 900 718 q 1071 718 1015 718 q 962 359 1017 540 q 853 0 907 178 q 740 0 797 0 q 628 0 683 0 q 583 174 606 86 q 538 346 560 261 q 492 174 515 261 q 447 0 469 86 q 335 0 392 0 q 222 0 278 0 z "},"x":{"ha":750,"x_min":7,"x_max":743,"o":"m 18 718 q 146 718 82 718 q 274 718 210 718 q 325 634 299 676 q 376 550 351 592 q 429 634 403 592 q 482 718 456 676 q 608 718 544 718 q 735 718 672 718 q 624 547 681 633 q 514 375 568 461 q 629 188 571 282 q 743 0 688 93 q 615 0 679 0 q 488 0 551 0 q 431 95 460 47 q 375 190 403 143 q 317 95 347 143 q 260 0 288 47 q 133 0 197 0 q 7 0 69 0 q 122 184 64 90 q 238 368 181 278 q 128 543 183 454 q 18 718 72 632 z "},"y":{"ha":750,"x_min":-7,"x_max":757,"o":"m 143 -222 q 201 -74 171 -149 q 258 72 231 0 q 126 395 193 232 q -7 718 58 558 q 115 718 54 718 q 236 718 176 718 q 309 538 272 629 q 382 356 346 446 q 450 538 415 446 q 518 718 485 629 q 638 718 578 718 q 757 718 697 718 q 570 248 664 486 q 383 -222 476 10 q 263 -222 324 -222 q 143 -222 203 -222 z "},"z":{"ha":681,"x_min":56,"x_max":625,"o":"m 56 0 q 56 99 56 49 q 56 197 56 149 q 200 358 128 278 q 344 519 272 439 q 200 519 272 519 q 56 519 128 519 q 56 619 56 568 q 56 718 56 669 q 340 718 196 718 q 625 718 485 718 q 625 619 625 669 q 625 519 625 568 q 481 358 553 439 q 336 197 408 278 q 481 197 408 197 q 625 197 553 197 q 625 99 625 149 q 625 0 625 49 q 340 0 485 0 q 56 0 196 0 z "},".":{"ha":404,"x_min":56,"x_max":349,"o":"m 203 -22 q 203 -22 203 -22 q 203 -22 203 -22 q 128 -3 163 -22 q 75 50 94 17 q 56 122 56 83 q 75 194 56 161 q 128 246 94 226 q 203 265 163 265 q 276 246 243 265 q 328 194 308 226 q 349 122 349 161 q 328 50 349 83 q 276 -3 308 17 q 203 -22 243 -22 z "},",":{"ha":413,"x_min":39,"x_max":342,"o":"m 39 -140 q 73 56 56 -43 q 107 251 90 154 q 224 251 165 251 q 342 251 283 251 q 290 56 317 154 q 239 -140 264 -43 q 139 -140 189 -140 q 39 -140 89 -140 z "},":":{"ha":404,"x_min":56,"x_max":349,"o":"m 203 453 q 203 453 203 453 q 203 453 203 453 q 99 495 142 453 q 56 597 56 538 q 75 669 56 636 q 128 721 94 701 q 203 740 163 740 q 276 721 243 740 q 328 669 308 701 q 349 597 349 636 q 328 525 349 558 q 276 472 308 492 q 203 453 243 453 m 203 -22 q 203 -22 203 -22 q 203 -22 203 -22 q 128 -3 163 -22 q 75 50 94 17 q 56 122 56 83 q 99 223 56 181 q 203 265 142 265 q 276 246 243 265 q 328 194 308 226 q 349 122 349 161 q 328 50 349 83 q 276 -3 308 17 q 203 -22 243 -22 z "},";":{"ha":404,"x_min":21,"x_max":350,"o":"m 204 453 q 204 453 204 453 q 204 453 204 453 q 100 495 143 453 q 57 597 57 538 q 76 669 57 636 q 130 721 96 701 q 204 740 164 740 q 277 721 244 740 q 330 669 310 701 q 350 597 350 636 q 330 525 350 558 q 277 472 310 492 q 204 453 244 453 m 21 -140 q 55 56 38 -43 q 89 251 72 154 q 206 251 147 251 q 324 251 265 251 q 272 56 299 154 q 221 -140 246 -43 q 121 -140 171 -140 q 21 -140 71 -140 z "},"·":{"ha":404,"x_min":56,"x_max":349,"o":"m 203 285 q 203 285 203 285 q 203 285 203 285 q 128 304 163 285 q 75 357 94 324 q 56 429 56 390 q 75 501 56 468 q 128 553 94 533 q 203 572 163 572 q 276 553 243 572 q 328 501 308 533 q 349 429 349 468 q 328 357 349 390 q 276 304 308 324 q 203 285 243 285 z "},"…":{"ha":1213,"x_min":56,"x_max":1157,"o":"m 203 -22 q 203 -22 203 -22 q 203 -22 203 -22 q 128 -3 163 -22 q 75 50 94 17 q 56 122 56 83 q 75 194 56 161 q 128 246 94 226 q 203 265 163 265 q 276 246 243 265 q 328 194 308 226 q 349 122 349 161 q 328 50 349 83 q 276 -3 308 17 q 203 -22 243 -22 m 607 -22 q 607 -22 607 -22 q 607 -22 607 -22 q 533 -3 567 -22 q 479 50 499 17 q 460 122 460 83 q 479 194 460 161 q 533 246 499 226 q 607 265 567 265 q 680 246 647 265 q 733 194 713 226 q 753 122 753 161 q 733 50 753 83 q 680 -3 713 17 q 607 -22 647 -22 m 1011 -22 q 1011 -22 1011 -22 q 1011 -22 1011 -22 q 937 -3 971 -22 q 883 50 903 17 q 864 122 864 83 q 883 194 864 161 q 937 246 903 226 q 1011 265 971 265 q 1084 246 1051 265 q 1137 194 1117 226 q 1157 122 1157 161 q 1137 50 1157 83 q 1084 -3 1117 17 q 1011 -22 1051 -22 z "},"!":{"ha":404,"x_min":56,"x_max":349,"o":"m 88 340 q 85 642 86 490 q 81 944 83 794 q 203 944 142 944 q 324 944 264 944 q 321 642 322 794 q 317 340 319 490 q 203 340 261 340 q 88 340 144 340 m 203 -22 q 203 -22 203 -22 q 203 -22 203 -22 q 128 -3 163 -22 q 75 50 94 17 q 56 122 56 83 q 99 223 56 181 q 203 265 142 265 q 276 246 243 265 q 328 194 308 226 q 349 122 349 161 q 328 50 349 83 q 276 -3 308 17 q 203 -22 243 -22 z "},"¡":{"ha":404,"x_min":56,"x_max":349,"o":"m 201 828 q 201 828 201 828 q 201 828 201 828 q 276 808 243 828 q 329 756 310 789 q 349 683 349 724 q 329 612 349 644 q 276 560 310 579 q 201 540 243 540 q 129 560 163 540 q 76 612 96 579 q 56 683 56 644 q 76 756 56 724 q 129 808 96 789 q 201 828 163 828 m 317 465 q 321 163 319 315 q 324 -139 322 11 q 203 -139 264 -139 q 81 -139 142 -139 q 85 163 83 11 q 88 465 86 315 q 203 465 144 465 q 317 465 261 465 z "},"?":{"ha":710,"x_min":49,"x_max":679,"o":"m 429 415 q 428 378 429 397 q 428 340 428 360 q 314 340 372 340 q 199 340 256 340 q 196 456 197 397 q 193 569 194 514 q 385 601 326 581 q 444 658 444 621 q 410 709 444 690 q 317 733 375 728 q 190 726 260 738 q 49 686 119 714 q 49 803 49 744 q 49 921 49 863 q 377 954 235 968 q 599 872 519 940 q 679 685 679 803 q 647 559 679 611 q 559 472 615 507 q 429 415 503 438 m 314 -22 q 314 -22 314 -22 q 314 -22 314 -22 q 240 -3 274 -22 q 186 50 206 17 q 167 122 167 83 q 186 194 167 161 q 240 246 206 226 q 314 265 274 265 q 387 246 354 265 q 440 194 419 226 q 460 122 460 161 q 440 50 460 83 q 387 -3 419 17 q 314 -22 354 -22 z "},"¿":{"ha":710,"x_min":31,"x_max":661,"o":"m 396 828 q 396 828 396 828 q 396 828 396 828 q 471 808 438 828 q 524 756 504 789 q 543 683 543 724 q 500 583 543 625 q 396 540 457 540 q 324 560 357 540 q 270 612 290 579 q 250 683 250 644 q 270 756 250 724 q 324 808 290 789 q 396 828 357 828 m 281 390 q 281 428 281 410 q 282 465 282 447 q 397 465 339 465 q 511 465 456 465 q 514 351 513 410 q 517 236 515 293 q 324 205 383 225 q 265 147 265 185 q 300 97 265 115 q 392 73 335 78 q 520 80 450 68 q 661 119 590 92 q 661 2 661 61 q 661 -115 661 -57 q 333 -149 475 -162 q 110 -66 190 -135 q 31 121 31 3 q 63 247 31 194 q 151 334 94 299 q 281 390 208 369 z "},"'":{"ha":413,"x_min":89,"x_max":324,"o":"m 108 553 q 99 749 103 650 q 89 944 94 847 q 206 944 147 944 q 324 944 265 944 q 314 749 318 847 q 304 553 310 650 q 206 553 256 553 q 108 553 157 553 z "},"\"":{"ha":719,"x_min":89,"x_max":631,"o":"m 108 553 q 99 749 103 650 q 89 944 94 847 q 206 944 147 944 q 324 944 265 944 q 314 749 318 847 q 304 553 310 650 q 206 553 256 553 q 108 553 157 553 m 415 553 q 406 749 410 650 q 396 944 401 847 q 513 944 454 944 q 631 944 572 944 q 621 749 625 847 q 611 553 617 650 q 513 553 563 553 q 415 553 464 553 z "},"‘":{"ha":413,"x_min":57,"x_max":360,"o":"m 360 944 q 326 749 343 847 q 292 553 308 650 q 174 553 233 553 q 57 553 115 553 q 108 749 82 650 q 160 944 135 847 q 260 944 210 944 q 360 944 310 944 z "},"’":{"ha":413,"x_min":53,"x_max":356,"o":"m 53 553 q 87 749 69 650 q 121 944 104 847 q 238 944 179 944 q 356 944 297 944 q 304 749 331 847 q 253 553 278 650 q 153 553 203 553 q 53 553 103 553 z "},"‚":{"ha":413,"x_min":39,"x_max":342,"o":"m 39 -140 q 73 56 56 -43 q 107 251 90 154 q 224 251 165 251 q 342 251 283 251 q 290 56 317 154 q 239 -140 264 -43 q 139 -140 189 -140 q 39 -140 89 -140 z "},"“":{"ha":719,"x_min":57,"x_max":667,"o":"m 360 944 q 326 749 343 847 q 292 553 308 650 q 174 553 233 553 q 57 553 115 553 q 108 749 82 650 q 160 944 135 847 q 260 944 210 944 q 360 944 310 944 m 667 944 q 633 749 650 847 q 599 553 615 650 q 481 553 540 553 q 364 553 422 553 q 415 749 389 650 q 467 944 442 847 q 567 944 517 944 q 667 944 617 944 z "},"”":{"ha":719,"x_min":53,"x_max":663,"o":"m 360 553 q 394 749 376 650 q 428 944 411 847 q 545 944 486 944 q 663 944 604 944 q 611 749 638 847 q 560 553 585 650 q 460 553 510 553 q 360 553 410 553 m 53 553 q 87 749 69 650 q 121 944 104 847 q 238 944 179 944 q 356 944 297 944 q 304 749 331 847 q 253 553 278 650 q 153 553 203 553 q 53 553 103 553 z "},"„":{"ha":719,"x_min":39,"x_max":649,"o":"m 346 -140 q 380 56 363 -43 q 414 251 397 154 q 531 251 472 251 q 649 251 590 251 q 597 56 624 154 q 546 -140 571 -43 q 446 -140 496 -140 q 346 -140 396 -140 m 39 -140 q 73 56 56 -43 q 107 251 90 154 q 224 251 165 251 q 342 251 283 251 q 290 56 317 154 q 239 -140 264 -43 q 139 -140 189 -140 q 39 -140 89 -140 z "},"‹":{"ha":593,"x_min":56,"x_max":524,"o":"m 56 239 q 56 363 56 300 q 56 485 56 425 q 290 617 171 550 q 524 750 408 685 q 524 623 524 688 q 524 496 524 558 q 401 431 464 464 q 278 365 339 397 q 401 299 339 332 q 524 232 464 265 q 524 103 524 168 q 524 -26 524 38 q 290 106 408 39 q 56 239 171 174 z "},"›":{"ha":593,"x_min":69,"x_max":538,"o":"m 538 239 q 303 106 422 174 q 69 -26 185 39 q 69 101 69 36 q 69 228 69 165 q 193 293 131 260 q 315 358 256 326 q 193 425 256 392 q 69 492 131 458 q 69 621 69 556 q 69 750 69 686 q 303 617 185 685 q 538 485 422 550 q 538 363 538 425 q 538 239 538 300 z "},"«":{"ha":1079,"x_min":56,"x_max":1010,"o":"m 56 239 q 56 363 56 300 q 56 485 56 425 q 276 617 165 550 q 496 750 386 685 q 496 623 496 688 q 496 496 496 558 q 381 431 439 464 q 265 365 322 397 q 381 299 322 332 q 496 232 439 265 q 496 103 496 168 q 496 -26 496 38 q 276 106 386 39 q 56 239 165 174 m 569 239 q 569 363 569 300 q 569 485 569 425 q 790 617 679 550 q 1010 750 900 685 q 1010 623 1010 688 q 1010 496 1010 558 q 894 431 953 464 q 779 365 836 397 q 894 299 836 332 q 1010 232 953 265 q 1010 103 1010 168 q 1010 -26 1010 38 q 790 106 900 39 q 569 239 679 174 z "},"»":{"ha":1079,"x_min":69,"x_max":1024,"o":"m 1024 239 q 803 106 914 174 q 583 -26 693 39 q 583 101 583 36 q 583 228 583 165 q 699 293 640 260 q 814 358 757 326 q 699 425 757 392 q 583 492 640 458 q 583 621 583 556 q 583 750 583 686 q 803 617 693 685 q 1024 485 914 550 q 1024 363 1024 425 q 1024 239 1024 300 m 510 239 q 290 106 400 174 q 69 -26 179 39 q 69 101 69 36 q 69 228 69 165 q 185 293 126 260 q 300 358 243 326 q 185 425 243 392 q 69 492 126 458 q 69 621 69 556 q 69 750 69 686 q 290 617 179 685 q 510 485 400 550 q 510 363 510 425 q 510 239 510 300 z "},"(":{"ha":642,"x_min":42,"x_max":599,"o":"m 42 424 q 42 424 42 424 q 42 424 42 424 q 72 657 42 553 q 154 842 101 761 q 277 978 207 922 q 429 1069 347 1035 q 599 1113 511 1103 q 599 1008 599 1061 q 599 904 599 956 q 430 825 503 881 q 316 672 357 769 q 275 424 275 575 q 316 176 275 274 q 430 22 357 78 q 599 -57 503 -33 q 599 -161 599 -108 q 599 -265 599 -214 q 429 -221 511 -254 q 277 -131 347 -187 q 154 6 207 -75 q 72 190 101 86 q 42 424 42 294 z "},")":{"ha":642,"x_min":42,"x_max":599,"o":"m 599 425 q 599 425 599 425 q 599 425 599 425 q 569 192 599 296 q 486 7 539 88 q 363 -130 433 -74 q 211 -219 293 -186 q 42 -264 129 -253 q 42 -159 42 -211 q 42 -56 42 -107 q 211 24 139 -32 q 324 177 283 79 q 365 425 365 275 q 324 674 365 576 q 211 826 283 771 q 42 906 139 882 q 42 1010 42 958 q 42 1114 42 1063 q 211 1070 129 1104 q 363 980 293 1036 q 486 843 433 924 q 569 658 539 763 q 599 425 599 554 z "},"[":{"ha":618,"x_min":104,"x_max":563,"o":"m 104 -222 q 104 424 104 97 q 104 1069 104 750 q 333 1069 218 1069 q 563 1069 449 1069 q 563 969 563 1019 q 563 868 563 918 q 449 868 507 868 q 333 868 390 868 q 333 424 333 649 q 333 -21 333 199 q 449 -21 390 -21 q 563 -21 507 -21 q 563 -122 563 -71 q 563 -222 563 -172 q 333 -222 449 -222 q 104 -222 218 -222 z "},"]":{"ha":618,"x_min":56,"x_max":514,"o":"m 514 -222 q 285 -222 400 -222 q 56 -222 169 -222 q 56 -122 56 -172 q 56 -21 56 -71 q 171 -21 113 -21 q 285 -21 229 -21 q 285 424 285 199 q 285 868 285 649 q 171 868 229 868 q 56 868 113 868 q 56 969 56 918 q 56 1069 56 1019 q 285 1069 169 1069 q 514 1069 400 1069 q 514 424 514 750 q 514 -222 514 97 z "},"{":{"ha":640,"x_min":56,"x_max":585,"o":"m 56 329 q 56 423 56 376 q 56 517 56 469 q 94 517 75 517 q 132 517 114 517 q 176 556 176 517 q 164 629 176 588 q 138 725 151 671 q 125 846 125 779 q 183 1006 125 946 q 344 1083 240 1065 q 585 1069 449 1100 q 585 968 585 1019 q 585 867 585 917 q 404 886 458 904 q 350 818 350 868 q 363 744 350 785 q 390 656 376 703 q 404 556 404 608 q 385 478 404 514 q 321 422 365 443 q 385 367 365 403 q 404 290 404 332 q 390 190 404 238 q 363 102 376 143 q 350 28 350 61 q 404 -40 350 -22 q 585 -21 458 -58 q 585 -122 585 -71 q 585 -224 585 -174 q 344 -236 449 -253 q 183 -159 240 -219 q 125 0 125 -99 q 138 122 125 68 q 164 217 151 175 q 176 290 176 258 q 132 329 176 329 q 94 329 114 329 q 56 329 75 329 z "},"}":{"ha":640,"x_min":56,"x_max":585,"o":"m 236 293 q 236 293 236 293 q 236 293 236 293 q 256 370 236 335 q 319 426 275 406 q 256 481 275 446 q 236 558 236 517 q 250 658 236 611 q 277 747 264 706 q 290 821 290 788 q 237 889 290 871 q 56 869 183 907 q 56 971 56 919 q 56 1072 56 1022 q 297 1085 193 1103 q 458 1008 400 1068 q 515 849 515 949 q 503 728 515 782 q 477 632 490 674 q 464 558 464 590 q 508 519 464 519 q 547 519 528 519 q 585 519 567 519 q 585 426 585 472 q 585 332 585 379 q 547 332 567 332 q 508 332 528 332 q 464 293 464 332 q 477 219 464 261 q 503 124 490 178 q 515 3 515 71 q 458 -156 515 -96 q 297 -233 400 -217 q 56 -221 193 -250 q 56 -119 56 -171 q 56 -18 56 -68 q 237 -37 183 -56 q 290 31 290 -19 q 277 105 290 64 q 250 193 264 146 q 236 293 236 240 z "},"/":{"ha":681,"x_min":7,"x_max":653,"o":"m 7 -222 q 215 424 110 97 q 424 1069 321 750 q 539 1069 481 1069 q 653 1069 597 1069 q 444 424 550 750 q 236 -222 339 97 q 122 -222 181 -222 q 7 -222 64 -222 z "},"|":{"ha":438,"x_min":104,"x_max":333,"o":"m 333 -222 q 219 -222 278 -222 q 104 -222 161 -222 q 104 424 104 97 q 104 1069 104 750 q 219 1069 161 1069 q 333 1069 278 1069 q 333 424 333 750 q 333 -222 333 97 z "},"¦":{"ha":438,"x_min":104,"x_max":333,"o":"m 333 472 q 219 472 278 472 q 104 472 161 472 q 104 772 104 621 q 104 1069 104 922 q 219 1069 161 1069 q 333 1069 278 1069 q 333 772 333 922 q 333 472 333 621 m 333 -222 q 219 -222 278 -222 q 104 -222 161 -222 q 104 77 104 -74 q 104 375 104 228 q 219 375 161 375 q 333 375 278 375 q 333 77 333 228 q 333 -222 333 -74 z "},"\\":{"ha":681,"x_min":28,"x_max":674,"o":"m 674 -222 q 560 -222 618 -222 q 444 -222 501 -222 q 236 424 342 97 q 28 1069 131 750 q 143 1069 85 1069 q 257 1069 201 1069 q 465 424 360 750 q 674 -222 571 97 z "},"⁄":{"ha":789,"x_min":24,"x_max":765,"o":"m 24 0 q 299 472 160 233 q 574 944 438 711 q 670 944 622 944 q 765 944 718 944 q 490 472 629 711 q 215 0 351 233 q 120 0 168 0 q 24 0 72 0 z "},"•":{"ha":767,"x_min":119,"x_max":647,"o":"m 385 168 q 385 168 385 168 q 385 168 385 168 q 281 188 329 168 q 197 244 233 208 q 140 327 161 281 q 119 428 119 374 q 140 527 119 481 q 197 609 161 574 q 281 665 233 644 q 385 685 329 685 q 486 665 439 685 q 569 609 533 644 q 626 527 606 574 q 647 428 647 481 q 626 327 647 374 q 569 244 606 281 q 486 188 533 208 q 385 168 439 168 z "},"-":{"ha":472,"x_min":49,"x_max":424,"o":"m 49 321 q 49 428 49 374 q 49 536 49 483 q 236 536 142 536 q 424 536 331 536 q 424 428 424 483 q 424 321 424 374 q 236 321 331 321 q 49 321 142 321 z "},"­":{"ha":472,"x_min":49,"x_max":424,"o":"m 49 321 q 49 428 49 374 q 49 536 49 483 q 236 536 142 536 q 424 536 331 536 q 424 428 424 483 q 424 321 424 374 q 236 321 331 321 q 49 321 142 321 z "},"–":{"ha":771,"x_min":90,"x_max":681,"o":"m 90 321 q 90 428 90 374 q 90 536 90 483 q 385 536 236 536 q 681 536 535 536 q 681 428 681 483 q 681 321 681 374 q 385 321 535 321 q 90 321 236 321 z "},"—":{"ha":1118,"x_min":90,"x_max":1028,"o":"m 90 321 q 90 428 90 374 q 90 536 90 483 q 559 536 322 536 q 1028 536 796 536 q 1028 428 1028 483 q 1028 321 1028 374 q 559 321 796 321 q 90 321 322 321 z "},"_":{"ha":854,"x_min":-7,"x_max":861,"o":"m -7 -215 q -7 -108 -7 -162 q -7 0 -7 -53 q 428 0 208 0 q 861 0 647 0 q 861 -108 861 -53 q 861 -215 861 -162 q 428 -215 647 -215 q -7 -215 208 -215 z "},"$":{"ha":694,"x_min":56,"x_max":668,"o":"m 213 -139 q 218 -55 215 -97 q 224 29 221 -12 q 147 40 186 32 q 69 58 108 49 q 69 174 69 115 q 69 290 69 233 q 243 242 163 254 q 374 242 324 229 q 424 293 424 256 q 397 334 424 318 q 328 365 371 350 q 240 399 286 379 q 151 449 193 418 q 82 527 108 479 q 56 646 56 575 q 118 809 56 744 q 281 899 181 874 q 286 984 283 942 q 292 1069 289 1026 q 395 1069 343 1069 q 499 1069 447 1069 q 493 990 496 1031 q 488 910 490 950 q 624 881 556 901 q 624 765 624 824 q 624 649 624 706 q 463 699 536 689 q 345 697 389 710 q 301 650 301 683 q 328 610 301 626 q 396 580 354 594 q 485 545 438 565 q 574 494 532 525 q 642 414 615 463 q 668 292 668 365 q 601 119 668 182 q 431 36 535 57 q 425 -51 428 -7 q 419 -139 422 -94 q 316 -139 368 -139 q 213 -139 264 -139 z "},"¢":{"ha":660,"x_min":38,"x_max":594,"o":"m 233 -69 q 239 23 236 -24 q 244 115 242 69 q 94 239 150 156 q 38 436 38 322 q 67 587 38 519 q 152 701 97 654 q 281 771 207 749 q 286 858 283 814 q 292 944 289 901 q 392 944 342 944 q 493 944 443 944 q 489 866 492 906 q 483 788 486 826 q 539 778 511 785 q 594 764 567 772 q 594 657 594 711 q 594 550 594 603 q 440 589 514 589 q 319 551 367 589 q 272 436 272 513 q 319 322 272 360 q 440 284 367 283 q 594 322 514 285 q 594 215 594 269 q 594 108 594 161 q 518 90 556 97 q 444 82 481 83 q 440 6 443 44 q 435 -69 438 -32 q 334 -69 385 -69 q 233 -69 283 -69 z "},"£":{"ha":779,"x_min":69,"x_max":717,"o":"m 69 365 q 69 459 69 413 q 69 553 69 506 q 103 553 86 553 q 138 553 121 553 q 128 618 132 585 q 125 682 125 651 q 176 845 125 782 q 310 937 226 908 q 495 962 394 965 q 696 925 596 958 q 696 810 696 868 q 696 694 696 751 q 531 742 606 736 q 413 722 457 749 q 368 638 368 696 q 371 598 368 619 q 379 553 374 576 q 520 553 449 553 q 661 553 592 553 q 661 459 661 506 q 661 365 661 413 q 540 365 601 365 q 418 365 479 365 q 423 321 421 343 q 425 276 425 299 q 423 243 425 258 q 417 213 421 228 q 567 213 490 213 q 717 213 643 213 q 717 107 717 161 q 717 0 717 53 q 394 0 557 0 q 69 0 231 0 q 69 107 69 53 q 69 213 69 161 q 95 213 82 213 q 121 213 108 213 q 173 226 157 213 q 189 269 189 239 q 185 313 189 289 q 175 365 182 338 q 122 365 149 365 q 69 365 96 365 z "},"¥":{"ha":832,"x_min":8,"x_max":824,"o":"m 69 140 q 69 221 69 181 q 69 300 69 261 q 182 300 125 300 q 294 300 239 300 q 294 331 294 315 q 294 363 294 347 q 182 363 239 363 q 69 363 125 363 q 69 443 69 403 q 69 522 69 483 q 153 522 111 522 q 238 522 196 522 q 124 733 182 626 q 8 944 65 840 q 138 944 72 944 q 267 944 203 944 q 342 803 304 875 q 418 661 381 731 q 493 803 456 731 q 568 944 531 875 q 696 944 632 944 q 824 944 760 944 q 710 733 768 840 q 594 522 651 626 q 678 522 636 522 q 763 522 721 522 q 763 443 763 483 q 763 363 763 403 q 650 363 707 363 q 538 363 593 363 q 538 331 538 347 q 538 300 538 315 q 650 300 593 300 q 763 300 707 300 q 763 221 763 261 q 763 140 763 181 q 650 140 707 140 q 538 140 593 140 q 538 70 538 106 q 538 0 538 35 q 417 0 478 0 q 294 0 356 0 q 294 70 294 35 q 294 140 294 106 q 182 140 239 140 q 69 140 125 140 z "},"€":{"ha":842,"x_min":42,"x_max":786,"o":"m 42 296 q 42 369 42 332 q 42 442 42 406 q 85 442 63 442 q 128 442 107 442 q 126 457 126 449 q 126 472 126 465 q 126 488 126 481 q 128 504 126 496 q 85 504 107 504 q 42 504 63 504 q 42 577 42 540 q 42 650 42 614 q 99 650 69 650 q 156 650 128 650 q 245 804 186 738 q 387 910 304 871 q 571 955 469 949 q 786 928 672 961 q 786 816 786 872 q 786 704 786 760 q 569 744 669 758 q 417 650 469 731 q 557 650 486 650 q 697 650 628 650 q 690 577 693 614 q 682 504 686 540 q 527 504 606 504 q 371 504 449 504 q 369 489 369 497 q 369 472 369 481 q 369 456 369 464 q 371 442 369 449 q 524 442 447 442 q 676 442 600 442 q 669 369 672 406 q 661 296 665 332 q 539 296 601 296 q 415 296 476 296 q 569 201 468 215 q 786 240 669 186 q 786 128 786 185 q 786 17 786 72 q 570 -10 672 -17 q 385 35 468 -4 q 244 140 303 74 q 154 296 185 207 q 98 296 126 296 q 42 296 69 296 z "},"₡":{"ha":786,"x_min":43,"x_max":689,"o":"m 43 472 q 43 472 43 472 q 43 472 43 472 q 94 690 43 594 q 235 842 146 785 q 247 942 242 892 q 258 1042 253 992 q 341 1042 299 1042 q 424 1042 383 1042 q 416 974 419 1008 q 408 906 413 939 q 443 910 425 908 q 479 913 461 911 q 487 977 483 944 q 494 1042 490 1010 q 577 1042 535 1042 q 660 1042 619 1042 q 651 968 656 1006 q 643 894 647 931 q 666 888 654 892 q 689 882 678 885 q 689 769 689 826 q 689 657 689 713 q 653 672 671 665 q 618 683 636 678 q 592 466 606 576 q 567 249 579 356 q 628 264 597 254 q 689 288 658 274 q 689 175 689 232 q 689 63 689 118 q 615 44 651 51 q 542 35 578 38 q 533 -38 538 -1 q 525 -111 529 -75 q 442 -111 485 -111 q 360 -111 400 -111 q 369 -33 364 -72 q 378 46 374 7 q 342 54 360 49 q 310 67 325 60 q 299 -22 304 24 q 289 -111 294 -67 q 206 -111 249 -111 q 124 -111 164 -111 q 140 29 132 -42 q 156 169 147 100 q 73 303 103 226 q 43 472 43 381 m 268 472 q 268 472 268 472 q 268 472 268 472 q 306 335 268 388 q 403 260 343 283 q 428 478 415 368 q 454 697 442 589 q 321 630 374 685 q 268 472 268 575 z "},"ƒ":{"ha":683,"x_min":-67,"x_max":669,"o":"m 157 58 q 178 285 168 171 q 197 513 188 400 q 140 513 169 513 q 83 513 111 513 q 92 615 88 564 q 101 718 97 667 q 158 718 129 718 q 215 718 188 718 q 216 731 215 725 q 217 742 217 736 q 291 937 228 865 q 453 1028 354 1008 q 669 1014 553 1047 q 660 908 664 963 q 650 801 656 854 q 500 813 549 829 q 446 740 451 796 q 445 729 446 735 q 444 718 444 724 q 530 718 488 718 q 615 718 572 718 q 606 615 611 667 q 597 513 601 564 q 512 513 554 513 q 426 513 469 513 q 407 285 417 400 q 386 57 397 169 q 312 -138 375 -67 q 150 -228 249 -210 q -67 -215 51 -247 q -57 -108 -61 -162 q -47 -3 -53 -54 q 103 -14 54 -31 q 157 58 151 3 z "},"₣":{"ha":754,"x_min":28,"x_max":692,"o":"m 125 0 q 125 72 125 36 q 125 142 125 107 q 76 142 101 142 q 28 142 51 142 q 28 226 28 183 q 28 310 28 268 q 76 310 51 310 q 125 310 101 310 q 125 627 125 467 q 125 944 125 788 q 408 944 265 944 q 692 944 551 944 q 692 835 692 890 q 692 725 692 779 q 530 725 611 725 q 368 725 449 725 q 368 671 368 699 q 368 615 368 643 q 517 615 442 615 q 664 615 592 615 q 664 511 664 564 q 664 406 664 458 q 517 406 592 406 q 368 406 442 406 q 368 358 368 382 q 368 310 368 333 q 465 310 417 310 q 560 310 513 310 q 560 226 560 268 q 560 142 560 183 q 465 142 513 142 q 368 142 417 142 q 368 72 368 107 q 368 0 368 36 q 247 0 308 0 q 125 0 186 0 z "},"₤":{"ha":779,"x_min":69,"x_max":717,"o":"m 69 365 q 69 459 69 413 q 69 553 69 506 q 103 553 86 553 q 138 553 121 553 q 128 618 132 585 q 125 682 125 651 q 176 845 125 782 q 310 937 226 908 q 495 962 394 965 q 696 925 596 958 q 696 810 696 868 q 696 694 696 751 q 531 742 606 736 q 413 722 457 749 q 368 638 368 696 q 371 598 368 619 q 379 553 374 576 q 520 553 449 553 q 661 553 592 553 q 661 459 661 506 q 661 365 661 413 q 540 365 601 365 q 418 365 479 365 q 423 321 421 343 q 425 276 425 299 q 423 243 425 258 q 417 213 421 228 q 567 213 490 213 q 717 213 643 213 q 717 107 717 161 q 717 0 717 53 q 394 0 557 0 q 69 0 231 0 q 69 107 69 53 q 69 213 69 161 q 95 213 82 213 q 121 213 108 213 q 173 226 157 213 q 189 269 189 239 q 185 313 189 289 q 175 365 182 338 q 122 365 149 365 q 69 365 96 365 z "},"₦":{"ha":963,"x_min":90,"x_max":956,"o":"m 174 0 q 174 127 174 63 q 174 254 174 192 q 132 254 153 254 q 90 254 111 254 q 90 327 90 290 q 90 400 90 364 q 132 400 111 400 q 174 400 153 400 q 174 473 174 436 q 174 546 174 510 q 132 546 153 546 q 90 546 111 546 q 90 619 90 582 q 90 692 90 656 q 132 692 111 692 q 174 692 153 692 q 174 818 174 754 q 174 944 174 882 q 297 944 235 944 q 418 944 358 944 q 471 825 444 885 q 524 706 497 765 q 579 706 551 706 q 633 706 607 706 q 633 825 633 765 q 633 944 633 885 q 753 944 693 944 q 872 944 813 944 q 872 818 872 882 q 872 692 872 754 q 914 692 893 692 q 956 692 935 692 q 956 619 956 656 q 956 546 956 582 q 914 546 935 546 q 872 546 893 546 q 872 473 872 510 q 872 400 872 436 q 914 400 893 400 q 956 400 935 400 q 956 327 956 364 q 956 254 956 290 q 914 254 935 254 q 872 254 893 254 q 872 127 872 192 q 872 0 872 63 q 751 0 813 0 q 628 0 689 0 q 574 120 601 60 q 521 240 547 181 q 467 240 494 240 q 413 240 440 240 q 413 120 413 181 q 413 0 413 60 q 293 0 353 0 q 174 0 233 0 m 589 560 q 611 509 600 535 q 633 458 622 483 q 633 509 633 483 q 633 560 633 535 q 611 560 622 560 q 589 560 600 560 m 413 386 q 435 386 424 386 q 457 386 446 386 q 435 436 446 411 q 413 486 424 461 q 413 436 413 461 q 413 386 413 411 z "},"₧":{"ha":893,"x_min":42,"x_max":858,"o":"m 118 0 q 118 252 118 125 q 118 504 118 379 q 81 504 100 504 q 42 504 61 504 q 42 577 42 540 q 42 650 42 614 q 81 650 61 650 q 118 650 100 650 q 118 798 118 724 q 118 944 118 872 q 256 944 186 944 q 393 944 325 944 q 580 908 499 944 q 714 806 661 872 q 782 650 767 740 q 821 650 801 650 q 858 650 840 650 q 858 577 858 614 q 858 504 858 540 q 822 504 840 504 q 783 504 803 504 q 717 347 768 414 q 587 244 665 281 q 413 208 508 208 q 387 208 400 208 q 361 208 374 208 q 361 105 361 157 q 361 0 361 53 q 240 0 301 0 q 118 0 179 0 m 393 726 q 377 726 385 726 q 361 726 369 726 q 361 689 361 708 q 361 650 361 669 q 444 650 403 650 q 528 650 486 650 q 476 706 510 685 q 393 726 442 726 m 407 419 q 407 419 407 419 q 407 419 407 419 q 484 442 451 419 q 533 504 517 465 q 447 504 490 504 q 361 504 404 504 q 361 462 361 483 q 361 419 361 440 q 384 419 372 419 q 407 419 396 419 z "},"₩":{"ha":988,"x_min":21,"x_max":967,"o":"m 21 563 q 67 563 44 563 q 113 563 90 563 q 88 753 100 657 q 63 944 75 850 q 176 944 119 944 q 289 944 233 944 q 312 747 300 847 q 335 547 324 646 q 369 747 353 646 q 404 944 386 847 q 501 944 453 944 q 596 944 549 944 q 634 745 615 846 q 671 546 653 644 q 693 745 682 644 q 715 944 704 846 q 821 944 768 944 q 925 944 874 944 q 900 753 913 850 q 875 563 888 657 q 922 563 899 563 q 967 563 944 563 q 967 490 967 526 q 967 417 967 453 q 913 417 940 417 q 857 417 885 417 q 830 208 843 314 q 803 0 817 103 q 699 0 751 0 q 596 0 647 0 q 546 247 571 122 q 496 493 521 371 q 450 247 474 371 q 403 0 426 122 q 294 0 349 0 q 185 0 239 0 q 158 208 171 103 q 131 417 144 314 q 76 417 104 417 q 21 417 49 417 q 21 490 21 453 q 21 563 21 526 z "},"₫":{"ha":775,"x_min":69,"x_max":733,"o":"m 461 194 q 461 210 461 203 q 461 226 461 218 q 401 199 435 208 q 332 189 368 189 q 208 219 265 189 q 117 307 151 250 q 83 443 83 364 q 117 581 83 525 q 208 667 151 638 q 331 696 264 696 q 401 686 368 696 q 461 660 435 676 q 461 707 461 683 q 461 753 461 731 q 396 753 429 753 q 331 753 363 753 q 331 814 331 783 q 331 875 331 844 q 396 875 363 875 q 461 875 429 875 q 461 910 461 892 q 461 944 461 928 q 563 944 511 944 q 664 944 614 944 q 664 910 664 928 q 664 875 664 892 q 699 875 681 875 q 733 875 717 875 q 733 814 733 844 q 733 753 733 783 q 699 753 717 753 q 664 753 681 753 q 664 474 664 614 q 664 194 664 333 q 563 194 614 194 q 461 194 511 194 m 376 351 q 376 351 376 351 q 376 351 376 351 q 442 377 417 351 q 467 443 467 403 q 442 508 467 483 q 376 533 417 533 q 310 509 335 533 q 286 443 286 485 q 310 376 286 401 q 376 351 333 351 m 706 0 q 388 0 549 0 q 69 0 226 0 q 69 65 69 32 q 69 129 69 97 q 388 129 226 129 q 706 129 549 129 q 706 65 706 97 q 706 0 706 32 z "},"₭":{"ha":861,"x_min":42,"x_max":868,"o":"m 118 0 q 118 201 118 100 q 118 403 118 303 q 81 403 100 403 q 42 403 61 403 q 42 490 42 446 q 42 576 42 533 q 81 576 61 576 q 118 576 100 576 q 118 760 118 667 q 118 944 118 854 q 240 944 179 944 q 361 944 301 944 q 361 774 361 860 q 361 601 361 688 q 469 774 414 688 q 576 944 524 860 q 714 944 644 944 q 851 944 783 944 q 725 760 789 854 q 599 576 661 667 q 692 576 646 576 q 786 576 739 576 q 786 490 786 533 q 786 403 786 446 q 697 403 742 403 q 607 403 651 403 q 738 201 672 303 q 868 0 804 100 q 723 0 796 0 q 578 0 650 0 q 469 185 525 92 q 361 371 414 279 q 361 185 361 279 q 361 0 361 92 q 240 0 301 0 q 118 0 179 0 z "},"₱":{"ha":893,"x_min":42,"x_max":858,"o":"m 118 0 q 118 252 118 125 q 118 504 118 379 q 81 504 100 504 q 42 504 61 504 q 42 577 42 540 q 42 650 42 614 q 81 650 61 650 q 118 650 100 650 q 118 798 118 724 q 118 944 118 872 q 256 944 186 944 q 393 944 325 944 q 580 908 499 944 q 714 806 661 872 q 782 650 767 740 q 821 650 801 650 q 858 650 840 650 q 858 577 858 614 q 858 504 858 540 q 822 504 840 504 q 783 504 803 504 q 717 347 768 414 q 587 244 665 281 q 413 208 508 208 q 387 208 400 208 q 361 208 374 208 q 361 105 361 157 q 361 0 361 53 q 240 0 301 0 q 118 0 179 0 m 393 726 q 377 726 385 726 q 361 726 369 726 q 361 689 361 708 q 361 650 361 669 q 444 650 403 650 q 528 650 486 650 q 476 706 510 685 q 393 726 442 726 m 407 419 q 407 419 407 419 q 407 419 407 419 q 484 442 451 419 q 533 504 517 465 q 447 504 490 504 q 361 504 404 504 q 361 462 361 483 q 361 419 361 440 q 384 419 372 419 q 407 419 396 419 z "},"₲":{"ha":775,"x_min":43,"x_max":689,"o":"m 249 -139 q 256 -33 253 -86 q 264 71 260 19 q 144 160 194 103 q 69 296 94 218 q 43 465 43 374 q 75 654 43 569 q 168 799 107 739 q 315 886 229 858 q 322 978 318 932 q 328 1069 325 1024 q 431 1069 379 1069 q 535 1069 483 1069 q 529 985 532 1028 q 524 901 526 943 q 593 890 557 899 q 667 871 629 882 q 667 758 667 815 q 667 646 667 701 q 467 685 556 690 q 329 626 379 679 q 279 474 279 574 q 299 356 279 407 q 356 278 319 306 q 438 250 392 250 q 451 251 444 250 q 465 253 458 251 q 465 311 465 282 q 465 369 465 340 q 424 369 444 369 q 382 369 403 369 q 382 469 382 419 q 382 569 382 519 q 535 569 458 569 q 689 569 613 569 q 689 331 689 451 q 689 92 689 211 q 574 54 629 68 q 468 38 519 40 q 462 -50 465 -6 q 456 -139 458 -94 q 352 -139 404 -139 q 249 -139 300 -139 z "},"₵":{"ha":703,"x_min":43,"x_max":633,"o":"m 275 -139 q 283 -37 279 -87 q 290 65 286 14 q 158 154 214 96 q 73 293 103 213 q 43 472 43 374 q 80 669 43 582 q 184 814 117 756 q 343 896 251 872 q 349 983 346 939 q 354 1069 351 1026 q 458 1069 406 1069 q 561 1069 510 1069 q 556 985 558 1028 q 550 901 553 943 q 590 894 569 899 q 633 882 611 889 q 633 769 633 826 q 633 657 633 713 q 506 692 568 688 q 392 674 443 696 q 312 601 342 651 q 282 472 282 551 q 312 343 282 393 q 392 271 342 293 q 506 253 443 249 q 633 288 568 257 q 633 175 633 232 q 633 63 633 118 q 563 46 597 53 q 494 36 528 39 q 488 -51 492 -7 q 482 -139 485 -94 q 378 -139 431 -139 q 275 -139 326 -139 z "},"₹":{"ha":772,"x_min":69,"x_max":724,"o":"m 69 233 q 69 328 69 281 q 69 422 69 375 q 164 422 117 422 q 258 422 211 422 q 321 444 294 422 q 363 499 347 465 q 217 499 290 499 q 69 499 143 499 q 69 581 69 539 q 69 663 69 622 q 217 663 143 663 q 363 663 290 663 q 316 717 346 696 q 244 739 286 739 q 158 739 201 739 q 69 739 114 739 q 69 842 69 790 q 69 944 69 893 q 390 944 228 944 q 711 944 553 944 q 711 842 711 893 q 711 739 711 790 q 651 739 682 739 q 592 739 621 739 q 606 702 600 721 q 617 663 613 683 q 665 663 640 663 q 711 663 689 663 q 711 581 711 622 q 711 499 711 539 q 663 499 688 499 q 614 499 638 499 q 560 377 599 431 q 464 289 521 324 q 594 144 529 217 q 724 0 660 72 q 581 0 653 0 q 438 0 508 0 q 335 117 386 57 q 232 233 283 176 q 151 233 192 233 q 69 233 110 233 z "},"₺":{"ha":803,"x_min":49,"x_max":782,"o":"m 125 0 q 125 192 125 94 q 125 383 125 289 q 88 374 107 379 q 49 365 68 369 q 49 438 49 401 q 49 511 49 475 q 88 520 68 515 q 125 529 107 525 q 125 560 125 544 q 125 592 125 576 q 88 583 107 588 q 49 574 68 578 q 49 647 49 610 q 49 719 49 683 q 88 728 68 724 q 125 738 107 733 q 125 841 125 789 q 125 944 125 893 q 247 944 186 944 q 368 944 308 944 q 368 869 368 907 q 368 794 368 832 q 504 826 436 810 q 640 858 572 843 q 640 785 640 822 q 640 713 640 749 q 504 681 572 697 q 368 649 436 664 q 368 617 368 633 q 368 586 368 601 q 504 618 436 601 q 640 650 572 635 q 640 577 640 614 q 640 504 640 540 q 504 472 572 489 q 368 440 436 456 q 368 333 368 388 q 368 225 368 278 q 399 225 383 225 q 428 225 414 225 q 518 263 483 225 q 553 381 553 300 q 668 381 610 381 q 782 381 726 381 q 757 214 782 285 q 685 95 732 143 q 575 24 639 47 q 433 0 511 0 q 279 0 357 0 q 125 0 201 0 z "},"₼":{"ha":935,"x_min":76,"x_max":858,"o":"m 540 128 q 467 128 504 128 q 394 128 431 128 q 394 399 394 263 q 394 669 394 535 q 340 612 360 650 q 319 522 319 574 q 319 261 319 393 q 319 0 319 129 q 199 0 260 0 q 76 0 138 0 q 76 268 76 132 q 76 536 76 404 q 117 719 76 640 q 229 847 157 797 q 394 908 301 896 q 394 975 394 942 q 394 1042 394 1008 q 467 1042 431 1042 q 540 1042 504 1042 q 540 975 540 1008 q 540 908 540 942 q 705 844 633 893 q 817 715 776 794 q 858 533 858 636 q 858 267 858 401 q 858 0 858 132 q 738 0 799 0 q 615 0 676 0 q 615 261 615 129 q 615 522 615 393 q 595 613 615 575 q 540 671 575 651 q 540 399 540 536 q 540 128 540 263 z "},"₽":{"ha":817,"x_min":56,"x_max":768,"o":"m 56 142 q 56 226 56 183 q 56 310 56 268 q 104 310 79 310 q 153 310 129 310 q 153 346 153 328 q 153 382 153 364 q 104 382 129 382 q 56 382 79 382 q 56 477 56 429 q 56 572 56 525 q 104 572 79 572 q 153 572 129 572 q 153 758 153 664 q 153 944 153 853 q 297 944 225 944 q 442 944 369 944 q 613 910 540 944 q 727 812 686 875 q 768 665 768 749 q 728 517 768 581 q 618 417 688 453 q 461 382 549 382 q 428 382 444 382 q 396 382 413 382 q 396 346 396 364 q 396 310 396 328 q 492 310 444 310 q 588 310 540 310 q 588 226 588 268 q 588 142 588 183 q 492 142 540 142 q 396 142 444 142 q 396 72 396 107 q 396 0 396 36 q 275 0 336 0 q 153 0 214 0 q 153 72 153 36 q 153 142 153 107 q 104 142 129 142 q 56 142 79 142 m 442 726 q 419 726 431 726 q 396 726 407 726 q 396 649 396 688 q 396 572 396 611 q 426 572 411 572 q 456 572 442 572 q 515 594 492 572 q 539 649 539 617 q 513 703 539 681 q 442 726 488 726 z "},"№":{"ha":1543,"x_min":90,"x_max":1494,"o":"m 1196 364 q 1196 364 1196 364 q 1196 364 1196 364 q 1042 403 1110 364 q 936 510 975 442 q 897 664 897 578 q 919 783 897 729 q 982 878 942 838 q 1077 942 1022 919 q 1196 964 1132 964 q 1315 942 1260 964 q 1410 878 1369 919 q 1472 783 1450 838 q 1494 664 1494 729 q 1456 510 1494 578 q 1349 403 1417 442 q 1196 364 1282 364 m 90 0 q 90 472 90 233 q 90 944 90 711 q 213 944 151 944 q 335 944 275 944 q 457 702 396 825 q 578 460 518 579 q 578 702 578 579 q 578 944 578 825 q 697 944 638 944 q 817 944 757 944 q 817 472 817 711 q 817 0 817 233 q 695 0 757 0 q 572 0 633 0 q 451 242 513 119 q 329 485 390 365 q 329 242 329 365 q 329 0 329 119 q 210 0 269 0 q 90 0 150 0 m 1196 550 q 1196 550 1196 550 q 1196 550 1196 550 q 1267 582 1240 550 q 1294 664 1294 614 q 1267 747 1294 715 q 1196 778 1240 778 q 1124 747 1151 778 q 1097 664 1097 715 q 1124 582 1097 614 q 1196 550 1151 550 m 925 129 q 925 219 925 174 q 925 308 925 264 q 1196 308 1060 308 q 1467 308 1332 308 q 1467 219 1467 264 q 1467 129 1467 174 q 1196 129 1332 129 q 925 129 1060 129 z "},"¤":{"ha":897,"x_min":21,"x_max":876,"o":"m 174 49 q 97 125 136 86 q 21 201 58 164 q 84 265 53 233 q 146 326 115 296 q 122 398 131 360 q 114 478 114 436 q 122 556 114 518 q 144 626 131 593 q 83 690 114 658 q 21 751 51 721 q 97 828 58 789 q 174 904 136 867 q 237 842 206 874 q 299 781 268 811 q 369 803 332 796 q 447 811 407 811 q 599 779 531 811 q 662 842 631 811 q 724 904 693 874 q 800 828 761 867 q 876 751 839 789 q 815 690 846 721 q 753 626 783 658 q 776 556 768 593 q 783 478 783 518 q 775 398 783 436 q 751 326 767 360 q 815 265 783 296 q 876 201 846 233 q 800 125 839 164 q 724 49 761 86 q 662 112 693 81 q 599 174 631 143 q 527 150 565 158 q 447 142 489 142 q 369 150 407 142 q 299 172 332 158 q 237 110 268 142 q 174 49 206 79 m 447 343 q 447 343 447 343 q 447 343 447 343 q 541 380 506 343 q 576 478 576 417 q 541 576 576 539 q 447 613 506 613 q 356 576 389 613 q 322 478 322 539 q 356 380 322 417 q 447 343 389 343 z "},"+":{"ha":750,"x_min":56,"x_max":694,"o":"m 56 321 q 56 428 56 374 q 56 536 56 483 q 161 536 108 536 q 265 536 214 536 q 265 646 265 590 q 265 756 265 701 q 376 756 319 756 q 486 756 432 756 q 486 646 486 701 q 486 536 486 590 q 591 536 539 536 q 694 536 643 536 q 694 428 694 483 q 694 321 694 374 q 591 321 643 321 q 486 321 539 321 q 486 212 486 267 q 486 103 486 157 q 376 103 432 103 q 265 103 319 103 q 265 212 265 157 q 265 321 265 267 q 161 321 214 321 q 56 321 108 321 z "},"−":{"ha":661,"x_min":56,"x_max":606,"o":"m 56 321 q 56 428 56 374 q 56 536 56 483 q 331 536 192 536 q 606 536 469 536 q 606 428 606 483 q 606 321 606 374 q 331 321 469 321 q 56 321 192 321 z "},"×":{"ha":743,"x_min":56,"x_max":688,"o":"m 208 113 q 132 189 171 150 q 56 265 93 228 q 138 347 96 306 q 219 429 179 389 q 138 510 179 469 q 56 592 96 551 q 132 668 93 629 q 208 744 171 707 q 290 663 249 704 q 372 582 332 622 q 453 663 413 622 q 535 744 494 704 q 611 668 572 707 q 688 592 650 629 q 606 510 647 551 q 525 429 565 469 q 606 347 565 389 q 688 265 647 306 q 611 189 650 228 q 535 113 572 150 q 453 194 494 153 q 372 276 413 236 q 290 194 332 236 q 208 113 249 153 z "},"∙":{"ha":404,"x_min":56,"x_max":349,"o":"m 203 285 q 203 285 203 285 q 203 285 203 285 q 128 304 163 285 q 75 357 94 324 q 56 429 56 390 q 75 501 56 468 q 128 553 94 533 q 203 572 163 572 q 276 553 243 572 q 328 501 308 533 q 349 429 349 468 q 328 357 349 390 q 276 304 308 324 q 203 285 243 285 z "},"÷":{"ha":750,"x_min":56,"x_max":694,"o":"m 376 563 q 376 563 376 563 q 376 563 376 563 q 279 602 319 563 q 239 697 239 642 q 258 764 239 733 q 308 813 276 794 q 376 831 339 831 q 444 813 414 831 q 494 764 475 794 q 513 697 513 733 q 472 602 513 642 q 376 563 432 563 m 56 321 q 56 428 56 374 q 56 536 56 483 q 375 536 214 536 q 694 536 536 536 q 694 428 694 483 q 694 321 694 374 q 375 321 536 321 q 56 321 214 321 m 376 294 q 376 294 376 294 q 376 294 376 294 q 472 255 432 294 q 513 160 513 215 q 494 93 513 124 q 444 44 475 63 q 376 26 414 26 q 308 44 339 26 q 258 93 276 63 q 239 160 239 124 q 279 255 239 215 q 376 294 319 294 z "},"±":{"ha":750,"x_min":56,"x_max":694,"o":"m 56 418 q 56 526 56 471 q 56 633 56 581 q 161 633 108 633 q 265 633 214 633 q 265 730 265 682 q 265 825 265 778 q 376 825 319 825 q 486 825 432 825 q 486 730 486 778 q 486 633 486 682 q 591 633 539 633 q 694 633 643 633 q 694 526 694 581 q 694 418 694 471 q 591 418 643 418 q 486 418 539 418 q 486 337 486 378 q 486 256 486 296 q 376 256 432 256 q 265 256 319 256 q 265 337 265 296 q 265 418 265 378 q 161 418 214 418 q 56 418 108 418 m 56 0 q 56 108 56 53 q 56 215 56 163 q 375 215 214 215 q 694 215 536 215 q 694 108 694 163 q 694 0 694 53 q 375 0 536 0 q 56 0 214 0 z "},"=":{"ha":681,"x_min":56,"x_max":625,"o":"m 56 488 q 56 595 56 540 q 56 703 56 650 q 340 703 196 703 q 625 703 485 703 q 625 595 625 650 q 625 488 625 540 q 340 488 485 488 q 56 488 196 488 m 56 154 q 56 262 56 207 q 56 369 56 317 q 340 369 196 369 q 625 369 485 369 q 625 262 625 317 q 625 154 625 207 q 340 154 485 154 q 56 154 196 154 z "},"≈":{"ha":681,"x_min":50,"x_max":631,"o":"m 206 460 q 131 460 168 460 q 56 460 93 460 q 61 585 50 532 q 96 672 72 638 q 152 722 119 706 q 222 738 185 738 q 292 726 263 738 q 345 698 322 714 q 388 670 368 682 q 429 658 408 658 q 463 674 451 658 q 475 732 475 690 q 550 732 513 732 q 625 732 588 732 q 619 607 631 660 q 585 520 608 554 q 528 470 561 486 q 458 454 496 454 q 388 466 418 454 q 335 494 358 478 q 292 522 313 510 q 251 533 272 533 q 217 517 229 533 q 206 460 206 501 m 206 125 q 131 125 168 125 q 56 125 93 125 q 61 250 50 197 q 96 337 72 303 q 152 387 119 371 q 222 403 185 403 q 292 391 263 403 q 345 363 322 379 q 388 335 368 347 q 429 324 408 324 q 463 340 451 324 q 475 397 475 356 q 550 397 513 397 q 625 397 588 397 q 619 272 631 325 q 585 185 608 219 q 528 135 561 151 q 458 119 496 119 q 388 131 418 119 q 335 159 358 143 q 292 187 313 175 q 251 199 272 199 q 217 183 229 199 q 206 125 206 167 z "},"≠":{"ha":681,"x_min":56,"x_max":625,"o":"m 56 0 q 90 77 72 39 q 124 154 107 115 q 90 154 107 154 q 56 154 72 154 q 56 262 56 207 q 56 369 56 317 q 137 369 96 369 q 218 369 178 369 q 244 428 232 399 q 271 488 257 458 q 163 488 218 488 q 56 488 108 488 q 56 595 56 540 q 56 703 56 650 q 211 703 133 703 q 365 703 289 703 q 399 779 382 740 q 433 856 417 818 q 530 856 482 856 q 625 856 578 856 q 591 779 608 818 q 557 703 574 740 q 591 703 574 703 q 625 703 608 703 q 625 595 625 650 q 625 488 625 540 q 544 488 585 488 q 463 488 503 488 q 436 428 449 458 q 410 369 424 399 q 517 369 463 369 q 625 369 572 369 q 625 262 625 317 q 625 154 625 207 q 471 154 549 154 q 315 154 393 154 q 281 77 299 115 q 247 0 264 39 q 152 0 200 0 q 56 0 104 0 z "},"<":{"ha":621,"x_min":56,"x_max":551,"o":"m 56 308 q 56 428 56 368 q 56 547 56 488 q 304 665 179 606 q 551 782 429 724 q 551 662 551 722 q 551 542 551 601 q 426 487 489 515 q 300 431 363 458 q 426 374 363 403 q 551 318 489 346 q 551 197 551 258 q 551 74 551 135 q 304 191 429 132 q 56 308 179 250 z "},">":{"ha":621,"x_min":69,"x_max":565,"o":"m 565 308 q 318 191 443 250 q 69 74 193 132 q 69 197 69 135 q 69 318 69 258 q 195 374 132 346 q 321 431 258 403 q 195 487 258 458 q 69 542 132 515 q 69 662 69 601 q 69 782 69 722 q 318 665 193 724 q 565 547 443 606 q 565 428 565 488 q 565 308 565 368 z "},"≤":{"ha":621,"x_min":56,"x_max":551,"o":"m 56 468 q 56 570 56 519 q 56 672 56 621 q 304 762 179 717 q 551 851 429 807 q 551 749 551 800 q 551 646 551 697 q 441 609 497 628 q 331 572 385 590 q 441 535 385 554 q 551 499 497 517 q 551 394 551 447 q 551 289 551 342 q 304 378 429 333 q 56 468 179 424 m 56 69 q 56 167 56 118 q 56 264 56 217 q 304 264 179 264 q 551 264 429 264 q 551 167 551 217 q 551 69 551 118 q 304 69 429 69 q 56 69 179 69 z "},"≥":{"ha":621,"x_min":69,"x_max":565,"o":"m 565 468 q 318 378 443 424 q 69 289 193 333 q 69 394 69 342 q 69 499 69 447 q 180 535 124 517 q 290 572 236 554 q 180 609 236 590 q 69 646 124 628 q 69 749 69 697 q 69 851 69 800 q 318 762 193 807 q 565 672 443 717 q 565 570 565 621 q 565 468 565 519 m 565 69 q 318 69 443 69 q 69 69 193 69 q 69 167 69 118 q 69 264 69 217 q 318 264 193 264 q 565 264 443 264 q 565 167 565 217 q 565 69 565 118 z "},"⟨":{"ha":557,"x_min":0,"x_max":501,"o":"m 501 944 q 372 708 438 828 q 242 472 307 589 q 371 236 306 356 q 500 0 436 117 q 382 0 442 0 q 264 0 322 0 q 132 234 199 115 q 0 468 65 353 q 133 706 65 586 q 267 944 201 826 q 384 944 325 944 q 501 944 443 944 z "},"⟩":{"ha":557,"x_min":56,"x_max":557,"o":"m 557 468 q 425 234 492 353 q 293 0 358 115 q 175 0 235 0 q 57 0 115 0 q 186 236 121 117 q 315 472 251 356 q 186 708 251 589 q 56 944 121 828 q 173 944 114 944 q 290 944 232 944 q 424 706 356 826 q 557 468 492 586 z "},"∕":{"ha":719,"x_min":-35,"x_max":754,"o":"m -35 -97 q 240 458 101 178 q 515 1014 379 739 q 635 1014 575 1014 q 754 1014 694 1014 q 479 458 618 739 q 204 -97 340 178 q 85 -97 144 -97 q -35 -97 25 -97 z "},"¬":{"ha":708,"x_min":56,"x_max":653,"o":"m 56 432 q 56 540 56 485 q 56 647 56 594 q 355 647 204 647 q 653 647 506 647 q 653 431 653 540 q 653 214 653 321 q 542 214 599 214 q 432 214 486 214 q 432 323 432 268 q 432 432 432 378 q 244 432 339 432 q 56 432 149 432 z "},"µ":{"ha":824,"x_min":65,"x_max":747,"o":"m 747 718 q 747 359 747 540 q 747 0 747 178 q 633 0 692 0 q 518 0 575 0 q 518 13 518 7 q 518 25 518 19 q 452 -8 488 4 q 378 -19 417 -19 q 332 -14 353 -19 q 294 1 311 -8 q 294 -110 294 -54 q 294 -222 294 -167 q 181 -222 239 -222 q 65 -222 122 -222 q 65 248 65 10 q 65 718 65 486 q 181 718 122 718 q 294 718 239 718 q 294 515 294 618 q 294 313 294 413 q 320 223 294 257 q 401 189 346 189 q 488 221 457 189 q 518 313 518 253 q 518 515 518 413 q 518 718 518 618 q 633 718 575 718 q 747 718 692 718 z "},"*":{"ha":853,"x_min":68,"x_max":751,"o":"m 496 285 q 453 360 475 322 q 410 435 431 397 q 367 360 389 397 q 324 285 344 322 q 239 334 282 308 q 154 383 196 360 q 197 458 175 419 q 240 532 219 496 q 154 532 197 532 q 68 532 111 532 q 68 631 68 581 q 68 729 68 681 q 154 729 111 729 q 240 729 197 729 q 197 803 219 765 q 154 878 175 842 q 239 927 196 901 q 324 976 282 953 q 367 901 344 939 q 410 826 389 864 q 453 901 431 864 q 496 976 475 939 q 581 927 538 953 q 665 878 624 901 q 622 803 644 842 q 579 729 600 765 q 665 729 622 729 q 751 729 708 729 q 751 631 751 681 q 751 532 751 581 q 665 532 708 532 q 579 532 622 532 q 622 458 600 496 q 665 383 644 419 q 581 334 624 360 q 496 285 538 308 z "},"†":{"ha":576,"x_min":63,"x_max":514,"o":"m 188 299 q 188 478 188 388 q 188 658 188 569 q 126 658 157 658 q 63 658 94 658 q 63 748 63 703 q 63 836 63 793 q 126 836 94 836 q 188 836 157 836 q 188 926 188 881 q 188 1014 188 971 q 288 1014 238 1014 q 389 1014 339 1014 q 389 926 389 971 q 389 836 389 881 q 452 836 421 836 q 514 836 483 836 q 514 748 514 793 q 514 658 514 703 q 452 658 483 658 q 389 658 421 658 q 389 478 389 569 q 389 299 389 388 q 288 299 339 299 q 188 299 238 299 z "},"‡":{"ha":576,"x_min":63,"x_max":514,"o":"m 188 271 q 188 346 188 308 q 188 421 188 383 q 126 421 157 421 q 63 421 94 421 q 63 510 63 465 q 63 599 63 556 q 126 599 94 599 q 188 599 157 599 q 188 642 188 621 q 188 686 188 664 q 126 686 157 686 q 63 686 94 686 q 63 776 63 731 q 63 864 63 821 q 126 864 94 864 q 188 864 157 864 q 188 939 188 901 q 188 1014 188 976 q 288 1014 238 1014 q 389 1014 339 1014 q 389 939 389 976 q 389 864 389 901 q 452 864 421 864 q 514 864 483 864 q 514 776 514 821 q 514 686 514 731 q 452 686 483 686 q 389 686 421 686 q 389 642 389 664 q 389 599 389 621 q 452 599 421 599 q 514 599 483 599 q 514 510 514 556 q 514 421 514 465 q 452 421 483 421 q 389 421 421 421 q 389 346 389 383 q 389 271 389 308 q 288 271 339 271 q 188 271 238 271 z "},"^":{"ha":778,"x_min":35,"x_max":743,"o":"m 35 365 q 152 656 93 510 q 269 944 211 801 q 389 944 329 944 q 508 944 449 944 q 626 656 567 801 q 743 365 685 510 q 622 365 683 365 q 499 365 560 365 q 442 513 471 439 q 386 658 414 586 q 331 513 360 586 q 275 365 303 439 q 155 365 215 365 q 35 365 94 365 z "},"~":{"ha":888,"x_min":49,"x_max":839,"o":"m 638 600 q 738 600 688 600 q 839 600 789 600 q 828 470 839 529 q 797 366 817 411 q 747 290 776 321 q 678 244 717 260 q 594 228 640 228 q 508 244 544 228 q 446 283 472 260 q 399 331 419 307 q 359 372 378 356 q 319 388 340 388 q 283 373 299 388 q 258 325 267 358 q 250 238 250 292 q 149 238 200 238 q 49 238 99 238 q 60 367 49 308 q 91 472 71 426 q 141 547 111 517 q 209 594 171 578 q 293 610 247 610 q 379 594 343 610 q 442 554 415 578 q 489 506 468 531 q 528 466 510 482 q 568 450 547 450 q 605 465 589 450 q 629 513 621 481 q 638 600 638 546 z "},"%":{"ha":1421,"x_min":49,"x_max":1372,"o":"m 332 361 q 332 361 332 361 q 332 361 332 361 q 185 401 249 361 q 85 509 121 440 q 49 664 49 578 q 85 817 49 750 q 185 924 121 885 q 332 964 249 964 q 447 941 394 964 q 537 878 499 918 q 595 783 575 838 q 615 664 615 728 q 579 509 615 578 q 480 401 543 440 q 332 361 417 361 m 336 0 q 611 472 472 233 q 886 944 750 711 q 985 944 935 944 q 1083 944 1035 944 q 808 472 947 711 q 533 0 669 233 q 435 0 485 0 q 336 0 385 0 m 332 543 q 332 543 332 543 q 332 543 332 543 q 404 576 378 543 q 431 664 431 608 q 404 751 431 719 q 332 783 378 783 q 261 751 286 783 q 236 664 236 719 q 261 576 236 608 q 332 543 286 543 m 1089 -19 q 1089 -19 1089 -19 q 1089 -19 1089 -19 q 974 3 1026 -19 q 884 67 922 26 q 826 164 846 108 q 806 283 806 219 q 842 437 806 369 q 942 544 878 504 q 1089 583 1006 583 q 1237 544 1174 583 q 1336 437 1300 504 q 1372 283 1372 369 q 1352 164 1372 219 q 1294 67 1332 108 q 1203 3 1256 26 q 1089 -19 1151 -19 m 1089 163 q 1089 163 1089 163 q 1089 163 1089 163 q 1161 195 1135 163 q 1188 283 1188 228 q 1161 371 1188 339 q 1089 403 1135 403 q 1018 371 1043 403 q 993 283 993 339 q 1018 195 993 228 q 1089 163 1043 163 z "},"‰":{"ha":2018,"x_min":49,"x_max":1969,"o":"m 332 361 q 332 361 332 361 q 332 361 332 361 q 185 401 249 361 q 85 509 121 440 q 49 664 49 578 q 69 783 49 728 q 127 878 89 838 q 217 941 165 918 q 332 964 269 964 q 447 941 394 964 q 537 878 499 918 q 595 783 575 838 q 615 664 615 728 q 579 509 615 578 q 480 401 543 440 q 332 361 417 361 m 336 0 q 611 472 472 233 q 886 944 750 711 q 985 944 935 944 q 1083 944 1035 944 q 808 472 947 711 q 533 0 669 233 q 435 0 485 0 q 336 0 385 0 m 332 543 q 332 543 332 543 q 332 543 332 543 q 404 576 378 543 q 431 664 431 608 q 404 751 431 719 q 332 783 378 783 q 261 751 286 783 q 236 664 236 719 q 261 576 236 608 q 332 543 286 543 m 1089 -19 q 1089 -19 1089 -19 q 1089 -19 1089 -19 q 974 3 1026 -19 q 884 67 922 26 q 826 164 846 108 q 806 283 806 219 q 842 437 806 369 q 942 544 878 504 q 1089 583 1006 583 q 1237 544 1174 583 q 1336 437 1300 504 q 1372 283 1372 369 q 1352 164 1372 219 q 1294 67 1332 108 q 1203 3 1256 26 q 1089 -19 1151 -19 m 1686 -19 q 1686 -19 1686 -19 q 1686 -19 1686 -19 q 1572 3 1624 -19 q 1481 67 1519 26 q 1423 164 1443 108 q 1403 283 1403 219 q 1439 437 1403 369 q 1539 544 1475 504 q 1686 583 1603 583 q 1834 544 1771 583 q 1933 437 1897 504 q 1969 283 1969 369 q 1949 164 1969 219 q 1891 67 1929 108 q 1801 3 1853 26 q 1686 -19 1749 -19 m 1089 163 q 1089 163 1089 163 q 1089 163 1089 163 q 1161 195 1135 163 q 1188 283 1188 228 q 1161 371 1188 339 q 1089 403 1135 403 q 1018 371 1043 403 q 993 283 993 339 q 1018 195 993 228 q 1089 163 1043 163 m 1686 163 q 1686 163 1686 163 q 1686 163 1686 163 q 1758 195 1732 163 q 1785 283 1785 228 q 1758 371 1785 339 q 1686 403 1732 403 q 1615 371 1640 403 q 1590 283 1590 339 q 1615 195 1590 228 q 1686 163 1640 163 z "},"°":{"ha":739,"x_min":49,"x_max":690,"o":"m 368 322 q 368 322 368 322 q 368 322 368 322 q 240 346 299 322 q 139 413 182 369 q 72 515 96 457 q 49 644 49 574 q 72 772 49 714 q 139 874 96 831 q 240 940 182 917 q 368 964 299 964 q 497 940 439 964 q 599 874 556 917 q 667 772 643 831 q 690 644 690 714 q 667 515 690 574 q 599 413 643 457 q 497 346 556 369 q 368 322 439 322 m 368 510 q 368 510 368 510 q 368 510 368 510 q 462 547 426 510 q 497 644 497 583 q 462 742 497 706 q 368 779 426 779 q 276 742 310 779 q 243 644 243 706 q 276 547 243 583 q 368 510 310 510 z "},"′":{"ha":413,"x_min":39,"x_max":393,"o":"m 39 553 q 99 749 68 650 q 158 944 129 847 q 276 944 217 944 q 393 944 335 944 q 315 749 354 847 q 235 553 275 650 q 137 553 186 553 q 39 553 88 553 z "},"″":{"ha":719,"x_min":39,"x_max":700,"o":"m 39 553 q 99 749 68 650 q 158 944 129 847 q 276 944 217 944 q 393 944 335 944 q 315 749 354 847 q 235 553 275 650 q 137 553 186 553 q 39 553 88 553 m 346 553 q 406 749 375 650 q 465 944 436 847 q 583 944 524 944 q 700 944 642 944 q 622 749 661 847 q 542 553 582 650 q 444 553 493 553 q 346 553 394 553 z "},"‐":{"ha":472,"x_min":49,"x_max":424,"o":"m 49 321 q 49 428 49 374 q 49 536 49 483 q 236 536 142 536 q 424 536 331 536 q 424 428 424 483 q 424 321 424 374 q 236 321 331 321 q 49 321 142 321 z "},"⁒":{"ha":756,"x_min":7,"x_max":749,"o":"m 7 0 q 282 472 143 233 q 557 944 421 711 q 653 944 606 944 q 749 944 701 944 q 474 472 613 711 q 199 0 335 233 q 103 0 151 0 q 7 0 56 0 m 194 883 q 194 883 194 883 q 194 883 194 883 q 269 864 236 883 q 322 812 303 844 q 342 739 342 779 q 299 638 342 681 q 194 596 256 596 q 122 615 156 596 q 69 667 89 635 q 49 739 49 700 q 69 812 49 779 q 122 864 89 844 q 194 883 156 883 m 561 61 q 561 61 561 61 q 561 61 561 61 q 487 81 521 61 q 433 133 453 100 q 414 206 414 167 q 457 306 414 264 q 561 349 500 349 q 634 329 601 349 q 687 277 667 310 q 707 206 707 244 q 687 133 707 167 q 634 81 667 100 q 561 61 601 61 z "},"º":{"ha":683,"x_min":50,"x_max":633,"o":"m 342 378 q 342 378 342 378 q 342 378 342 378 q 192 416 258 378 q 88 521 126 454 q 50 671 50 588 q 88 822 50 756 q 192 926 126 888 q 342 964 258 964 q 491 926 425 964 q 595 822 557 888 q 633 671 633 756 q 595 521 633 588 q 491 416 557 454 q 342 378 425 378 m 342 557 q 342 557 342 557 q 342 557 342 557 q 413 589 386 557 q 440 671 440 621 q 413 753 440 722 q 342 785 386 785 q 270 753 297 785 q 243 671 243 722 q 270 589 243 621 q 342 557 297 557 m 78 143 q 78 233 78 188 q 78 322 78 278 q 342 322 208 322 q 606 322 475 322 q 606 233 606 278 q 606 143 606 188 q 342 143 475 143 q 78 143 208 143 z "},"ª":{"ha":688,"x_min":50,"x_max":624,"o":"m 431 396 q 431 410 431 403 q 431 422 431 417 q 377 392 407 403 q 314 381 347 381 q 183 417 243 381 q 86 519 122 454 q 50 671 50 585 q 86 824 50 758 q 182 925 122 889 q 313 961 242 961 q 376 950 346 961 q 431 919 407 939 q 431 933 431 926 q 431 944 431 939 q 528 944 479 944 q 624 944 576 944 q 624 671 624 810 q 624 396 624 532 q 528 396 576 396 q 431 396 479 396 m 339 556 q 339 556 339 556 q 339 556 339 556 q 410 588 383 556 q 436 671 436 619 q 410 754 436 724 q 339 785 383 785 q 269 754 296 785 q 243 671 243 724 q 269 588 243 619 q 339 556 296 556 m 78 143 q 78 233 78 188 q 78 322 78 278 q 351 322 214 322 q 624 322 489 322 q 624 233 624 278 q 624 143 624 188 q 351 143 489 143 q 78 143 214 143 z "},"©":{"ha":1115,"x_min":67,"x_max":1049,"o":"m 564 -21 q 564 -21 564 -21 q 564 -21 564 -21 q 365 16 456 -21 q 207 119 274 53 q 103 275 140 185 q 67 472 67 365 q 103 669 67 579 q 207 826 140 760 q 365 928 274 892 q 564 965 456 965 q 761 928 672 965 q 915 826 850 892 q 1014 669 979 760 q 1049 472 1049 579 q 1014 275 1049 365 q 915 119 979 185 q 761 16 850 53 q 564 -21 672 -21 m 564 119 q 564 119 564 119 q 564 119 564 119 q 701 146 639 119 q 807 219 763 172 q 875 331 851 267 q 899 472 899 396 q 875 613 899 549 q 807 725 851 678 q 701 799 763 772 q 564 825 639 825 q 424 799 488 825 q 315 725 361 772 q 242 613 268 678 q 217 472 217 549 q 242 331 217 396 q 315 219 268 267 q 424 146 361 172 q 564 119 488 119 m 342 472 q 342 472 342 472 q 342 472 342 472 q 370 594 342 542 q 450 678 399 646 q 569 717 501 710 q 717 700 638 724 q 717 623 717 661 q 717 546 717 585 q 623 568 668 569 q 549 542 578 567 q 519 472 519 518 q 549 402 519 426 q 623 377 578 378 q 717 399 668 376 q 717 322 717 360 q 717 244 717 283 q 569 228 638 221 q 450 267 501 235 q 370 351 399 299 q 342 472 342 404 z "},"®":{"ha":853,"x_min":69,"x_max":783,"o":"m 426 258 q 426 258 426 258 q 426 258 426 258 q 283 285 349 258 q 170 359 218 311 q 96 472 122 407 q 69 615 69 538 q 96 758 69 693 q 170 872 122 824 q 283 946 218 919 q 426 972 349 972 q 569 946 504 972 q 683 872 635 919 q 757 758 731 824 q 783 615 783 693 q 757 472 783 538 q 683 359 731 407 q 569 285 635 311 q 426 258 504 258 m 426 331 q 426 331 426 331 q 426 331 426 331 q 572 367 508 331 q 671 469 635 404 q 707 615 707 533 q 671 762 707 697 q 572 863 635 826 q 426 900 508 900 q 281 863 344 900 q 182 762 218 826 q 146 615 146 697 q 182 469 146 533 q 281 367 218 404 q 426 331 344 331 m 290 447 q 290 622 290 533 q 290 797 290 711 q 358 797 324 797 q 426 797 393 797 q 535 760 494 797 q 576 665 576 724 q 565 610 576 635 q 533 569 553 586 q 574 508 553 539 q 614 447 594 478 q 553 447 583 447 q 492 447 522 447 q 464 492 478 469 q 436 536 450 514 q 435 536 436 536 q 435 536 435 536 q 417 536 425 536 q 399 536 408 536 q 399 492 399 514 q 399 447 399 469 q 345 447 372 447 q 290 447 318 447 m 429 701 q 414 701 422 701 q 399 701 406 701 q 399 665 399 683 q 399 628 399 646 q 417 628 408 628 q 435 628 425 628 q 459 639 450 628 q 468 664 468 650 q 458 690 468 679 q 429 701 447 701 z "},"™":{"ha":1119,"x_min":35,"x_max":1057,"o":"m 156 472 q 156 640 156 556 q 156 807 156 724 q 95 807 125 807 q 35 807 65 807 q 35 876 35 842 q 35 944 35 910 q 230 944 132 944 q 425 944 328 944 q 425 876 425 910 q 425 807 425 842 q 365 807 396 807 q 306 807 335 807 q 306 640 306 724 q 306 472 306 556 q 231 472 268 472 q 156 472 193 472 m 476 472 q 476 708 476 589 q 476 944 476 828 q 585 944 529 944 q 693 944 640 944 q 730 819 711 883 q 767 694 749 756 q 803 819 785 756 q 840 944 822 883 q 947 944 893 944 q 1054 944 1001 944 q 1056 708 1056 828 q 1057 472 1056 589 q 984 472 1021 472 q 911 472 947 472 q 911 607 911 539 q 911 742 911 675 q 872 607 892 675 q 832 472 851 539 q 764 472 799 472 q 696 472 729 472 q 658 604 678 538 q 618 736 638 671 q 618 604 618 671 q 618 472 618 538 q 548 472 583 472 q 476 472 513 472 z "},"@":{"ha":1328,"x_min":65,"x_max":1292,"o":"m 936 -183 q 936 -183 936 -183 q 936 -183 936 -183 q 663 -225 793 -226 q 423 -182 532 -224 q 234 -64 314 -140 q 110 119 154 13 q 65 358 65 226 q 96 556 65 464 q 183 724 126 649 q 317 853 239 799 q 492 938 396 908 q 697 967 588 967 q 938 928 829 967 q 1126 818 1047 889 q 1249 651 1206 747 q 1292 438 1292 554 q 1265 289 1292 354 q 1194 178 1239 224 q 1094 110 1150 133 q 976 88 1038 88 q 891 105 928 88 q 829 154 854 122 q 753 98 799 119 q 651 76 707 76 q 522 113 582 76 q 425 216 461 150 q 389 368 389 282 q 425 521 389 456 q 521 622 461 586 q 650 658 581 658 q 721 646 688 658 q 779 611 754 633 q 779 628 779 619 q 779 644 779 636 q 869 644 824 644 q 960 644 915 644 q 960 474 960 560 q 960 301 960 388 q 972 265 960 278 q 1006 253 983 253 q 1056 273 1031 253 q 1099 333 1082 293 q 1117 428 1117 372 q 1086 578 1117 510 q 1000 696 1056 646 q 867 773 944 746 q 693 800 789 800 q 513 767 594 800 q 370 676 431 735 q 277 537 310 617 q 244 363 244 457 q 281 182 244 263 q 381 47 317 101 q 533 -35 446 -8 q 723 -55 621 -61 q 936 -6 825 -49 q 936 -94 936 -49 q 936 -183 936 -139 m 676 249 q 676 249 676 249 q 676 249 676 249 q 751 281 724 249 q 779 368 779 314 q 751 454 779 422 q 676 486 724 486 q 603 455 631 486 q 576 368 576 424 q 603 281 576 313 q 676 249 631 249 z "},"#":{"ha":972,"x_min":63,"x_max":910,"o":"m 63 203 q 63 303 63 253 q 63 404 63 354 q 138 404 100 404 q 214 404 176 404 q 219 472 217 438 q 225 540 222 507 q 144 540 185 540 q 63 540 103 540 q 63 641 63 590 q 63 742 63 692 q 152 742 107 742 q 240 742 197 742 q 249 843 244 792 q 257 944 253 894 q 358 944 307 944 q 458 944 408 944 q 450 843 454 894 q 442 742 446 792 q 507 742 474 742 q 572 742 540 742 q 581 843 576 792 q 589 944 585 894 q 690 944 639 944 q 790 944 740 944 q 782 843 786 894 q 774 742 778 792 q 842 742 807 742 q 910 742 876 742 q 910 641 910 692 q 910 540 910 590 q 834 540 872 540 q 758 540 796 540 q 753 472 756 507 q 747 404 750 438 q 828 404 788 404 q 910 404 869 404 q 910 303 910 354 q 910 203 910 253 q 822 203 867 203 q 732 203 776 203 q 724 101 728 153 q 715 0 719 50 q 615 0 665 0 q 514 0 564 0 q 522 101 518 50 q 531 203 526 153 q 465 203 499 203 q 400 203 432 203 q 392 101 396 153 q 383 0 388 50 q 283 0 333 0 q 182 0 232 0 q 190 101 186 50 q 199 203 194 153 q 131 203 165 203 q 63 203 96 203 m 415 404 q 481 404 447 404 q 546 404 514 404 q 551 472 549 438 q 557 540 554 507 q 492 540 525 540 q 426 540 458 540 q 421 472 424 507 q 415 404 418 438 z "},"&":{"ha":881,"x_min":56,"x_max":856,"o":"m 769 279 q 769 279 769 279 q 769 279 769 279 q 723 118 769 186 q 594 13 676 50 q 404 -24 513 -24 q 224 9 303 -24 q 101 103 146 42 q 56 250 56 165 q 87 378 56 319 q 182 478 118 436 q 106 569 131 517 q 82 683 82 621 q 131 836 82 775 q 264 928 181 897 q 449 960 347 958 q 654 936 550 963 q 654 824 654 881 q 654 710 654 767 q 537 733 596 726 q 429 735 478 740 q 351 711 381 729 q 321 660 321 693 q 379 601 321 617 q 540 585 438 585 q 540 635 540 610 q 540 686 540 661 q 656 686 597 686 q 769 686 714 686 q 769 635 769 661 q 769 585 769 610 q 813 585 790 585 q 856 585 835 585 q 856 482 856 533 q 856 379 856 431 q 813 379 835 379 q 769 379 790 379 q 769 329 769 354 q 769 279 769 304 m 299 285 q 299 285 299 285 q 299 285 299 285 q 328 217 299 244 q 413 190 358 190 q 506 219 471 190 q 540 299 540 247 q 540 339 540 318 q 540 379 540 360 q 363 363 426 379 q 299 285 299 346 z "},"§":{"ha":701,"x_min":40,"x_max":660,"o":"m 642 89 q 642 89 642 89 q 642 89 642 89 q 597 -40 642 17 q 476 -127 553 -96 q 298 -159 399 -158 q 83 -124 197 -160 q 83 -21 83 -72 q 83 82 83 31 q 250 42 179 47 q 359 50 321 36 q 397 88 397 64 q 372 119 397 107 q 305 144 346 132 q 219 173 264 157 q 133 213 174 189 q 66 276 92 238 q 40 371 40 314 q 71 474 40 425 q 165 550 101 522 q 101 610 128 572 q 75 708 75 647 q 117 840 75 785 q 232 927 158 896 q 401 960 306 958 q 606 931 497 963 q 606 828 606 879 q 606 725 606 776 q 391 765 463 774 q 319 722 319 757 q 344 689 319 703 q 407 663 368 675 q 490 635 446 651 q 572 593 533 618 q 635 530 611 568 q 660 433 660 492 q 629 326 660 378 q 535 246 599 275 q 608 189 575 225 q 642 89 642 153 m 447 397 q 447 397 447 397 q 447 397 447 397 q 417 451 447 429 q 338 472 386 472 q 275 455 297 472 q 253 410 253 438 q 284 357 253 379 q 363 335 315 335 q 425 353 403 335 q 447 397 447 371 z "},"¶":{"ha":1081,"x_min":49,"x_max":983,"o":"m 664 0 q 550 0 608 0 q 435 0 492 0 q 435 160 435 79 q 435 319 435 240 q 409 319 422 319 q 383 319 396 319 q 212 358 288 319 q 92 467 136 397 q 49 631 49 538 q 93 795 49 725 q 217 905 138 865 q 403 944 297 944 q 694 944 547 944 q 983 944 840 944 q 983 472 983 711 q 983 0 983 233 q 869 0 928 0 q 754 0 811 0 q 754 363 754 181 q 754 726 754 546 q 709 726 732 726 q 664 726 686 726 q 664 363 664 546 q 664 0 664 181 m 389 531 q 412 531 400 531 q 435 531 424 531 q 435 628 435 579 q 435 726 435 678 q 419 726 426 726 q 403 726 411 726 q 322 698 351 726 q 292 628 292 669 q 319 558 292 586 q 389 531 346 531 z "},"¹":{"ha":469,"x_min":56,"x_max":357,"o":"m 357 963 q 357 669 357 818 q 357 376 357 521 q 263 376 310 376 q 169 376 217 376 q 169 576 169 475 q 169 774 169 676 q 113 764 142 768 q 56 754 83 760 q 56 832 56 793 q 56 910 56 871 q 206 936 131 924 q 357 963 282 949 z "},"²":{"ha":599,"x_min":93,"x_max":521,"o":"m 93 376 q 93 453 93 414 q 93 529 93 492 q 163 583 128 556 q 232 636 197 610 q 301 698 281 674 q 322 743 322 722 q 263 792 322 786 q 101 763 204 799 q 101 848 101 806 q 101 933 101 890 q 324 960 231 972 q 469 901 418 949 q 521 785 521 854 q 493 681 521 732 q 400 578 465 631 q 369 553 385 565 q 339 529 354 542 q 428 529 383 529 q 517 529 474 529 q 517 453 517 492 q 517 376 517 414 q 305 376 411 376 q 93 376 199 376 z "},"³":{"ha":582,"x_min":97,"x_max":519,"o":"m 133 710 q 201 753 167 731 q 268 796 235 775 q 184 796 226 796 q 100 796 142 796 q 100 870 100 832 q 100 944 100 908 q 296 944 197 944 q 492 944 394 944 q 492 870 492 908 q 492 796 492 832 q 431 759 461 778 q 369 722 400 740 q 480 664 440 707 q 519 551 519 621 q 483 447 519 488 q 387 388 447 407 q 251 372 326 369 q 97 394 176 374 q 97 472 97 433 q 97 550 97 511 q 243 526 189 529 q 321 533 297 522 q 344 564 344 543 q 325 594 344 583 q 260 610 306 606 q 133 611 214 614 q 133 660 133 635 q 133 710 133 686 z "},"⁴":{"ha":603,"x_min":42,"x_max":554,"o":"m 303 376 q 303 432 303 404 q 303 486 303 460 q 173 486 239 486 q 42 486 107 486 q 42 560 42 522 q 42 635 42 599 q 133 790 86 713 q 224 944 179 868 q 351 944 286 944 q 478 944 415 944 q 478 790 478 868 q 478 635 478 713 q 517 635 497 635 q 554 635 536 635 q 554 560 554 599 q 554 486 554 522 q 517 486 536 486 q 478 486 497 486 q 478 432 478 460 q 478 376 478 404 q 391 376 435 376 q 303 376 347 376 m 224 635 q 263 635 243 635 q 303 635 283 635 q 303 710 303 672 q 303 785 303 747 q 263 710 283 747 q 224 635 243 672 z "},"½":{"ha":1306,"x_min":56,"x_max":1229,"o":"m 357 963 q 357 669 357 818 q 357 376 357 521 q 263 376 310 376 q 169 376 217 376 q 169 576 169 475 q 169 774 169 676 q 113 764 142 768 q 56 754 83 760 q 56 832 56 793 q 56 910 56 871 q 206 936 131 924 q 357 963 282 949 m 218 0 q 493 472 354 233 q 768 944 632 711 q 865 944 817 944 q 960 944 913 944 q 685 472 824 711 q 410 0 546 233 q 315 0 363 0 q 218 0 267 0 m 801 0 q 801 76 801 38 q 801 153 801 115 q 871 206 836 179 q 940 260 906 233 q 1010 322 989 297 q 1031 367 1031 346 q 972 416 1031 410 q 810 386 913 422 q 810 472 810 429 q 810 557 810 514 q 1033 584 939 596 q 1178 525 1126 572 q 1229 408 1229 478 q 1201 305 1229 356 q 1108 201 1174 254 q 1078 177 1093 189 q 1047 153 1063 165 q 1137 153 1092 153 q 1225 153 1182 153 q 1225 76 1225 115 q 1225 0 1225 38 q 1013 0 1119 0 q 801 0 907 0 z "},"¼":{"ha":1249,"x_min":56,"x_max":1193,"o":"m 357 963 q 357 669 357 818 q 357 376 357 521 q 263 376 310 376 q 169 376 217 376 q 169 576 169 475 q 169 774 169 676 q 113 764 142 768 q 56 754 83 760 q 56 832 56 793 q 56 910 56 871 q 206 936 131 924 q 357 963 282 949 m 218 0 q 493 472 354 233 q 768 944 632 711 q 865 944 817 944 q 960 944 913 944 q 685 472 824 711 q 410 0 546 233 q 315 0 363 0 q 218 0 267 0 m 942 0 q 942 56 942 28 q 942 110 942 83 q 812 110 878 110 q 681 110 746 110 q 681 184 681 146 q 681 258 681 222 q 772 414 725 336 q 863 568 818 492 q 990 568 925 568 q 1117 568 1054 568 q 1117 414 1117 492 q 1117 258 1117 336 q 1156 258 1136 258 q 1193 258 1175 258 q 1193 184 1193 222 q 1193 110 1193 146 q 1156 110 1175 110 q 1117 110 1136 110 q 1117 56 1117 83 q 1117 0 1117 28 q 1030 0 1074 0 q 942 0 986 0 m 863 258 q 902 258 882 258 q 942 258 922 258 q 942 333 942 296 q 942 408 942 371 q 902 333 922 371 q 863 258 882 296 z "},"¾":{"ha":1333,"x_min":97,"x_max":1278,"o":"m 303 0 q 578 472 439 233 q 853 944 717 711 q 949 944 901 944 q 1044 944 997 944 q 769 472 908 711 q 494 0 631 233 q 399 0 447 0 q 303 0 351 0 m 1026 0 q 1026 56 1026 28 q 1026 110 1026 83 q 897 110 963 110 q 765 110 831 110 q 765 184 765 146 q 765 258 765 222 q 856 414 810 336 q 947 568 903 492 q 1074 568 1010 568 q 1201 568 1139 568 q 1201 414 1201 492 q 1201 258 1201 336 q 1240 258 1221 258 q 1278 258 1260 258 q 1278 184 1278 222 q 1278 110 1278 146 q 1240 110 1260 110 q 1201 110 1221 110 q 1201 56 1201 83 q 1201 0 1201 28 q 1115 0 1158 0 q 1026 0 1071 0 m 947 258 q 987 258 967 258 q 1026 258 1007 258 q 1026 333 1026 296 q 1026 408 1026 371 q 987 333 1007 371 q 947 258 967 296 m 133 710 q 201 753 167 731 q 268 796 235 775 q 184 796 226 796 q 100 796 142 796 q 100 870 100 832 q 100 944 100 908 q 296 944 197 944 q 492 944 394 944 q 492 870 492 908 q 492 796 492 832 q 431 759 461 778 q 369 722 400 740 q 480 664 440 707 q 519 551 519 621 q 483 447 519 488 q 387 388 447 407 q 251 372 326 369 q 97 394 176 374 q 97 472 97 433 q 97 550 97 511 q 243 526 189 529 q 321 533 297 522 q 344 564 344 543 q 325 594 344 583 q 260 610 306 606 q 133 611 214 614 q 133 660 133 635 q 133 710 133 686 z "},"¨":{"ha":694,"x_min":40,"x_max":656,"o":"m 185 800 q 185 800 185 800 q 185 800 185 800 q 112 819 144 800 q 60 871 79 839 q 40 942 40 903 q 60 1012 40 981 q 112 1063 79 1043 q 185 1082 144 1082 q 256 1063 224 1082 q 308 1012 289 1043 q 328 942 328 981 q 308 871 328 903 q 256 819 289 839 q 185 800 224 800 m 513 800 q 513 800 513 800 q 513 800 513 800 q 440 819 472 800 q 388 871 407 839 q 368 942 368 903 q 388 1012 368 981 q 440 1063 407 1043 q 513 1082 472 1082 q 584 1063 551 1082 q 636 1012 617 1043 q 656 942 656 981 q 636 871 656 903 q 584 819 617 839 q 513 800 551 800 z "},"`":{"ha":694,"x_min":82,"x_max":463,"o":"m 463 806 q 357 806 411 806 q 250 806 303 806 q 166 922 208 863 q 82 1038 124 981 q 205 1038 143 1038 q 326 1038 267 1038 q 394 922 360 981 q 463 806 429 863 z "},"¯":{"ha":694,"x_min":117,"x_max":579,"o":"m 117 806 q 117 897 117 850 q 117 988 117 943 q 349 988 232 988 q 579 988 465 988 q 579 897 579 943 q 579 806 579 850 q 349 806 465 806 q 117 806 232 806 z "},"´":{"ha":694,"x_min":232,"x_max":613,"o":"m 232 806 q 301 922 267 863 q 369 1038 335 981 q 492 1038 431 1038 q 613 1038 553 1038 q 528 922 571 981 q 444 806 486 863 q 339 806 393 806 q 232 806 285 806 z "},"¸":{"ha":694,"x_min":175,"x_max":519,"o":"m 175 -307 q 175 -242 175 -275 q 175 -179 175 -210 q 317 -203 265 -207 q 369 -172 369 -199 q 342 -143 369 -151 q 247 -140 314 -135 q 249 -53 249 -97 q 251 33 250 -10 q 318 33 285 33 q 385 33 351 33 q 385 -4 385 15 q 386 -43 386 -24 q 483 -91 446 -58 q 519 -183 519 -124 q 476 -287 519 -249 q 356 -331 433 -325 q 175 -307 278 -336 z "},"ˆ":{"ha":694,"x_min":72,"x_max":625,"o":"m 72 806 q 149 915 111 860 q 226 1024 188 969 q 349 1024 288 1024 q 471 1024 411 1024 q 548 915 510 969 q 625 806 586 860 q 520 806 574 806 q 414 806 467 806 q 381 853 397 829 q 349 901 365 878 q 316 853 332 878 q 283 806 300 829 q 178 806 232 806 q 72 806 125 806 z "},"˚":{"ha":694,"x_min":167,"x_max":528,"o":"m 346 775 q 346 775 346 775 q 346 775 346 775 q 253 797 294 775 q 190 856 213 818 q 167 942 167 893 q 190 1026 167 989 q 253 1084 213 1063 q 346 1106 294 1106 q 441 1084 400 1106 q 505 1026 482 1063 q 528 942 528 989 q 505 856 528 893 q 441 797 482 818 q 346 775 400 775 m 346 878 q 346 878 346 878 q 346 878 346 878 q 397 895 378 878 q 415 942 415 913 q 397 987 415 969 q 346 1004 378 1004 q 298 987 315 1004 q 281 942 281 969 q 298 895 281 913 q 346 878 315 878 z "},"˜":{"ha":694,"x_min":107,"x_max":599,"o":"m 472 1031 q 536 1031 504 1031 q 599 1031 568 1031 q 588 927 599 971 q 558 854 578 883 q 511 811 539 825 q 447 797 483 797 q 374 814 403 797 q 324 847 346 831 q 276 863 303 863 q 245 847 256 863 q 233 803 235 831 q 171 803 203 803 q 107 803 139 803 q 117 906 107 863 q 147 979 128 950 q 194 1022 167 1008 q 257 1036 222 1036 q 331 1020 303 1036 q 382 988 360 1004 q 429 972 404 972 q 461 989 450 972 q 472 1031 472 1006 z "},"ˇ":{"ha":694,"x_min":71,"x_max":624,"o":"m 624 1038 q 547 922 585 981 q 469 806 508 863 q 348 806 410 806 q 225 806 286 806 q 148 922 186 863 q 71 1038 110 981 q 177 1038 124 1038 q 282 1038 231 1038 q 315 987 299 1013 q 347 936 331 961 q 380 987 364 961 q 413 1038 396 1013 q 519 1038 465 1038 q 624 1038 572 1038 z "},"˘":{"ha":694,"x_min":93,"x_max":601,"o":"m 347 793 q 347 793 347 793 q 347 793 347 793 q 241 811 288 793 q 161 861 194 829 q 110 938 128 893 q 93 1033 93 982 q 175 1033 133 1033 q 257 1033 217 1033 q 281 975 257 997 q 347 953 304 953 q 415 975 392 953 q 438 1033 438 997 q 519 1033 478 1033 q 601 1033 561 1033 q 584 938 601 982 q 534 861 567 893 q 454 811 501 829 q 347 793 407 793 z "},"˙":{"ha":694,"x_min":203,"x_max":490,"o":"m 347 800 q 347 800 347 800 q 347 800 347 800 q 274 819 307 800 q 222 871 242 839 q 203 942 203 903 q 222 1012 203 981 q 274 1063 242 1043 q 347 1082 307 1082 q 419 1063 386 1082 q 471 1012 451 1043 q 490 942 490 981 q 471 871 490 903 q 419 819 451 839 q 347 800 386 800 z "},"˛":{"ha":694,"x_min":192,"x_max":504,"o":"m 472 122 q 488 76 481 100 q 504 29 496 53 q 403 -7 436 8 q 369 -46 369 -22 q 407 -77 369 -74 q 504 -62 444 -81 q 504 -141 504 -101 q 504 -219 504 -181 q 333 -243 403 -254 q 228 -190 264 -232 q 192 -93 192 -147 q 215 -10 192 -49 q 300 63 239 29 q 472 122 361 96 z "},"˝":{"ha":694,"x_min":104,"x_max":725,"o":"m 353 806 q 427 922 389 863 q 501 1038 465 981 q 613 1038 557 1038 q 725 1038 669 1038 q 635 922 681 981 q 544 806 589 863 q 449 806 497 806 q 353 806 401 806 m 104 806 q 167 922 136 863 q 229 1038 199 981 q 341 1038 285 1038 q 453 1038 397 1038 q 375 922 414 981 q 297 806 336 863 q 201 806 250 806 q 104 806 153 806 z "},"̀":{"ha":0,"x_min":-265,"x_max":115,"o":"m 115 806 q 10 806 64 806 q -97 806 -44 806 q -181 922 -139 863 q -265 1038 -224 981 q -142 1038 -204 1038 q -21 1038 -81 1038 q 47 922 13 981 q 115 806 82 863 z "},"́":{"ha":0,"x_min":-115,"x_max":265,"o":"m -115 806 q -47 922 -81 863 q 22 1038 -12 981 q 144 1038 83 1038 q 265 1038 206 1038 q 181 922 224 981 q 97 806 139 863 q -8 806 46 806 q -115 806 -62 806 z "},"̂":{"ha":0,"x_min":-275,"x_max":278,"o":"m -275 806 q -198 915 -236 860 q -121 1024 -160 969 q 2 1024 -60 1024 q 124 1024 64 1024 q 201 915 163 969 q 278 806 239 860 q 173 806 226 806 q 67 806 119 806 q 34 853 50 829 q 1 901 18 878 q -31 853 -15 878 q -64 806 -47 829 q -169 806 -115 806 q -275 806 -222 806 z "},"̃":{"ha":0,"x_min":-240,"x_max":251,"o":"m 125 1031 q 189 1031 157 1031 q 251 1031 221 1031 q 241 927 251 971 q 211 854 231 883 q 164 811 192 825 q 100 797 136 797 q 27 814 56 797 q -23 847 -1 831 q -71 863 -44 863 q -102 847 -92 863 q -114 803 -112 831 q -176 803 -144 803 q -240 803 -208 803 q -230 906 -240 863 q -200 979 -219 950 q -153 1022 -181 1008 q -90 1036 -125 1036 q -16 1020 -44 1036 q 35 988 13 1004 q 82 972 57 972 q 114 989 103 972 q 125 1031 125 1006 z "},"̄":{"ha":0,"x_min":-231,"x_max":232,"o":"m -231 806 q -231 897 -231 850 q -231 988 -231 943 q 1 988 -115 988 q 232 988 118 988 q 232 897 232 943 q 232 806 232 850 q 1 806 118 806 q -231 806 -115 806 z "},"̆":{"ha":0,"x_min":-254,"x_max":254,"o":"m 0 793 q 0 793 0 793 q 0 793 0 793 q -106 811 -60 793 q -186 861 -153 829 q -237 938 -219 893 q -254 1033 -254 982 q -172 1033 -214 1033 q -90 1033 -131 1033 q -67 975 -90 997 q 0 953 -43 953 q 67 975 44 953 q 90 1033 90 997 q 172 1033 131 1033 q 254 1033 214 1033 q 237 938 254 982 q 187 861 219 893 q 107 811 154 829 q 0 793 60 793 z "},"̇":{"ha":0,"x_min":-144,"x_max":143,"o":"m 0 800 q 0 800 0 800 q 0 800 0 800 q -73 819 -40 800 q -125 871 -106 839 q -144 942 -144 903 q -125 1012 -144 981 q -73 1063 -106 1043 q 0 1082 -40 1082 q 72 1063 39 1082 q 124 1012 104 1043 q 143 942 143 981 q 124 871 143 903 q 72 819 104 839 q 0 800 39 800 z "},"̈":{"ha":0,"x_min":-307,"x_max":308,"o":"m -162 800 q -162 800 -162 800 q -162 800 -162 800 q -235 819 -203 800 q -287 871 -268 839 q -307 942 -307 903 q -287 1012 -307 981 q -235 1063 -268 1043 q -162 1082 -203 1082 q -91 1063 -124 1082 q -39 1012 -58 1043 q -19 942 -19 981 q -39 871 -19 903 q -91 819 -58 839 q -162 800 -124 800 m 165 800 q 165 800 165 800 q 165 800 165 800 q 92 819 125 800 q 40 871 60 839 q 21 942 21 903 q 40 1012 21 981 q 92 1063 60 1043 q 165 1082 125 1082 q 237 1063 204 1082 q 289 1012 269 1043 q 308 942 308 981 q 289 871 308 903 q 237 819 269 839 q 165 800 204 800 z "},"̉":{"ha":0,"x_min":-131,"x_max":160,"o":"m -93 888 q -93 888 -93 888 q -93 888 -93 888 q -18 906 -40 894 q 4 938 4 918 q -37 978 4 971 q -131 969 -78 985 q -131 1039 -131 1004 q -131 1108 -131 1074 q 21 1118 -44 1129 q 123 1067 86 1107 q 160 963 160 1028 q 126 858 160 897 q 34 801 92 819 q -93 775 -24 782 q -93 831 -93 803 q -93 888 -93 860 z "},"̊":{"ha":0,"x_min":-181,"x_max":181,"o":"m -1 775 q -1 775 -1 775 q -1 775 -1 775 q -94 797 -53 775 q -158 856 -135 818 q -181 942 -181 893 q -158 1026 -181 989 q -94 1084 -135 1063 q -1 1106 -53 1106 q 94 1084 53 1106 q 158 1026 135 1063 q 181 942 181 989 q 158 856 181 893 q 94 797 135 818 q -1 775 53 775 m -1 878 q -1 878 -1 878 q -1 878 -1 878 q 49 895 31 878 q 68 942 68 913 q 49 987 68 969 q -1 1004 31 1004 q -49 987 -32 1004 q -67 942 -67 969 q -49 895 -67 913 q -1 878 -32 878 z "},"̋":{"ha":0,"x_min":-243,"x_max":378,"o":"m 6 806 q 80 922 42 863 q 154 1038 118 981 q 266 1038 210 1038 q 378 1038 322 1038 q 288 922 333 981 q 197 806 242 863 q 102 806 150 806 q 6 806 54 806 m -243 806 q -180 922 -211 863 q -118 1038 -149 981 q -6 1038 -62 1038 q 106 1038 50 1038 q 28 922 67 981 q -50 806 -11 863 q -146 806 -97 806 q -243 806 -194 806 z "},"̌":{"ha":0,"x_min":-276,"x_max":276,"o":"m 276 1038 q 199 922 238 981 q 122 806 161 863 q 1 806 63 806 q -122 806 -61 806 q -199 922 -161 863 q -276 1038 -237 981 q -170 1038 -224 1038 q -65 1038 -117 1038 q -33 987 -49 1013 q 0 936 -17 961 q 33 987 17 961 q 65 1038 49 1013 q 172 1038 118 1038 q 276 1038 225 1038 z "},"̏":{"ha":0,"x_min":-378,"x_max":243,"o":"m -6 806 q -101 806 -53 806 q -197 806 -149 806 q -287 922 -242 863 q -378 1038 -333 981 q -266 1038 -322 1038 q -154 1038 -210 1038 q -80 922 -118 981 q -6 806 -42 863 m 243 806 q 147 806 196 806 q 50 806 99 806 q -28 922 11 863 q -106 1038 -67 981 q 7 1038 -50 1038 q 119 1038 64 1038 q 181 922 150 981 q 243 806 213 863 z "},"̑":{"ha":0,"x_min":-254,"x_max":254,"o":"m 0 1046 q 0 1046 0 1046 q 0 1046 0 1046 q 107 1028 60 1046 q 187 977 154 1010 q 237 901 219 944 q 254 806 254 857 q 172 806 214 806 q 90 806 131 806 q 67 864 90 842 q 0 886 44 886 q -67 864 -43 886 q -90 806 -90 842 q -172 806 -131 806 q -254 806 -214 806 q -237 901 -254 857 q -186 977 -219 944 q -106 1028 -153 1010 q 0 1046 -60 1046 z "},"̒":{"ha":0,"x_min":-131,"x_max":131,"o":"m 131 1033 q 106 920 118 978 q 82 806 94 863 q -24 806 31 806 q -131 806 -78 806 q -90 920 -111 863 q -50 1033 -69 978 q 40 1033 -6 1033 q 131 1033 86 1033 z "},"̛":{"ha":0,"x_min":0,"x_max":351,"o":"m 0 568 q 0 643 0 606 q 0 718 0 681 q 96 740 63 718 q 142 805 129 763 q 156 906 156 847 q 253 906 204 906 q 351 906 303 906 q 329 763 351 825 q 263 657 307 700 q 153 591 219 614 q 0 568 88 568 z "},"̣":{"ha":0,"x_min":-144,"x_max":143,"o":"m 0 -82 q 0 -82 0 -82 q 0 -82 0 -82 q 72 -101 39 -82 q 124 -153 104 -121 q 143 -224 143 -185 q 124 -293 143 -261 q 72 -344 104 -325 q 0 -364 39 -364 q -73 -344 -40 -364 q -125 -293 -106 -325 q -144 -224 -144 -261 q -125 -153 -144 -185 q -73 -101 -106 -121 q 0 -82 -40 -82 z "},"̤":{"ha":0,"x_min":-307,"x_max":308,"o":"m -162 -82 q -162 -82 -162 -82 q -162 -82 -162 -82 q -91 -101 -124 -82 q -39 -153 -58 -121 q -19 -224 -19 -185 q -39 -293 -19 -261 q -91 -344 -58 -325 q -162 -364 -124 -364 q -235 -344 -203 -364 q -287 -293 -268 -325 q -307 -224 -307 -261 q -287 -153 -307 -185 q -235 -101 -268 -121 q -162 -82 -203 -82 m 165 -82 q 165 -82 165 -82 q 165 -82 165 -82 q 237 -101 204 -82 q 289 -153 269 -121 q 308 -224 308 -185 q 289 -293 308 -261 q 237 -344 269 -325 q 165 -364 204 -364 q 92 -344 125 -364 q 40 -293 60 -325 q 21 -224 21 -261 q 40 -153 21 -185 q 92 -101 60 -121 q 165 -82 125 -82 z "},"̦":{"ha":0,"x_min":-131,"x_max":131,"o":"m -131 -311 q -106 -197 -118 -254 q -81 -85 -93 -140 q 26 -85 -28 -85 q 131 -85 79 -85 q 90 -197 111 -140 q 50 -311 69 -254 q -40 -311 6 -311 q -131 -311 -86 -311 z "},"̧":{"ha":0,"x_min":-172,"x_max":172,"o":"m -172 -307 q -172 -242 -172 -275 q -172 -179 -172 -210 q -30 -203 -82 -207 q 22 -172 22 -199 q -6 -143 22 -151 q -100 -140 -33 -135 q -98 -53 -99 -97 q -96 33 -97 -10 q -29 33 -62 33 q 38 33 4 33 q 38 -4 38 15 q 39 -43 39 -24 q 135 -91 99 -58 q 172 -183 172 -124 q 129 -287 172 -249 q 8 -331 86 -325 q -172 -307 -69 -336 z "},"̨":{"ha":0,"x_min":-156,"x_max":157,"o":"m 125 122 q 141 76 133 100 q 157 29 149 53 q 56 -7 89 8 q 22 -46 22 -22 q 60 -77 22 -74 q 157 -62 97 -81 q 157 -141 157 -101 q 157 -219 157 -181 q -14 -243 56 -254 q -119 -190 -83 -232 q -156 -93 -156 -147 q -132 -10 -156 -49 q -47 63 -108 29 q 125 122 14 96 z "},"̮":{"ha":0,"x_min":-254,"x_max":254,"o":"m 0 -335 q 0 -335 0 -335 q 0 -335 0 -335 q -106 -317 -60 -335 q -186 -267 -153 -299 q -237 -190 -219 -235 q -254 -94 -254 -146 q -172 -94 -214 -94 q -90 -94 -131 -94 q -67 -153 -90 -131 q 0 -175 -43 -175 q 67 -153 44 -175 q 90 -94 90 -131 q 172 -94 131 -94 q 254 -94 214 -94 q 237 -190 254 -146 q 187 -267 219 -235 q 107 -317 154 -299 q 0 -335 60 -335 z "},"̱":{"ha":0,"x_min":-231,"x_max":232,"o":"m -231 -269 q -231 -178 -231 -225 q -231 -87 -231 -132 q 1 -87 -115 -87 q 232 -87 118 -87 q 232 -178 232 -132 q 232 -269 232 -225 q 1 -269 118 -269 q -231 -269 -115 -269 z "},"ʹ":{"ha":413,"x_min":39,"x_max":393,"o":"m 39 553 q 99 749 68 650 q 158 944 129 847 q 276 944 217 944 q 393 944 335 944 q 315 749 354 847 q 235 553 275 650 q 137 553 186 553 q 39 553 88 553 z "},"ʺ":{"ha":719,"x_min":39,"x_max":700,"o":"m 39 553 q 99 749 68 650 q 158 944 129 847 q 276 944 217 944 q 393 944 335 944 q 315 749 354 847 q 235 553 275 650 q 137 553 186 553 q 39 553 88 553 m 346 553 q 406 749 375 650 q 465 944 436 847 q 583 944 524 944 q 700 944 642 944 q 622 749 661 847 q 542 553 582 650 q 444 553 493 553 q 346 553 394 553 z "},"ʼ":{"ha":413,"x_min":57,"x_max":360,"o":"m 360 944 q 326 749 343 847 q 292 553 308 650 q 174 553 233 553 q 57 553 115 553 q 108 749 82 650 q 160 944 135 847 q 260 944 210 944 q 360 944 310 944 z "},"ʻ":{"ha":413,"x_min":53,"x_max":356,"o":"m 53 553 q 87 749 69 650 q 121 944 104 847 q 238 944 179 944 q 356 944 297 944 q 304 749 331 847 q 253 553 278 650 q 153 553 203 553 q 53 553 103 553 z "},"ʾ":{"ha":417,"x_min":118,"x_max":297,"o":"m 118 878 q 166 895 149 878 q 183 942 183 913 q 166 987 183 969 q 118 1004 149 1004 q 118 1055 118 1029 q 118 1106 118 1081 q 211 1084 171 1106 q 274 1026 251 1063 q 297 942 297 989 q 274 856 297 893 q 211 797 251 818 q 118 775 171 775 q 118 826 118 800 q 118 878 118 853 z "},"ʿ":{"ha":417,"x_min":118,"x_max":297,"o":"m 297 878 q 297 826 297 853 q 297 775 297 800 q 205 797 246 775 q 141 856 164 818 q 118 942 118 893 q 141 1026 118 989 q 205 1084 164 1063 q 297 1106 246 1106 q 297 1055 297 1081 q 297 1004 297 1029 q 249 987 267 1004 q 232 942 232 969 q 249 895 232 913 q 297 878 267 878 q 297 878 297 878 q 297 878 297 878 z "},"ˈ":{"ha":417,"x_min":117,"x_max":301,"o":"m 117 553 q 117 749 117 650 q 117 944 117 847 q 209 944 163 944 q 301 944 256 944 q 301 749 301 847 q 301 553 301 650 q 209 553 256 553 q 117 553 163 553 z "},"ˉ":{"ha":417,"x_min":-22,"x_max":440,"o":"m -22 806 q -22 897 -22 850 q -22 988 -22 943 q 210 988 93 988 q 440 988 326 988 q 440 897 440 943 q 440 806 440 850 q 210 806 326 806 q -22 806 93 806 z "},"ˊ":{"ha":417,"x_min":93,"x_max":474,"o":"m 93 806 q 162 922 128 863 q 231 1038 196 981 q 353 1038 292 1038 q 474 1038 414 1038 q 390 922 432 981 q 306 806 347 863 q 200 806 254 806 q 93 806 146 806 z "},"ˋ":{"ha":417,"x_min":-57,"x_max":324,"o":"m 324 806 q 218 806 272 806 q 111 806 164 806 q 27 922 69 863 q -57 1038 -15 981 q 66 1038 4 1038 q 188 1038 128 1038 q 256 922 221 981 q 324 806 290 863 z "},"ˌ":{"ha":417,"x_min":117,"x_max":301,"o":"m 117 -222 q 117 -26 117 -125 q 117 169 117 72 q 209 169 163 169 q 301 169 256 169 q 301 -26 301 72 q 301 -222 301 -125 q 209 -222 256 -222 q 117 -222 163 -222 z "},"Á":{"ha":913,"x_min":0,"x_max":913,"o":"m 0 0 q 145 472 72 233 q 290 944 218 711 q 456 944 372 944 q 622 944 540 944 q 767 472 694 711 q 913 0 840 233 q 791 0 853 0 q 668 0 729 0 q 642 90 654 44 q 615 179 629 135 q 456 179 536 179 q 297 179 376 179 q 271 90 283 135 q 244 0 258 44 q 123 0 185 0 q 0 0 61 0 m 358 386 q 456 386 407 386 q 554 386 506 386 q 506 551 531 468 q 457 717 481 635 q 408 551 433 635 q 358 386 382 468 m 340 1032 q 409 1148 375 1089 q 478 1264 443 1207 q 600 1264 539 1264 q 721 1264 661 1264 q 637 1148 679 1207 q 553 1032 594 1089 q 447 1032 501 1032 q 340 1032 393 1032 z "},"Ă":{"ha":913,"x_min":0,"x_max":913,"o":"m 0 0 q 145 472 72 233 q 290 944 218 711 q 456 944 372 944 q 622 944 540 944 q 767 472 694 711 q 913 0 840 233 q 791 0 853 0 q 668 0 729 0 q 642 90 654 44 q 615 179 629 135 q 456 179 536 179 q 297 179 376 179 q 271 90 283 135 q 244 0 258 44 q 123 0 185 0 q 0 0 61 0 m 358 386 q 456 386 407 386 q 554 386 506 386 q 506 551 531 468 q 457 717 481 635 q 408 551 433 635 q 358 386 382 468 m 456 1019 q 456 1019 456 1019 q 456 1019 456 1019 q 349 1038 396 1019 q 269 1088 303 1056 q 219 1164 236 1119 q 201 1260 201 1208 q 283 1260 242 1260 q 365 1260 325 1260 q 389 1201 365 1224 q 456 1179 413 1179 q 523 1201 500 1179 q 546 1260 546 1224 q 628 1260 586 1260 q 710 1260 669 1260 q 692 1164 710 1208 q 642 1088 675 1119 q 563 1038 610 1056 q 456 1019 515 1019 z "},"Ắ":{"ha":913,"x_min":0,"x_max":913,"o":"m 0 0 q 145 472 72 233 q 290 944 218 711 q 456 944 372 944 q 622 944 540 944 q 767 472 694 711 q 913 0 840 233 q 791 0 853 0 q 668 0 729 0 q 642 90 654 44 q 615 179 629 135 q 456 179 536 179 q 297 179 376 179 q 271 90 283 135 q 244 0 258 44 q 123 0 185 0 q 0 0 61 0 m 358 386 q 456 386 407 386 q 554 386 506 386 q 506 551 531 468 q 457 717 481 635 q 408 551 433 635 q 358 386 382 468 m 456 1019 q 456 1019 456 1019 q 456 1019 456 1019 q 349 1038 396 1019 q 269 1088 303 1056 q 219 1164 236 1119 q 201 1260 201 1208 q 283 1260 242 1260 q 365 1260 325 1260 q 389 1201 365 1224 q 456 1179 413 1179 q 523 1201 500 1179 q 546 1260 546 1224 q 628 1260 586 1260 q 710 1260 669 1260 q 692 1164 710 1208 q 642 1088 675 1119 q 563 1038 610 1056 q 456 1019 515 1019 m 340 1311 q 409 1427 375 1368 q 478 1543 443 1486 q 600 1543 539 1543 q 721 1543 661 1543 q 637 1427 679 1486 q 553 1311 594 1368 q 447 1311 501 1311 q 340 1311 393 1311 z "},"Ặ":{"ha":913,"x_min":0,"x_max":913,"o":"m 0 0 q 145 472 72 233 q 290 944 218 711 q 456 944 372 944 q 622 944 540 944 q 767 472 694 711 q 913 0 840 233 q 791 0 853 0 q 668 0 729 0 q 642 90 654 44 q 615 179 629 135 q 456 179 536 179 q 297 179 376 179 q 271 90 283 135 q 244 0 258 44 q 123 0 185 0 q 0 0 61 0 m 358 386 q 456 386 407 386 q 554 386 506 386 q 506 551 531 468 q 457 717 481 635 q 408 551 433 635 q 358 386 382 468 m 456 1019 q 456 1019 456 1019 q 456 1019 456 1019 q 349 1038 396 1019 q 269 1088 303 1056 q 219 1164 236 1119 q 201 1260 201 1208 q 283 1260 242 1260 q 365 1260 325 1260 q 389 1201 365 1224 q 456 1179 413 1179 q 523 1201 500 1179 q 546 1260 546 1224 q 628 1260 586 1260 q 710 1260 669 1260 q 692 1164 710 1208 q 642 1088 675 1119 q 563 1038 610 1056 q 456 1019 515 1019 m 456 -26 q 456 -26 456 -26 q 456 -26 456 -26 q 527 -46 494 -26 q 579 -97 560 -65 q 599 -168 599 -129 q 579 -237 599 -206 q 527 -289 560 -269 q 456 -308 494 -308 q 383 -289 415 -308 q 331 -237 350 -269 q 311 -168 311 -206 q 331 -97 311 -129 q 383 -46 350 -65 q 456 -26 415 -26 z "},"Ằ":{"ha":913,"x_min":0,"x_max":913,"o":"m 0 0 q 145 472 72 233 q 290 944 218 711 q 456 944 372 944 q 622 944 540 944 q 767 472 694 711 q 913 0 840 233 q 791 0 853 0 q 668 0 729 0 q 642 90 654 44 q 615 179 629 135 q 456 179 536 179 q 297 179 376 179 q 271 90 283 135 q 244 0 258 44 q 123 0 185 0 q 0 0 61 0 m 358 386 q 456 386 407 386 q 554 386 506 386 q 506 551 531 468 q 457 717 481 635 q 408 551 433 635 q 358 386 382 468 m 456 1019 q 456 1019 456 1019 q 456 1019 456 1019 q 349 1038 396 1019 q 269 1088 303 1056 q 219 1164 236 1119 q 201 1260 201 1208 q 283 1260 242 1260 q 365 1260 325 1260 q 389 1201 365 1224 q 456 1179 413 1179 q 523 1201 500 1179 q 546 1260 546 1224 q 628 1260 586 1260 q 710 1260 669 1260 q 692 1164 710 1208 q 642 1088 675 1119 q 563 1038 610 1056 q 456 1019 515 1019 m 571 1311 q 465 1311 519 1311 q 358 1311 411 1311 q 274 1427 317 1368 q 190 1543 232 1486 q 313 1543 251 1543 q 435 1543 375 1543 q 503 1427 468 1486 q 571 1311 538 1368 z "},"Ẳ":{"ha":913,"x_min":0,"x_max":913,"o":"m 0 0 q 145 472 72 233 q 290 944 218 711 q 456 944 372 944 q 622 944 540 944 q 767 472 694 711 q 913 0 840 233 q 791 0 853 0 q 668 0 729 0 q 642 90 654 44 q 615 179 629 135 q 456 179 536 179 q 297 179 376 179 q 271 90 283 135 q 244 0 258 44 q 123 0 185 0 q 0 0 61 0 m 358 386 q 456 386 407 386 q 554 386 506 386 q 506 551 531 468 q 457 717 481 635 q 408 551 433 635 q 358 386 382 468 m 456 1019 q 456 1019 456 1019 q 456 1019 456 1019 q 349 1038 396 1019 q 269 1088 303 1056 q 219 1164 236 1119 q 201 1260 201 1208 q 283 1260 242 1260 q 365 1260 325 1260 q 389 1201 365 1224 q 456 1179 413 1179 q 523 1201 500 1179 q 546 1260 546 1224 q 628 1260 586 1260 q 710 1260 669 1260 q 692 1164 710 1208 q 642 1088 675 1119 q 563 1038 610 1056 q 456 1019 515 1019 m 363 1393 q 363 1393 363 1393 q 363 1393 363 1393 q 438 1412 415 1400 q 460 1443 460 1424 q 419 1483 460 1476 q 325 1475 378 1490 q 325 1544 325 1510 q 325 1614 325 1579 q 476 1624 411 1635 q 578 1573 542 1613 q 615 1468 615 1533 q 581 1364 615 1403 q 490 1306 547 1325 q 363 1281 432 1288 q 363 1337 363 1308 q 363 1393 363 1365 z "},"Ẵ":{"ha":913,"x_min":0,"x_max":913,"o":"m 0 0 q 145 472 72 233 q 290 944 218 711 q 456 944 372 944 q 622 944 540 944 q 767 472 694 711 q 913 0 840 233 q 791 0 853 0 q 668 0 729 0 q 642 90 654 44 q 615 179 629 135 q 456 179 536 179 q 297 179 376 179 q 271 90 283 135 q 244 0 258 44 q 123 0 185 0 q 0 0 61 0 m 358 386 q 456 386 407 386 q 554 386 506 386 q 506 551 531 468 q 457 717 481 635 q 408 551 433 635 q 358 386 382 468 m 456 1019 q 456 1019 456 1019 q 456 1019 456 1019 q 349 1038 396 1019 q 269 1088 303 1056 q 219 1164 236 1119 q 201 1260 201 1208 q 283 1260 242 1260 q 365 1260 325 1260 q 389 1201 365 1224 q 456 1179 413 1179 q 523 1201 500 1179 q 546 1260 546 1224 q 628 1260 586 1260 q 710 1260 669 1260 q 692 1164 710 1208 q 642 1088 675 1119 q 563 1038 610 1056 q 456 1019 515 1019 m 581 1536 q 644 1536 613 1536 q 707 1536 676 1536 q 697 1433 707 1476 q 667 1360 686 1389 q 619 1317 647 1331 q 556 1303 592 1303 q 483 1319 511 1303 q 433 1352 454 1336 q 385 1368 411 1368 q 353 1352 364 1368 q 342 1308 343 1336 q 279 1308 311 1308 q 215 1308 247 1308 q 226 1412 215 1368 q 256 1485 236 1456 q 303 1528 275 1514 q 365 1542 331 1542 q 440 1526 411 1542 q 490 1494 468 1510 q 538 1478 513 1478 q 569 1494 558 1478 q 581 1536 581 1511 z "},"Â":{"ha":913,"x_min":0,"x_max":913,"o":"m 0 0 q 145 472 72 233 q 290 944 218 711 q 456 944 372 944 q 622 944 540 944 q 767 472 694 711 q 913 0 840 233 q 791 0 853 0 q 668 0 729 0 q 642 90 654 44 q 615 179 629 135 q 456 179 536 179 q 297 179 376 179 q 271 90 283 135 q 244 0 258 44 q 123 0 185 0 q 0 0 61 0 m 358 386 q 456 386 407 386 q 554 386 506 386 q 506 551 531 468 q 457 717 481 635 q 408 551 433 635 q 358 386 382 468 m 181 1032 q 258 1141 219 1086 q 335 1250 296 1196 q 458 1250 396 1250 q 579 1250 519 1250 q 656 1141 618 1196 q 733 1032 694 1086 q 628 1032 682 1032 q 522 1032 575 1032 q 490 1080 506 1056 q 457 1128 474 1104 q 424 1080 440 1104 q 392 1032 408 1056 q 287 1032 340 1032 q 181 1032 233 1032 z "},"Ấ":{"ha":913,"x_min":0,"x_max":990,"o":"m 0 0 q 145 472 72 233 q 290 944 218 711 q 456 944 372 944 q 622 944 540 944 q 767 472 694 711 q 913 0 840 233 q 791 0 853 0 q 668 0 729 0 q 642 90 654 44 q 615 179 629 135 q 456 179 536 179 q 297 179 376 179 q 271 90 283 135 q 244 0 258 44 q 123 0 185 0 q 0 0 61 0 m 358 386 q 456 386 407 386 q 554 386 506 386 q 506 551 531 468 q 457 717 481 635 q 408 551 433 635 q 358 386 382 468 m 181 1032 q 258 1141 219 1086 q 335 1250 296 1196 q 458 1250 396 1250 q 579 1250 519 1250 q 656 1141 618 1196 q 733 1032 694 1086 q 628 1032 682 1032 q 522 1032 575 1032 q 490 1080 506 1056 q 457 1128 474 1104 q 424 1080 440 1104 q 392 1032 408 1056 q 287 1032 340 1032 q 181 1032 233 1032 m 610 1258 q 678 1374 644 1315 q 747 1490 713 1433 q 869 1490 808 1490 q 990 1490 931 1490 q 906 1374 949 1433 q 822 1258 864 1315 q 717 1258 771 1258 q 610 1258 663 1258 z "},"Ậ":{"ha":913,"x_min":0,"x_max":913,"o":"m 0 0 q 145 472 72 233 q 290 944 218 711 q 456 944 372 944 q 622 944 540 944 q 767 472 694 711 q 913 0 840 233 q 791 0 853 0 q 668 0 729 0 q 642 90 654 44 q 615 179 629 135 q 456 179 536 179 q 297 179 376 179 q 271 90 283 135 q 244 0 258 44 q 123 0 185 0 q 0 0 61 0 m 358 386 q 456 386 407 386 q 554 386 506 386 q 506 551 531 468 q 457 717 481 635 q 408 551 433 635 q 358 386 382 468 m 181 1032 q 258 1141 219 1086 q 335 1250 296 1196 q 458 1250 396 1250 q 579 1250 519 1250 q 656 1141 618 1196 q 733 1032 694 1086 q 628 1032 682 1032 q 522 1032 575 1032 q 490 1080 506 1056 q 457 1128 474 1104 q 424 1080 440 1104 q 392 1032 408 1056 q 287 1032 340 1032 q 181 1032 233 1032 m 456 -26 q 456 -26 456 -26 q 456 -26 456 -26 q 527 -46 494 -26 q 579 -97 560 -65 q 599 -168 599 -129 q 579 -237 599 -206 q 527 -289 560 -269 q 456 -308 494 -308 q 383 -289 415 -308 q 331 -237 350 -269 q 311 -168 311 -206 q 331 -97 311 -129 q 383 -46 350 -65 q 456 -26 415 -26 z "},"Ầ":{"ha":913,"x_min":0,"x_max":913,"o":"m 0 0 q 145 472 72 233 q 290 944 218 711 q 456 944 372 944 q 622 944 540 944 q 767 472 694 711 q 913 0 840 233 q 791 0 853 0 q 668 0 729 0 q 642 90 654 44 q 615 179 629 135 q 456 179 536 179 q 297 179 376 179 q 271 90 283 135 q 244 0 258 44 q 123 0 185 0 q 0 0 61 0 m 358 386 q 456 386 407 386 q 554 386 506 386 q 506 551 531 468 q 457 717 481 635 q 408 551 433 635 q 358 386 382 468 m 181 1032 q 258 1141 219 1086 q 335 1250 296 1196 q 458 1250 396 1250 q 579 1250 519 1250 q 656 1141 618 1196 q 733 1032 694 1086 q 628 1032 682 1032 q 522 1032 575 1032 q 490 1080 506 1056 q 457 1128 474 1104 q 424 1080 440 1104 q 392 1032 408 1056 q 287 1032 340 1032 q 181 1032 233 1032 m 840 1258 q 735 1258 789 1258 q 628 1258 681 1258 q 544 1374 586 1315 q 460 1490 501 1433 q 583 1490 521 1490 q 704 1490 644 1490 q 772 1374 738 1433 q 840 1258 807 1315 z "},"Ẩ":{"ha":913,"x_min":0,"x_max":913,"o":"m 0 0 q 145 472 72 233 q 290 944 218 711 q 456 944 372 944 q 622 944 540 944 q 767 472 694 711 q 913 0 840 233 q 791 0 853 0 q 668 0 729 0 q 642 90 654 44 q 615 179 629 135 q 456 179 536 179 q 297 179 376 179 q 271 90 283 135 q 244 0 258 44 q 123 0 185 0 q 0 0 61 0 m 358 386 q 456 386 407 386 q 554 386 506 386 q 506 551 531 468 q 457 717 481 635 q 408 551 433 635 q 358 386 382 468 m 181 1032 q 258 1141 219 1086 q 335 1250 296 1196 q 458 1250 396 1250 q 579 1250 519 1250 q 656 1141 618 1196 q 733 1032 694 1086 q 628 1032 682 1032 q 522 1032 575 1032 q 490 1080 506 1056 q 457 1128 474 1104 q 424 1080 440 1104 q 392 1032 408 1056 q 287 1032 340 1032 q 181 1032 233 1032 m 632 1340 q 632 1340 632 1340 q 632 1340 632 1340 q 707 1359 685 1347 q 729 1390 729 1371 q 688 1431 729 1424 q 594 1422 647 1438 q 594 1492 594 1457 q 594 1561 594 1526 q 746 1571 681 1582 q 848 1520 811 1560 q 885 1415 885 1481 q 851 1311 885 1350 q 759 1253 817 1272 q 632 1228 701 1235 q 632 1284 632 1256 q 632 1340 632 1313 z "},"Ẫ":{"ha":913,"x_min":0,"x_max":913,"o":"m 0 0 q 145 472 72 233 q 290 944 218 711 q 456 944 372 944 q 622 944 540 944 q 767 472 694 711 q 913 0 840 233 q 791 0 853 0 q 668 0 729 0 q 642 90 654 44 q 615 179 629 135 q 456 179 536 179 q 297 179 376 179 q 271 90 283 135 q 244 0 258 44 q 123 0 185 0 q 0 0 61 0 m 358 386 q 456 386 407 386 q 554 386 506 386 q 506 551 531 468 q 457 717 481 635 q 408 551 433 635 q 358 386 382 468 m 181 1032 q 258 1141 219 1086 q 335 1250 296 1196 q 458 1250 396 1250 q 579 1250 519 1250 q 656 1141 618 1196 q 733 1032 694 1086 q 628 1032 682 1032 q 522 1032 575 1032 q 490 1080 506 1056 q 457 1128 474 1104 q 424 1080 440 1104 q 392 1032 408 1056 q 287 1032 340 1032 q 181 1032 233 1032 m 581 1536 q 644 1536 613 1536 q 707 1536 676 1536 q 697 1433 707 1476 q 667 1360 686 1389 q 619 1317 647 1331 q 556 1303 592 1303 q 483 1319 511 1303 q 433 1352 454 1336 q 385 1368 411 1368 q 353 1352 364 1368 q 342 1308 343 1336 q 279 1308 311 1308 q 215 1308 247 1308 q 226 1412 215 1368 q 256 1485 236 1456 q 303 1528 275 1514 q 365 1542 331 1542 q 440 1526 411 1542 q 490 1494 468 1510 q 538 1478 513 1478 q 569 1494 558 1478 q 581 1536 581 1511 z "},"Ä":{"ha":913,"x_min":0,"x_max":913,"o":"m 0 0 q 145 472 72 233 q 290 944 218 711 q 456 944 372 944 q 622 944 540 944 q 767 472 694 711 q 913 0 840 233 q 791 0 853 0 q 668 0 729 0 q 642 90 654 44 q 615 179 629 135 q 456 179 536 179 q 297 179 376 179 q 271 90 283 135 q 244 0 258 44 q 123 0 185 0 q 0 0 61 0 m 358 386 q 456 386 407 386 q 554 386 506 386 q 506 551 531 468 q 457 717 481 635 q 408 551 433 635 q 358 386 382 468 m 293 1026 q 293 1026 293 1026 q 293 1026 293 1026 q 220 1046 253 1026 q 168 1097 188 1065 q 149 1168 149 1129 q 168 1238 149 1207 q 220 1289 188 1269 q 293 1308 253 1308 q 365 1289 332 1308 q 417 1238 397 1269 q 436 1168 436 1207 q 417 1097 436 1129 q 365 1046 397 1065 q 293 1026 332 1026 m 621 1026 q 621 1026 621 1026 q 621 1026 621 1026 q 548 1046 581 1026 q 496 1097 515 1065 q 476 1168 476 1129 q 496 1238 476 1207 q 548 1289 515 1269 q 621 1308 581 1308 q 692 1289 660 1308 q 744 1238 725 1269 q 764 1168 764 1207 q 744 1097 764 1129 q 692 1046 725 1065 q 621 1026 660 1026 z "},"Ạ":{"ha":913,"x_min":0,"x_max":913,"o":"m 0 0 q 145 472 72 233 q 290 944 218 711 q 456 944 372 944 q 622 944 540 944 q 767 472 694 711 q 913 0 840 233 q 791 0 853 0 q 668 0 729 0 q 642 90 654 44 q 615 179 629 135 q 456 179 536 179 q 297 179 376 179 q 271 90 283 135 q 244 0 258 44 q 123 0 185 0 q 0 0 61 0 m 358 386 q 456 386 407 386 q 554 386 506 386 q 506 551 531 468 q 457 717 481 635 q 408 551 433 635 q 358 386 382 468 m 456 -26 q 456 -26 456 -26 q 456 -26 456 -26 q 527 -46 494 -26 q 579 -97 560 -65 q 599 -168 599 -129 q 579 -237 599 -206 q 527 -289 560 -269 q 456 -308 494 -308 q 383 -289 415 -308 q 331 -237 350 -269 q 311 -168 311 -206 q 331 -97 311 -129 q 383 -46 350 -65 q 456 -26 415 -26 z "},"Ȁ":{"ha":913,"x_min":0,"x_max":913,"o":"m 0 0 q 145 472 72 233 q 290 944 218 711 q 456 944 372 944 q 622 944 540 944 q 767 472 694 711 q 913 0 840 233 q 791 0 853 0 q 668 0 729 0 q 642 90 654 44 q 615 179 629 135 q 456 179 536 179 q 297 179 376 179 q 271 90 283 135 q 244 0 258 44 q 123 0 185 0 q 0 0 61 0 m 358 386 q 456 386 407 386 q 554 386 506 386 q 506 551 531 468 q 457 717 481 635 q 408 551 433 635 q 358 386 382 468 m 450 1032 q 355 1032 403 1032 q 258 1032 307 1032 q 168 1148 214 1089 q 78 1264 122 1207 q 190 1264 133 1264 q 301 1264 246 1264 q 376 1148 338 1207 q 450 1032 414 1089 m 699 1032 q 603 1032 651 1032 q 506 1032 554 1032 q 428 1148 467 1089 q 350 1264 389 1207 q 463 1264 406 1264 q 575 1264 519 1264 q 637 1148 606 1207 q 699 1032 668 1089 z "},"À":{"ha":913,"x_min":0,"x_max":913,"o":"m 0 0 q 145 472 72 233 q 290 944 218 711 q 456 944 372 944 q 622 944 540 944 q 767 472 694 711 q 913 0 840 233 q 791 0 853 0 q 668 0 729 0 q 642 90 654 44 q 615 179 629 135 q 456 179 536 179 q 297 179 376 179 q 271 90 283 135 q 244 0 258 44 q 123 0 185 0 q 0 0 61 0 m 358 386 q 456 386 407 386 q 554 386 506 386 q 506 551 531 468 q 457 717 481 635 q 408 551 433 635 q 358 386 382 468 m 571 1032 q 465 1032 519 1032 q 358 1032 411 1032 q 274 1148 317 1089 q 190 1264 232 1207 q 313 1264 251 1264 q 435 1264 375 1264 q 503 1148 468 1207 q 571 1032 538 1089 z "},"Ả":{"ha":913,"x_min":0,"x_max":913,"o":"m 0 0 q 145 472 72 233 q 290 944 218 711 q 456 944 372 944 q 622 944 540 944 q 767 472 694 711 q 913 0 840 233 q 791 0 853 0 q 668 0 729 0 q 642 90 654 44 q 615 179 629 135 q 456 179 536 179 q 297 179 376 179 q 271 90 283 135 q 244 0 258 44 q 123 0 185 0 q 0 0 61 0 m 358 386 q 456 386 407 386 q 554 386 506 386 q 506 551 531 468 q 457 717 481 635 q 408 551 433 635 q 358 386 382 468 m 363 1114 q 363 1114 363 1114 q 363 1114 363 1114 q 438 1133 415 1121 q 460 1164 460 1144 q 419 1204 460 1197 q 325 1196 378 1211 q 325 1265 325 1231 q 325 1335 325 1300 q 476 1344 411 1356 q 578 1294 542 1333 q 615 1189 615 1254 q 581 1085 615 1124 q 490 1027 547 1046 q 363 1001 432 1008 q 363 1058 363 1029 q 363 1114 363 1086 z "},"Ȃ":{"ha":913,"x_min":0,"x_max":913,"o":"m 0 0 q 145 472 72 233 q 290 944 218 711 q 456 944 372 944 q 622 944 540 944 q 767 472 694 711 q 913 0 840 233 q 791 0 853 0 q 668 0 729 0 q 642 90 654 44 q 615 179 629 135 q 456 179 536 179 q 297 179 376 179 q 271 90 283 135 q 244 0 258 44 q 123 0 185 0 q 0 0 61 0 m 358 386 q 456 386 407 386 q 554 386 506 386 q 506 551 531 468 q 457 717 481 635 q 408 551 433 635 q 358 386 382 468 m 456 1272 q 456 1272 456 1272 q 456 1272 456 1272 q 563 1254 515 1272 q 642 1203 610 1236 q 692 1127 675 1171 q 710 1032 710 1083 q 628 1032 669 1032 q 546 1032 586 1032 q 523 1090 546 1068 q 456 1113 500 1113 q 389 1090 413 1113 q 365 1032 365 1068 q 283 1032 325 1032 q 201 1032 242 1032 q 219 1127 201 1083 q 269 1203 236 1171 q 349 1254 303 1236 q 456 1272 396 1272 z "},"Ā":{"ha":913,"x_min":0,"x_max":913,"o":"m 0 0 q 145 472 72 233 q 290 944 218 711 q 456 944 372 944 q 622 944 540 944 q 767 472 694 711 q 913 0 840 233 q 791 0 853 0 q 668 0 729 0 q 642 90 654 44 q 615 179 629 135 q 456 179 536 179 q 297 179 376 179 q 271 90 283 135 q 244 0 258 44 q 123 0 185 0 q 0 0 61 0 m 358 386 q 456 386 407 386 q 554 386 506 386 q 506 551 531 468 q 457 717 481 635 q 408 551 433 635 q 358 386 382 468 m 225 1032 q 225 1123 225 1076 q 225 1214 225 1169 q 457 1214 340 1214 q 688 1214 574 1214 q 688 1123 688 1169 q 688 1032 688 1076 q 457 1032 574 1032 q 225 1032 340 1032 z "},"Ą":{"ha":913,"x_min":0,"x_max":913,"o":"m 0 0 q 0 0 0 0 q 0 0 0 0 q 145 472 72 233 q 290 944 218 711 q 456 944 372 944 q 622 944 540 944 q 767 472 694 711 q 913 0 840 233 q 811 -36 844 -21 q 778 -75 778 -51 q 815 -106 778 -103 q 913 -92 853 -110 q 913 -170 913 -131 q 913 -249 913 -210 q 742 -272 811 -283 q 636 -219 672 -261 q 600 -122 600 -176 q 615 -54 600 -86 q 667 6 629 -22 q 641 93 653 50 q 615 179 629 136 q 456 179 536 179 q 297 179 376 179 q 271 90 283 135 q 244 0 258 44 q 123 0 185 0 q 0 0 61 0 m 358 386 q 456 386 407 386 q 554 386 506 386 q 506 551 531 468 q 457 717 481 635 q 408 551 433 635 q 358 386 382 468 z "},"Å":{"ha":913,"x_min":0,"x_max":913,"o":"m 0 0 q 145 472 72 233 q 290 944 218 711 q 456 944 372 944 q 622 944 540 944 q 767 472 694 711 q 913 0 840 233 q 791 0 853 0 q 668 0 729 0 q 642 90 654 44 q 615 179 629 135 q 456 179 536 179 q 297 179 376 179 q 271 90 283 135 q 244 0 258 44 q 123 0 185 0 q 0 0 61 0 m 358 386 q 456 386 407 386 q 554 386 506 386 q 506 551 531 468 q 457 717 481 635 q 408 551 433 635 q 358 386 382 468 m 454 1001 q 454 1001 454 1001 q 454 1001 454 1001 q 362 1023 403 1001 q 298 1082 321 1044 q 275 1168 275 1119 q 298 1252 275 1215 q 362 1310 321 1289 q 454 1332 403 1332 q 549 1310 508 1332 q 613 1252 590 1289 q 636 1168 636 1215 q 613 1082 636 1119 q 549 1023 590 1044 q 454 1001 508 1001 m 454 1104 q 454 1104 454 1104 q 454 1104 454 1104 q 505 1122 486 1104 q 524 1168 524 1139 q 505 1213 524 1196 q 454 1231 486 1231 q 406 1213 424 1231 q 389 1168 389 1196 q 406 1122 389 1139 q 454 1104 424 1104 z "},"Ǻ":{"ha":913,"x_min":0,"x_max":913,"o":"m 0 0 q 145 472 72 233 q 290 944 218 711 q 456 944 372 944 q 622 944 540 944 q 767 472 694 711 q 913 0 840 233 q 791 0 853 0 q 668 0 729 0 q 642 90 654 44 q 615 179 629 135 q 456 179 536 179 q 297 179 376 179 q 271 90 283 135 q 244 0 258 44 q 123 0 185 0 q 0 0 61 0 m 358 386 q 456 386 407 386 q 554 386 506 386 q 506 551 531 468 q 457 717 481 635 q 408 551 433 635 q 358 386 382 468 m 454 1001 q 454 1001 454 1001 q 454 1001 454 1001 q 362 1023 403 1001 q 298 1082 321 1044 q 275 1168 275 1119 q 298 1252 275 1215 q 362 1310 321 1289 q 454 1332 403 1332 q 549 1310 508 1332 q 613 1252 590 1289 q 636 1168 636 1215 q 613 1082 636 1119 q 549 1023 590 1044 q 454 1001 508 1001 m 454 1104 q 454 1104 454 1104 q 454 1104 454 1104 q 505 1122 486 1104 q 524 1168 524 1139 q 505 1213 524 1196 q 454 1231 486 1231 q 406 1213 424 1231 q 389 1168 389 1196 q 406 1122 389 1139 q 454 1104 424 1104 m 340 1297 q 409 1413 375 1354 q 478 1529 443 1472 q 600 1529 539 1529 q 721 1529 661 1529 q 637 1413 679 1472 q 553 1297 594 1354 q 447 1297 501 1297 q 340 1297 393 1297 z "},"Ã":{"ha":913,"x_min":0,"x_max":913,"o":"m 0 0 q 145 472 72 233 q 290 944 218 711 q 456 944 372 944 q 622 944 540 944 q 767 472 694 711 q 913 0 840 233 q 791 0 853 0 q 668 0 729 0 q 642 90 654 44 q 615 179 629 135 q 456 179 536 179 q 297 179 376 179 q 271 90 283 135 q 244 0 258 44 q 123 0 185 0 q 0 0 61 0 m 358 386 q 456 386 407 386 q 554 386 506 386 q 506 551 531 468 q 457 717 481 635 q 408 551 433 635 q 358 386 382 468 m 581 1257 q 644 1257 613 1257 q 707 1257 676 1257 q 697 1153 707 1197 q 667 1081 686 1110 q 619 1038 647 1051 q 556 1024 592 1024 q 483 1040 511 1024 q 433 1073 454 1057 q 385 1089 411 1089 q 353 1073 364 1089 q 342 1029 343 1057 q 279 1029 311 1029 q 215 1029 247 1029 q 226 1133 215 1089 q 256 1206 236 1176 q 303 1249 275 1235 q 365 1263 331 1263 q 440 1247 411 1263 q 490 1215 468 1231 q 538 1199 513 1199 q 569 1215 558 1199 q 581 1257 581 1232 z "},"Æ":{"ha":1226,"x_min":0,"x_max":1150,"o":"m 0 0 q 222 472 110 233 q 443 944 333 711 q 797 944 618 944 q 1150 944 975 944 q 1150 836 1150 892 q 1150 728 1150 781 q 988 728 1069 728 q 826 728 907 728 q 826 659 826 693 q 826 590 826 625 q 975 590 900 590 q 1122 590 1050 590 q 1122 486 1122 539 q 1122 381 1122 433 q 975 381 1050 381 q 826 381 900 381 q 826 299 826 340 q 826 217 826 257 q 988 217 907 217 q 1150 217 1069 217 q 1150 108 1150 164 q 1150 0 1150 53 q 867 0 1010 0 q 583 0 724 0 q 583 90 583 44 q 583 179 583 135 q 458 179 521 179 q 332 179 394 179 q 291 90 313 135 q 250 0 269 44 q 125 0 189 0 q 0 0 61 0 m 426 386 q 505 386 465 386 q 583 386 544 386 q 583 558 583 472 q 583 729 583 644 q 505 558 544 644 q 426 386 465 472 z "},"Ǽ":{"ha":1226,"x_min":0,"x_max":1150,"o":"m 0 0 q 222 472 110 233 q 443 944 333 711 q 797 944 618 944 q 1150 944 975 944 q 1150 836 1150 892 q 1150 728 1150 781 q 988 728 1069 728 q 826 728 907 728 q 826 659 826 693 q 826 590 826 625 q 975 590 900 590 q 1122 590 1050 590 q 1122 486 1122 539 q 1122 381 1122 433 q 975 381 1050 381 q 826 381 900 381 q 826 299 826 340 q 826 217 826 257 q 988 217 907 217 q 1150 217 1069 217 q 1150 108 1150 164 q 1150 0 1150 53 q 867 0 1010 0 q 583 0 724 0 q 583 90 583 44 q 583 179 583 135 q 458 179 521 179 q 332 179 394 179 q 291 90 313 135 q 250 0 269 44 q 125 0 189 0 q 0 0 61 0 m 426 386 q 505 386 465 386 q 583 386 544 386 q 583 558 583 472 q 583 729 583 644 q 505 558 544 644 q 426 386 465 472 m 585 1032 q 653 1148 619 1089 q 722 1264 688 1207 q 844 1264 783 1264 q 965 1264 906 1264 q 881 1148 924 1207 q 797 1032 839 1089 q 692 1032 746 1032 q 585 1032 638 1032 z "},"Ć":{"ha":814,"x_min":43,"x_max":744,"o":"m 43 472 q 43 472 43 472 q 43 472 43 472 q 77 667 43 579 q 174 821 111 756 q 324 922 236 886 q 517 961 411 958 q 744 928 624 964 q 744 810 744 869 q 744 693 744 751 q 582 738 663 732 q 436 715 501 743 q 332 627 371 688 q 293 472 293 567 q 332 317 293 378 q 436 229 371 257 q 582 207 501 201 q 744 251 663 213 q 744 134 744 193 q 744 17 744 75 q 517 -17 624 -19 q 324 22 411 -14 q 174 124 236 58 q 77 277 111 189 q 43 472 43 365 m 354 1036 q 423 1152 389 1093 q 492 1268 457 1211 q 614 1268 553 1268 q 735 1268 675 1268 q 651 1152 693 1211 q 567 1036 608 1093 q 461 1036 515 1036 q 354 1036 407 1036 z "},"Č":{"ha":814,"x_min":43,"x_max":746,"o":"m 43 472 q 43 472 43 472 q 43 472 43 472 q 77 667 43 579 q 174 821 111 756 q 324 922 236 886 q 517 961 411 958 q 744 928 624 964 q 744 810 744 869 q 744 693 744 751 q 582 738 663 732 q 436 715 501 743 q 332 627 371 688 q 293 472 293 567 q 332 317 293 378 q 436 229 371 257 q 582 207 501 201 q 744 251 663 213 q 744 134 744 193 q 744 17 744 75 q 517 -17 624 -19 q 324 22 411 -14 q 174 124 236 58 q 77 277 111 189 q 43 472 43 365 m 746 1268 q 669 1152 707 1211 q 592 1036 631 1093 q 470 1036 532 1036 q 347 1036 408 1036 q 270 1152 308 1093 q 193 1268 232 1211 q 299 1268 246 1268 q 404 1268 353 1268 q 437 1217 421 1243 q 469 1167 453 1192 q 502 1217 486 1192 q 535 1268 518 1243 q 641 1268 588 1268 q 746 1268 694 1268 z "},"Ç":{"ha":814,"x_min":43,"x_max":744,"o":"m 299 -321 q 299 -256 299 -289 q 299 -193 299 -224 q 441 -217 389 -221 q 493 -186 493 -212 q 465 -157 493 -165 q 371 -154 438 -149 q 373 -75 372 -115 q 375 4 374 -35 q 199 99 274 33 q 84 260 125 165 q 43 472 43 356 q 77 667 43 579 q 174 821 111 756 q 324 922 236 886 q 517 961 411 958 q 744 928 624 964 q 744 810 744 869 q 744 693 744 751 q 582 738 663 732 q 436 715 501 743 q 332 627 371 688 q 293 472 293 567 q 332 317 293 378 q 436 229 371 257 q 582 207 501 201 q 744 251 663 213 q 744 134 744 193 q 744 17 744 75 q 623 -10 682 -1 q 508 -17 564 -18 q 510 -36 510 -26 q 510 -57 510 -46 q 606 -105 569 -72 q 643 -197 643 -137 q 600 -301 643 -262 q 479 -344 557 -339 q 299 -321 401 -350 z "},"Ḉ":{"ha":814,"x_min":43,"x_max":744,"o":"m 299 -321 q 299 -256 299 -289 q 299 -193 299 -224 q 441 -217 389 -221 q 493 -186 493 -212 q 465 -157 493 -165 q 371 -154 438 -149 q 373 -75 372 -115 q 375 4 374 -35 q 199 99 274 33 q 84 260 125 165 q 43 472 43 356 q 77 667 43 579 q 174 821 111 756 q 324 922 236 886 q 517 961 411 958 q 744 928 624 964 q 744 810 744 869 q 744 693 744 751 q 582 738 663 732 q 436 715 501 743 q 332 627 371 688 q 293 472 293 567 q 332 317 293 378 q 436 229 371 257 q 582 207 501 201 q 744 251 663 213 q 744 134 744 193 q 744 17 744 75 q 623 -10 682 -1 q 508 -17 564 -18 q 510 -36 510 -26 q 510 -57 510 -46 q 606 -105 569 -72 q 643 -197 643 -137 q 600 -301 643 -262 q 479 -344 557 -339 q 299 -321 401 -350 m 354 1046 q 423 1162 389 1103 q 492 1278 457 1221 q 614 1278 553 1278 q 735 1278 675 1278 q 651 1162 693 1221 q 567 1046 608 1103 q 461 1046 515 1046 q 354 1046 407 1046 z "},"Ĉ":{"ha":814,"x_min":43,"x_max":747,"o":"m 43 472 q 43 472 43 472 q 43 472 43 472 q 77 667 43 579 q 174 821 111 756 q 324 922 236 886 q 517 961 411 958 q 744 928 624 964 q 744 810 744 869 q 744 693 744 751 q 582 738 663 732 q 436 715 501 743 q 332 627 371 688 q 293 472 293 567 q 332 317 293 378 q 436 229 371 257 q 582 207 501 201 q 744 251 663 213 q 744 134 744 193 q 744 17 744 75 q 517 -17 624 -19 q 324 22 411 -14 q 174 124 236 58 q 77 277 111 189 q 43 472 43 365 m 194 1036 q 272 1145 233 1090 q 349 1254 310 1200 q 472 1254 410 1254 q 593 1254 533 1254 q 670 1145 632 1200 q 747 1036 708 1090 q 642 1036 696 1036 q 536 1036 589 1036 q 503 1084 519 1060 q 471 1132 488 1108 q 438 1084 454 1108 q 406 1036 422 1060 q 301 1036 354 1036 q 194 1036 247 1036 z "},"Ċ":{"ha":814,"x_min":43,"x_max":744,"o":"m 43 472 q 43 472 43 472 q 43 472 43 472 q 77 667 43 579 q 174 821 111 756 q 324 922 236 886 q 517 961 411 958 q 744 928 624 964 q 744 810 744 869 q 744 693 744 751 q 582 738 663 732 q 436 715 501 743 q 332 627 371 688 q 293 472 293 567 q 332 317 293 378 q 436 229 371 257 q 582 207 501 201 q 744 251 663 213 q 744 134 744 193 q 744 17 744 75 q 517 -17 624 -19 q 324 22 411 -14 q 174 124 236 58 q 77 277 111 189 q 43 472 43 365 m 469 1031 q 469 1031 469 1031 q 469 1031 469 1031 q 397 1050 429 1031 q 344 1101 364 1069 q 325 1172 325 1133 q 344 1242 325 1211 q 397 1293 364 1274 q 469 1313 429 1313 q 541 1293 508 1313 q 593 1242 574 1274 q 613 1172 613 1211 q 593 1101 613 1133 q 541 1050 574 1069 q 469 1031 508 1031 z "},"Ď":{"ha":943,"x_min":90,"x_max":900,"o":"m 90 0 q 90 472 90 233 q 90 944 90 711 q 258 944 174 944 q 426 944 343 944 q 615 909 529 944 q 765 810 701 874 q 865 660 829 746 q 900 474 900 575 q 865 286 900 372 q 765 135 829 200 q 615 35 701 71 q 426 0 529 0 q 258 0 343 0 q 90 0 174 0 m 426 725 q 381 725 404 725 q 333 725 357 725 q 333 472 333 600 q 333 219 333 344 q 381 219 357 219 q 426 219 404 219 q 547 253 496 219 q 626 344 599 286 q 654 474 654 401 q 626 603 654 546 q 547 692 599 660 q 426 725 496 725 m 715 1264 q 638 1148 676 1207 q 561 1032 600 1089 q 440 1032 501 1032 q 317 1032 378 1032 q 240 1148 278 1089 q 163 1264 201 1207 q 269 1264 215 1264 q 374 1264 322 1264 q 406 1213 390 1239 q 439 1163 422 1188 q 472 1213 456 1188 q 504 1264 488 1239 q 610 1264 557 1264 q 715 1264 664 1264 z "},"Ḍ":{"ha":943,"x_min":90,"x_max":900,"o":"m 90 0 q 90 472 90 233 q 90 944 90 711 q 258 944 174 944 q 426 944 343 944 q 615 909 529 944 q 765 810 701 874 q 865 660 829 746 q 900 474 900 575 q 865 286 900 372 q 765 135 829 200 q 615 35 701 71 q 426 0 529 0 q 258 0 343 0 q 90 0 174 0 m 426 725 q 381 725 404 725 q 333 725 357 725 q 333 472 333 600 q 333 219 333 344 q 381 219 357 219 q 426 219 404 219 q 547 253 496 219 q 626 344 599 286 q 654 474 654 401 q 626 603 654 546 q 547 692 599 660 q 426 725 496 725 m 425 -81 q 425 -81 425 -81 q 425 -81 425 -81 q 497 -100 464 -81 q 549 -151 529 -119 q 568 -222 568 -183 q 549 -292 568 -260 q 497 -343 529 -324 q 425 -362 464 -362 q 352 -343 385 -362 q 300 -292 319 -324 q 281 -222 281 -260 q 300 -151 281 -183 q 352 -100 319 -119 q 425 -81 385 -81 z "},"Ḏ":{"ha":943,"x_min":90,"x_max":900,"o":"m 90 0 q 90 472 90 233 q 90 944 90 711 q 258 944 174 944 q 426 944 343 944 q 615 909 529 944 q 765 810 701 874 q 865 660 829 746 q 900 474 900 575 q 865 286 900 372 q 765 135 829 200 q 615 35 701 71 q 426 0 529 0 q 258 0 343 0 q 90 0 174 0 m 426 725 q 381 725 404 725 q 333 725 357 725 q 333 472 333 600 q 333 219 333 344 q 381 219 357 219 q 426 219 404 219 q 547 253 496 219 q 626 344 599 286 q 654 474 654 401 q 626 603 654 546 q 547 692 599 660 q 426 725 496 725 m 194 -268 q 194 -177 194 -224 q 194 -86 194 -131 q 426 -86 310 -86 q 657 -86 543 -86 q 657 -177 657 -131 q 657 -268 657 -224 q 426 -268 543 -268 q 194 -268 310 -268 z "},"Đ":{"ha":978,"x_min":28,"x_max":935,"o":"m 125 0 q 125 183 125 90 q 125 365 125 275 q 76 365 101 365 q 28 365 51 365 q 28 473 28 418 q 28 581 28 528 q 76 581 51 581 q 125 581 101 581 q 125 763 125 671 q 125 944 125 856 q 293 944 208 944 q 461 944 378 944 q 650 909 564 944 q 800 810 736 874 q 899 660 864 746 q 935 474 935 575 q 899 286 935 372 q 800 135 864 200 q 650 35 736 71 q 461 0 564 0 q 293 0 378 0 q 125 0 208 0 m 461 725 q 415 725 439 725 q 368 725 392 725 q 368 653 368 690 q 368 581 368 617 q 455 581 411 581 q 542 581 499 581 q 542 473 542 528 q 542 365 542 418 q 455 365 499 365 q 368 365 411 365 q 368 292 368 329 q 368 219 368 256 q 415 219 392 219 q 461 219 439 219 q 582 253 531 219 q 661 344 633 286 q 689 474 689 401 q 661 603 689 546 q 582 692 633 660 q 461 725 531 725 z "},"Ð":{"ha":978,"x_min":28,"x_max":935,"o":"m 125 0 q 125 183 125 90 q 125 365 125 275 q 76 365 101 365 q 28 365 51 365 q 28 473 28 418 q 28 581 28 528 q 76 581 51 581 q 125 581 101 581 q 125 763 125 671 q 125 944 125 856 q 293 944 208 944 q 461 944 378 944 q 650 909 564 944 q 800 810 736 874 q 899 660 864 746 q 935 474 935 575 q 899 286 935 372 q 800 135 864 200 q 650 35 736 71 q 461 0 564 0 q 293 0 378 0 q 125 0 208 0 m 461 725 q 415 725 439 725 q 368 725 392 725 q 368 653 368 690 q 368 581 368 617 q 455 581 411 581 q 542 581 499 581 q 542 473 542 528 q 542 365 542 418 q 455 365 499 365 q 368 365 411 365 q 368 292 368 329 q 368 219 368 256 q 415 219 392 219 q 461 219 439 219 q 582 253 531 219 q 661 344 633 286 q 689 474 689 401 q 661 603 689 546 q 582 692 633 660 q 461 725 531 725 z "},"É":{"ha":733,"x_min":90,"x_max":657,"o":"m 90 0 q 90 472 90 233 q 90 944 90 711 q 374 944 231 944 q 657 944 517 944 q 657 836 657 892 q 657 728 657 781 q 495 728 576 728 q 333 728 414 728 q 333 659 333 693 q 333 590 333 625 q 482 590 407 590 q 629 590 557 590 q 629 486 629 539 q 629 381 629 433 q 482 381 557 381 q 333 381 407 381 q 333 299 333 340 q 333 217 333 257 q 495 217 414 217 q 657 217 576 217 q 657 108 657 164 q 657 0 657 53 q 374 0 517 0 q 90 0 231 0 m 258 1032 q 327 1148 293 1089 q 396 1264 361 1207 q 518 1264 457 1264 q 639 1264 579 1264 q 555 1148 597 1207 q 471 1032 513 1089 q 365 1032 419 1032 q 258 1032 311 1032 z "},"Ĕ":{"ha":733,"x_min":90,"x_max":657,"o":"m 90 0 q 90 472 90 233 q 90 944 90 711 q 374 944 231 944 q 657 944 517 944 q 657 836 657 892 q 657 728 657 781 q 495 728 576 728 q 333 728 414 728 q 333 659 333 693 q 333 590 333 625 q 482 590 407 590 q 629 590 557 590 q 629 486 629 539 q 629 381 629 433 q 482 381 557 381 q 333 381 407 381 q 333 299 333 340 q 333 217 333 257 q 495 217 414 217 q 657 217 576 217 q 657 108 657 164 q 657 0 657 53 q 374 0 517 0 q 90 0 231 0 m 374 1019 q 374 1019 374 1019 q 374 1019 374 1019 q 267 1038 314 1019 q 188 1088 221 1056 q 137 1164 154 1119 q 119 1260 119 1208 q 201 1260 160 1260 q 283 1260 243 1260 q 307 1201 283 1224 q 374 1179 331 1179 q 441 1201 418 1179 q 464 1260 464 1224 q 546 1260 504 1260 q 628 1260 588 1260 q 610 1164 628 1208 q 560 1088 593 1119 q 481 1038 528 1056 q 374 1019 433 1019 z "},"Ě":{"ha":733,"x_min":90,"x_max":657,"o":"m 90 0 q 90 472 90 233 q 90 944 90 711 q 374 944 231 944 q 657 944 517 944 q 657 836 657 892 q 657 728 657 781 q 495 728 576 728 q 333 728 414 728 q 333 659 333 693 q 333 590 333 625 q 482 590 407 590 q 629 590 557 590 q 629 486 629 539 q 629 381 629 433 q 482 381 557 381 q 333 381 407 381 q 333 299 333 340 q 333 217 333 257 q 495 217 414 217 q 657 217 576 217 q 657 108 657 164 q 657 0 657 53 q 374 0 517 0 q 90 0 231 0 m 650 1264 q 573 1148 611 1207 q 496 1032 535 1089 q 374 1032 436 1032 q 251 1032 313 1032 q 174 1148 213 1089 q 97 1264 136 1207 q 203 1264 150 1264 q 308 1264 257 1264 q 341 1213 325 1239 q 374 1163 357 1188 q 406 1213 390 1188 q 439 1264 422 1239 q 545 1264 492 1264 q 650 1264 599 1264 z "},"Ȩ":{"ha":733,"x_min":90,"x_max":657,"o":"m 90 0 q 90 472 90 233 q 90 944 90 711 q 374 944 231 944 q 657 944 517 944 q 657 836 657 892 q 657 728 657 781 q 495 728 576 728 q 333 728 414 728 q 333 659 333 693 q 333 590 333 625 q 482 590 407 590 q 629 590 557 590 q 629 486 629 539 q 629 381 629 433 q 482 381 557 381 q 333 381 407 381 q 333 299 333 340 q 333 217 333 257 q 495 217 414 217 q 657 217 576 217 q 657 108 657 164 q 657 0 657 53 q 543 0 601 0 q 428 0 485 0 q 429 -21 429 -10 q 429 -43 429 -32 q 526 -91 489 -58 q 563 -183 563 -124 q 519 -287 563 -249 q 399 -331 476 -325 q 218 -307 321 -336 q 218 -242 218 -275 q 218 -179 218 -210 q 360 -203 308 -207 q 413 -172 413 -199 q 385 -143 413 -151 q 290 -140 357 -135 q 292 -70 292 -106 q 293 0 293 -35 q 192 0 243 0 q 90 0 140 0 z "},"Ḝ":{"ha":733,"x_min":90,"x_max":657,"o":"m 90 0 q 90 472 90 233 q 90 944 90 711 q 374 944 231 944 q 657 944 517 944 q 657 836 657 892 q 657 728 657 781 q 495 728 576 728 q 333 728 414 728 q 333 659 333 693 q 333 590 333 625 q 482 590 407 590 q 629 590 557 590 q 629 486 629 539 q 629 381 629 433 q 482 381 557 381 q 333 381 407 381 q 333 299 333 340 q 333 217 333 257 q 495 217 414 217 q 657 217 576 217 q 657 108 657 164 q 657 0 657 53 q 543 0 601 0 q 428 0 485 0 q 429 -21 429 -10 q 429 -43 429 -32 q 526 -91 489 -58 q 563 -183 563 -124 q 519 -287 563 -249 q 399 -331 476 -325 q 218 -307 321 -336 q 218 -242 218 -275 q 218 -179 218 -210 q 360 -203 308 -207 q 413 -172 413 -199 q 385 -143 413 -151 q 290 -140 357 -135 q 292 -70 292 -106 q 293 0 293 -35 q 192 0 243 0 q 90 0 140 0 m 374 1019 q 374 1019 374 1019 q 374 1019 374 1019 q 267 1038 314 1019 q 188 1088 221 1056 q 137 1164 154 1119 q 119 1260 119 1208 q 201 1260 160 1260 q 283 1260 243 1260 q 307 1201 283 1224 q 374 1179 331 1179 q 441 1201 418 1179 q 464 1260 464 1224 q 546 1260 504 1260 q 628 1260 588 1260 q 610 1164 628 1208 q 560 1088 593 1119 q 481 1038 528 1056 q 374 1019 433 1019 z "},"Ê":{"ha":733,"x_min":90,"x_max":657,"o":"m 90 0 q 90 472 90 233 q 90 944 90 711 q 374 944 231 944 q 657 944 517 944 q 657 836 657 892 q 657 728 657 781 q 495 728 576 728 q 333 728 414 728 q 333 659 333 693 q 333 590 333 625 q 482 590 407 590 q 629 590 557 590 q 629 486 629 539 q 629 381 629 433 q 482 381 557 381 q 333 381 407 381 q 333 299 333 340 q 333 217 333 257 q 495 217 414 217 q 657 217 576 217 q 657 108 657 164 q 657 0 657 53 q 374 0 517 0 q 90 0 231 0 m 99 1032 q 176 1141 138 1086 q 253 1250 214 1196 q 376 1250 314 1250 q 497 1250 438 1250 q 574 1141 536 1196 q 651 1032 613 1086 q 547 1032 600 1032 q 440 1032 493 1032 q 408 1080 424 1056 q 375 1128 392 1104 q 342 1080 358 1104 q 310 1032 326 1056 q 205 1032 258 1032 q 99 1032 151 1032 z "},"Ế":{"ha":733,"x_min":90,"x_max":908,"o":"m 90 0 q 90 472 90 233 q 90 944 90 711 q 374 944 231 944 q 657 944 517 944 q 657 836 657 892 q 657 728 657 781 q 495 728 576 728 q 333 728 414 728 q 333 659 333 693 q 333 590 333 625 q 482 590 407 590 q 629 590 557 590 q 629 486 629 539 q 629 381 629 433 q 482 381 557 381 q 333 381 407 381 q 333 299 333 340 q 333 217 333 257 q 495 217 414 217 q 657 217 576 217 q 657 108 657 164 q 657 0 657 53 q 374 0 517 0 q 90 0 231 0 m 99 1032 q 176 1141 138 1086 q 253 1250 214 1196 q 376 1250 314 1250 q 497 1250 438 1250 q 574 1141 536 1196 q 651 1032 613 1086 q 547 1032 600 1032 q 440 1032 493 1032 q 408 1080 424 1056 q 375 1128 392 1104 q 342 1080 358 1104 q 310 1032 326 1056 q 205 1032 258 1032 q 99 1032 151 1032 m 528 1258 q 597 1374 563 1315 q 665 1490 631 1433 q 788 1490 726 1490 q 908 1490 849 1490 q 824 1374 867 1433 q 740 1258 782 1315 q 635 1258 689 1258 q 528 1258 581 1258 z "},"Ệ":{"ha":733,"x_min":90,"x_max":657,"o":"m 90 0 q 90 472 90 233 q 90 944 90 711 q 374 944 231 944 q 657 944 517 944 q 657 836 657 892 q 657 728 657 781 q 495 728 576 728 q 333 728 414 728 q 333 659 333 693 q 333 590 333 625 q 482 590 407 590 q 629 590 557 590 q 629 486 629 539 q 629 381 629 433 q 482 381 557 381 q 333 381 407 381 q 333 299 333 340 q 333 217 333 257 q 495 217 414 217 q 657 217 576 217 q 657 108 657 164 q 657 0 657 53 q 374 0 517 0 q 90 0 231 0 m 99 1032 q 176 1141 138 1086 q 253 1250 214 1196 q 376 1250 314 1250 q 497 1250 438 1250 q 574 1141 536 1196 q 651 1032 613 1086 q 547 1032 600 1032 q 440 1032 493 1032 q 408 1080 424 1056 q 375 1128 392 1104 q 342 1080 358 1104 q 310 1032 326 1056 q 205 1032 258 1032 q 99 1032 151 1032 m 374 -82 q 374 -82 374 -82 q 374 -82 374 -82 q 445 -101 413 -82 q 497 -153 478 -121 q 517 -224 517 -185 q 497 -293 517 -261 q 445 -344 478 -325 q 374 -364 413 -364 q 301 -344 333 -364 q 249 -293 268 -325 q 229 -224 229 -261 q 249 -153 229 -185 q 301 -101 268 -121 q 374 -82 333 -82 z "},"Ề":{"ha":733,"x_min":90,"x_max":758,"o":"m 90 0 q 90 472 90 233 q 90 944 90 711 q 374 944 231 944 q 657 944 517 944 q 657 836 657 892 q 657 728 657 781 q 495 728 576 728 q 333 728 414 728 q 333 659 333 693 q 333 590 333 625 q 482 590 407 590 q 629 590 557 590 q 629 486 629 539 q 629 381 629 433 q 482 381 557 381 q 333 381 407 381 q 333 299 333 340 q 333 217 333 257 q 495 217 414 217 q 657 217 576 217 q 657 108 657 164 q 657 0 657 53 q 374 0 517 0 q 90 0 231 0 m 99 1032 q 176 1141 138 1086 q 253 1250 214 1196 q 376 1250 314 1250 q 497 1250 438 1250 q 574 1141 536 1196 q 651 1032 613 1086 q 547 1032 600 1032 q 440 1032 493 1032 q 408 1080 424 1056 q 375 1128 392 1104 q 342 1080 358 1104 q 310 1032 326 1056 q 205 1032 258 1032 q 99 1032 151 1032 m 758 1258 q 653 1258 707 1258 q 546 1258 599 1258 q 462 1374 504 1315 q 378 1490 419 1433 q 501 1490 439 1490 q 622 1490 563 1490 q 690 1374 656 1433 q 758 1258 725 1315 z "},"Ể":{"ha":733,"x_min":90,"x_max":803,"o":"m 90 0 q 90 472 90 233 q 90 944 90 711 q 374 944 231 944 q 657 944 517 944 q 657 836 657 892 q 657 728 657 781 q 495 728 576 728 q 333 728 414 728 q 333 659 333 693 q 333 590 333 625 q 482 590 407 590 q 629 590 557 590 q 629 486 629 539 q 629 381 629 433 q 482 381 557 381 q 333 381 407 381 q 333 299 333 340 q 333 217 333 257 q 495 217 414 217 q 657 217 576 217 q 657 108 657 164 q 657 0 657 53 q 374 0 517 0 q 90 0 231 0 m 99 1032 q 176 1141 138 1086 q 253 1250 214 1196 q 376 1250 314 1250 q 497 1250 438 1250 q 574 1141 536 1196 q 651 1032 613 1086 q 547 1032 600 1032 q 440 1032 493 1032 q 408 1080 424 1056 q 375 1128 392 1104 q 342 1080 358 1104 q 310 1032 326 1056 q 205 1032 258 1032 q 99 1032 151 1032 m 550 1340 q 550 1340 550 1340 q 550 1340 550 1340 q 625 1359 603 1347 q 647 1390 647 1371 q 606 1431 647 1424 q 513 1422 565 1438 q 513 1492 513 1457 q 513 1561 513 1526 q 664 1571 599 1582 q 766 1520 729 1560 q 803 1415 803 1481 q 769 1311 803 1350 q 677 1253 735 1272 q 550 1228 619 1235 q 550 1284 550 1256 q 550 1340 550 1313 z "},"Ễ":{"ha":733,"x_min":90,"x_max":657,"o":"m 90 0 q 90 472 90 233 q 90 944 90 711 q 374 944 231 944 q 657 944 517 944 q 657 836 657 892 q 657 728 657 781 q 495 728 576 728 q 333 728 414 728 q 333 659 333 693 q 333 590 333 625 q 482 590 407 590 q 629 590 557 590 q 629 486 629 539 q 629 381 629 433 q 482 381 557 381 q 333 381 407 381 q 333 299 333 340 q 333 217 333 257 q 495 217 414 217 q 657 217 576 217 q 657 108 657 164 q 657 0 657 53 q 374 0 517 0 q 90 0 231 0 m 99 1032 q 176 1141 138 1086 q 253 1250 214 1196 q 376 1250 314 1250 q 497 1250 438 1250 q 574 1141 536 1196 q 651 1032 613 1086 q 547 1032 600 1032 q 440 1032 493 1032 q 408 1080 424 1056 q 375 1128 392 1104 q 342 1080 358 1104 q 310 1032 326 1056 q 205 1032 258 1032 q 99 1032 151 1032 m 499 1536 q 563 1536 531 1536 q 625 1536 594 1536 q 615 1433 625 1476 q 585 1360 604 1389 q 538 1317 565 1331 q 474 1303 510 1303 q 401 1319 429 1303 q 351 1352 372 1336 q 303 1368 329 1368 q 272 1352 282 1368 q 260 1308 261 1336 q 197 1308 229 1308 q 133 1308 165 1308 q 144 1412 133 1368 q 174 1485 154 1456 q 221 1528 193 1514 q 283 1542 249 1542 q 358 1526 329 1542 q 408 1494 386 1510 q 456 1478 431 1478 q 488 1494 476 1478 q 499 1536 499 1511 z "},"Ë":{"ha":733,"x_min":67,"x_max":682,"o":"m 90 0 q 90 472 90 233 q 90 944 90 711 q 374 944 231 944 q 657 944 517 944 q 657 836 657 892 q 657 728 657 781 q 495 728 576 728 q 333 728 414 728 q 333 659 333 693 q 333 590 333 625 q 482 590 407 590 q 629 590 557 590 q 629 486 629 539 q 629 381 629 433 q 482 381 557 381 q 333 381 407 381 q 333 299 333 340 q 333 217 333 257 q 495 217 414 217 q 657 217 576 217 q 657 108 657 164 q 657 0 657 53 q 374 0 517 0 q 90 0 231 0 m 211 1026 q 211 1026 211 1026 q 211 1026 211 1026 q 138 1046 171 1026 q 86 1097 106 1065 q 67 1168 67 1129 q 86 1238 67 1207 q 138 1289 106 1269 q 211 1308 171 1308 q 283 1289 250 1308 q 335 1238 315 1269 q 354 1168 354 1207 q 335 1097 354 1129 q 283 1046 315 1065 q 211 1026 250 1026 m 539 1026 q 539 1026 539 1026 q 539 1026 539 1026 q 466 1046 499 1026 q 414 1097 433 1065 q 394 1168 394 1129 q 414 1238 394 1207 q 466 1289 433 1269 q 539 1308 499 1308 q 610 1289 578 1308 q 663 1238 643 1269 q 682 1168 682 1207 q 663 1097 682 1129 q 610 1046 643 1065 q 539 1026 578 1026 z "},"Ė":{"ha":733,"x_min":90,"x_max":657,"o":"m 90 0 q 90 472 90 233 q 90 944 90 711 q 374 944 231 944 q 657 944 517 944 q 657 836 657 892 q 657 728 657 781 q 495 728 576 728 q 333 728 414 728 q 333 659 333 693 q 333 590 333 625 q 482 590 407 590 q 629 590 557 590 q 629 486 629 539 q 629 381 629 433 q 482 381 557 381 q 333 381 407 381 q 333 299 333 340 q 333 217 333 257 q 495 217 414 217 q 657 217 576 217 q 657 108 657 164 q 657 0 657 53 q 374 0 517 0 q 90 0 231 0 m 374 1026 q 374 1026 374 1026 q 374 1026 374 1026 q 301 1046 333 1026 q 249 1097 268 1065 q 229 1168 229 1129 q 249 1238 229 1207 q 301 1289 268 1269 q 374 1308 333 1308 q 445 1289 413 1308 q 497 1238 478 1269 q 517 1168 517 1207 q 497 1097 517 1129 q 445 1046 478 1065 q 374 1026 413 1026 z "},"Ẹ":{"ha":733,"x_min":90,"x_max":657,"o":"m 90 0 q 90 472 90 233 q 90 944 90 711 q 374 944 231 944 q 657 944 517 944 q 657 836 657 892 q 657 728 657 781 q 495 728 576 728 q 333 728 414 728 q 333 659 333 693 q 333 590 333 625 q 482 590 407 590 q 629 590 557 590 q 629 486 629 539 q 629 381 629 433 q 482 381 557 381 q 333 381 407 381 q 333 299 333 340 q 333 217 333 257 q 495 217 414 217 q 657 217 576 217 q 657 108 657 164 q 657 0 657 53 q 374 0 517 0 q 90 0 231 0 m 374 -82 q 374 -82 374 -82 q 374 -82 374 -82 q 445 -101 413 -82 q 497 -153 478 -121 q 517 -224 517 -185 q 497 -293 517 -261 q 445 -344 478 -325 q 374 -364 413 -364 q 301 -344 333 -364 q 249 -293 268 -325 q 229 -224 229 -261 q 249 -153 229 -185 q 301 -101 268 -121 q 374 -82 333 -82 z "},"Ȅ":{"ha":733,"x_min":-4,"x_max":657,"o":"m 90 0 q 90 472 90 233 q 90 944 90 711 q 374 944 231 944 q 657 944 517 944 q 657 836 657 892 q 657 728 657 781 q 495 728 576 728 q 333 728 414 728 q 333 659 333 693 q 333 590 333 625 q 482 590 407 590 q 629 590 557 590 q 629 486 629 539 q 629 381 629 433 q 482 381 557 381 q 333 381 407 381 q 333 299 333 340 q 333 217 333 257 q 495 217 414 217 q 657 217 576 217 q 657 108 657 164 q 657 0 657 53 q 374 0 517 0 q 90 0 231 0 m 368 1032 q 273 1032 321 1032 q 176 1032 225 1032 q 86 1148 132 1089 q -4 1264 40 1207 q 108 1264 51 1264 q 219 1264 164 1264 q 294 1148 256 1207 q 368 1032 332 1089 m 617 1032 q 521 1032 569 1032 q 424 1032 472 1032 q 346 1148 385 1089 q 268 1264 307 1207 q 381 1264 324 1264 q 493 1264 438 1264 q 555 1148 524 1207 q 617 1032 586 1089 z "},"È":{"ha":733,"x_min":90,"x_max":657,"o":"m 90 0 q 90 472 90 233 q 90 944 90 711 q 374 944 231 944 q 657 944 517 944 q 657 836 657 892 q 657 728 657 781 q 495 728 576 728 q 333 728 414 728 q 333 659 333 693 q 333 590 333 625 q 482 590 407 590 q 629 590 557 590 q 629 486 629 539 q 629 381 629 433 q 482 381 557 381 q 333 381 407 381 q 333 299 333 340 q 333 217 333 257 q 495 217 414 217 q 657 217 576 217 q 657 108 657 164 q 657 0 657 53 q 374 0 517 0 q 90 0 231 0 m 489 1032 q 383 1032 438 1032 q 276 1032 329 1032 q 192 1148 235 1089 q 108 1264 150 1207 q 231 1264 169 1264 q 353 1264 293 1264 q 421 1148 386 1207 q 489 1032 456 1089 z "},"Ẻ":{"ha":733,"x_min":90,"x_max":657,"o":"m 90 0 q 90 472 90 233 q 90 944 90 711 q 374 944 231 944 q 657 944 517 944 q 657 836 657 892 q 657 728 657 781 q 495 728 576 728 q 333 728 414 728 q 333 659 333 693 q 333 590 333 625 q 482 590 407 590 q 629 590 557 590 q 629 486 629 539 q 629 381 629 433 q 482 381 557 381 q 333 381 407 381 q 333 299 333 340 q 333 217 333 257 q 495 217 414 217 q 657 217 576 217 q 657 108 657 164 q 657 0 657 53 q 374 0 517 0 q 90 0 231 0 m 281 1114 q 281 1114 281 1114 q 281 1114 281 1114 q 356 1133 333 1121 q 378 1164 378 1144 q 337 1204 378 1197 q 243 1196 296 1211 q 243 1265 243 1231 q 243 1335 243 1300 q 394 1344 329 1356 q 497 1294 460 1333 q 533 1189 533 1254 q 499 1085 533 1124 q 408 1027 465 1046 q 281 1001 350 1008 q 281 1058 281 1029 q 281 1114 281 1086 z "},"Ȇ":{"ha":733,"x_min":90,"x_max":657,"o":"m 90 0 q 90 472 90 233 q 90 944 90 711 q 374 944 231 944 q 657 944 517 944 q 657 836 657 892 q 657 728 657 781 q 495 728 576 728 q 333 728 414 728 q 333 659 333 693 q 333 590 333 625 q 482 590 407 590 q 629 590 557 590 q 629 486 629 539 q 629 381 629 433 q 482 381 557 381 q 333 381 407 381 q 333 299 333 340 q 333 217 333 257 q 495 217 414 217 q 657 217 576 217 q 657 108 657 164 q 657 0 657 53 q 374 0 517 0 q 90 0 231 0 m 374 1272 q 374 1272 374 1272 q 374 1272 374 1272 q 481 1254 433 1272 q 560 1203 528 1236 q 610 1127 593 1171 q 628 1032 628 1083 q 546 1032 588 1032 q 464 1032 504 1032 q 441 1090 464 1068 q 374 1113 418 1113 q 307 1090 331 1113 q 283 1032 283 1068 q 201 1032 243 1032 q 119 1032 160 1032 q 137 1127 119 1083 q 188 1203 154 1171 q 267 1254 221 1236 q 374 1272 314 1272 z "},"Ē":{"ha":733,"x_min":90,"x_max":657,"o":"m 90 0 q 90 472 90 233 q 90 944 90 711 q 374 944 231 944 q 657 944 517 944 q 657 836 657 892 q 657 728 657 781 q 495 728 576 728 q 333 728 414 728 q 333 659 333 693 q 333 590 333 625 q 482 590 407 590 q 629 590 557 590 q 629 486 629 539 q 629 381 629 433 q 482 381 557 381 q 333 381 407 381 q 333 299 333 340 q 333 217 333 257 q 495 217 414 217 q 657 217 576 217 q 657 108 657 164 q 657 0 657 53 q 374 0 517 0 q 90 0 231 0 m 143 1032 q 143 1123 143 1076 q 143 1214 143 1169 q 375 1214 258 1214 q 606 1214 492 1214 q 606 1123 606 1169 q 606 1032 606 1076 q 375 1032 492 1032 q 143 1032 258 1032 z "},"Ḗ":{"ha":733,"x_min":90,"x_max":657,"o":"m 90 0 q 90 472 90 233 q 90 944 90 711 q 374 944 231 944 q 657 944 517 944 q 657 836 657 892 q 657 728 657 781 q 495 728 576 728 q 333 728 414 728 q 333 659 333 693 q 333 590 333 625 q 482 590 407 590 q 629 590 557 590 q 629 486 629 539 q 629 381 629 433 q 482 381 557 381 q 333 381 407 381 q 333 299 333 340 q 333 217 333 257 q 495 217 414 217 q 657 217 576 217 q 657 108 657 164 q 657 0 657 53 q 374 0 517 0 q 90 0 231 0 m 143 1032 q 143 1123 143 1076 q 143 1214 143 1169 q 375 1214 258 1214 q 606 1214 492 1214 q 606 1123 606 1169 q 606 1032 606 1076 q 375 1032 492 1032 q 143 1032 258 1032 m 499 1503 q 563 1503 531 1503 q 625 1503 594 1503 q 615 1399 625 1443 q 585 1326 604 1356 q 538 1283 565 1297 q 474 1269 510 1269 q 401 1286 429 1269 q 351 1319 372 1303 q 303 1335 329 1335 q 272 1319 282 1335 q 260 1275 261 1303 q 197 1275 229 1275 q 133 1275 165 1275 q 144 1378 133 1335 q 174 1451 154 1422 q 221 1494 193 1481 q 283 1508 249 1508 q 358 1492 329 1508 q 408 1460 386 1476 q 456 1444 431 1444 q 488 1461 476 1444 q 499 1503 499 1478 z "},"Ḕ":{"ha":733,"x_min":90,"x_max":657,"o":"m 90 0 q 90 472 90 233 q 90 944 90 711 q 374 944 231 944 q 657 944 517 944 q 657 836 657 892 q 657 728 657 781 q 495 728 576 728 q 333 728 414 728 q 333 659 333 693 q 333 590 333 625 q 482 590 407 590 q 629 590 557 590 q 629 486 629 539 q 629 381 629 433 q 482 381 557 381 q 333 381 407 381 q 333 299 333 340 q 333 217 333 257 q 495 217 414 217 q 657 217 576 217 q 657 108 657 164 q 657 0 657 53 q 374 0 517 0 q 90 0 231 0 m 143 1032 q 143 1123 143 1076 q 143 1214 143 1169 q 375 1214 258 1214 q 606 1214 492 1214 q 606 1123 606 1169 q 606 1032 606 1076 q 375 1032 492 1032 q 143 1032 258 1032 m 489 1278 q 383 1278 438 1278 q 276 1278 329 1278 q 192 1394 235 1335 q 108 1510 150 1453 q 231 1510 169 1510 q 353 1510 293 1510 q 421 1394 386 1453 q 489 1278 456 1335 z "},"Ę":{"ha":733,"x_min":90,"x_max":657,"o":"m 90 0 q 90 472 90 233 q 90 944 90 711 q 374 944 231 944 q 657 944 517 944 q 657 836 657 892 q 657 728 657 781 q 495 728 576 728 q 333 728 414 728 q 333 659 333 693 q 333 590 333 625 q 482 590 407 590 q 629 590 557 590 q 629 486 629 539 q 629 381 629 433 q 482 381 557 381 q 333 381 407 381 q 333 299 333 340 q 333 217 333 257 q 495 217 414 217 q 657 217 576 217 q 657 108 657 164 q 657 0 657 53 q 556 -36 589 -21 q 522 -75 522 -51 q 560 -106 522 -103 q 657 -92 597 -110 q 657 -170 657 -131 q 657 -249 657 -210 q 486 -272 556 -283 q 381 -219 417 -261 q 344 -122 344 -176 q 358 -58 344 -89 q 403 0 371 -26 q 247 0 326 0 q 90 0 168 0 z "},"Ẽ":{"ha":733,"x_min":90,"x_max":657,"o":"m 90 0 q 90 472 90 233 q 90 944 90 711 q 374 944 231 944 q 657 944 517 944 q 657 836 657 892 q 657 728 657 781 q 495 728 576 728 q 333 728 414 728 q 333 659 333 693 q 333 590 333 625 q 482 590 407 590 q 629 590 557 590 q 629 486 629 539 q 629 381 629 433 q 482 381 557 381 q 333 381 407 381 q 333 299 333 340 q 333 217 333 257 q 495 217 414 217 q 657 217 576 217 q 657 108 657 164 q 657 0 657 53 q 374 0 517 0 q 90 0 231 0 m 499 1257 q 563 1257 531 1257 q 625 1257 594 1257 q 615 1153 625 1197 q 585 1081 604 1110 q 538 1038 565 1051 q 474 1024 510 1024 q 401 1040 429 1024 q 351 1073 372 1057 q 303 1089 329 1089 q 272 1073 282 1089 q 260 1029 261 1057 q 197 1029 229 1029 q 133 1029 165 1029 q 144 1133 133 1089 q 174 1206 154 1176 q 221 1249 193 1235 q 283 1263 249 1263 q 358 1247 329 1263 q 408 1215 386 1231 q 456 1199 431 1199 q 488 1215 476 1199 q 499 1257 499 1232 z "},"Ğ":{"ha":939,"x_min":43,"x_max":853,"o":"m 853 50 q 853 50 853 50 q 853 50 853 50 q 584 -17 708 -8 q 360 6 460 -26 q 189 106 260 39 q 81 264 118 172 q 43 464 43 356 q 78 662 43 571 q 180 819 113 753 q 343 924 247 886 q 561 960 439 961 q 829 915 683 960 q 829 798 829 857 q 829 681 829 739 q 616 733 714 726 q 445 713 518 740 q 331 624 372 685 q 290 474 290 564 q 320 333 290 394 q 404 238 350 272 q 528 203 458 203 q 575 205 551 203 q 621 213 599 207 q 621 286 621 249 q 621 360 621 324 q 543 360 582 360 q 465 360 504 360 q 465 463 465 411 q 465 567 465 515 q 659 567 561 567 q 853 567 757 567 q 853 308 853 439 q 853 50 853 178 m 510 1021 q 510 1021 510 1021 q 510 1021 510 1021 q 403 1039 450 1021 q 324 1089 357 1057 q 273 1165 290 1121 q 256 1261 256 1210 q 338 1261 296 1261 q 419 1261 379 1261 q 443 1203 419 1225 q 510 1181 467 1181 q 577 1203 554 1181 q 600 1261 600 1225 q 682 1261 640 1261 q 764 1261 724 1261 q 747 1165 764 1210 q 697 1089 729 1121 q 617 1039 664 1057 q 510 1021 569 1021 z "},"Ǧ":{"ha":939,"x_min":43,"x_max":853,"o":"m 853 50 q 853 50 853 50 q 853 50 853 50 q 584 -17 708 -8 q 360 6 460 -26 q 189 106 260 39 q 81 264 118 172 q 43 464 43 356 q 78 662 43 571 q 180 819 113 753 q 343 924 247 886 q 561 960 439 961 q 829 915 683 960 q 829 798 829 857 q 829 681 829 739 q 616 733 714 726 q 445 713 518 740 q 331 624 372 685 q 290 474 290 564 q 320 333 290 394 q 404 238 350 272 q 528 203 458 203 q 575 205 551 203 q 621 213 599 207 q 621 286 621 249 q 621 360 621 324 q 543 360 582 360 q 465 360 504 360 q 465 463 465 411 q 465 567 465 515 q 659 567 561 567 q 853 567 757 567 q 853 308 853 439 q 853 50 853 178 m 786 1265 q 709 1149 747 1208 q 632 1033 671 1090 q 510 1033 572 1033 q 388 1033 449 1033 q 310 1149 349 1090 q 233 1265 272 1208 q 340 1265 286 1265 q 444 1265 393 1265 q 477 1215 461 1240 q 510 1164 493 1189 q 542 1215 526 1189 q 575 1265 558 1240 q 681 1265 628 1265 q 786 1265 735 1265 z "},"Ģ":{"ha":939,"x_min":43,"x_max":853,"o":"m 853 50 q 853 50 853 50 q 853 50 853 50 q 584 -17 708 -8 q 360 6 460 -26 q 189 106 260 39 q 81 264 118 172 q 43 464 43 356 q 78 662 43 571 q 180 819 113 753 q 343 924 247 886 q 561 960 439 961 q 829 915 683 960 q 829 798 829 857 q 829 681 829 739 q 616 733 714 726 q 445 713 518 740 q 331 624 372 685 q 290 474 290 564 q 320 333 290 394 q 404 238 350 272 q 528 203 458 203 q 575 205 551 203 q 621 213 599 207 q 621 286 621 249 q 621 360 621 324 q 543 360 582 360 q 465 360 504 360 q 465 463 465 411 q 465 567 465 515 q 659 567 561 567 q 853 567 757 567 q 853 308 853 439 q 853 50 853 178 m 379 -314 q 404 -200 392 -257 q 429 -87 417 -143 q 535 -87 482 -87 q 640 -87 589 -87 q 600 -200 621 -143 q 560 -314 579 -257 q 469 -314 515 -314 q 379 -314 424 -314 z "},"Ĝ":{"ha":939,"x_min":43,"x_max":853,"o":"m 853 50 q 853 50 853 50 q 853 50 853 50 q 584 -17 708 -8 q 360 6 460 -26 q 189 106 260 39 q 81 264 118 172 q 43 464 43 356 q 78 662 43 571 q 180 819 113 753 q 343 924 247 886 q 561 960 439 961 q 829 915 683 960 q 829 798 829 857 q 829 681 829 739 q 616 733 714 726 q 445 713 518 740 q 331 624 372 685 q 290 474 290 564 q 320 333 290 394 q 404 238 350 272 q 528 203 458 203 q 575 205 551 203 q 621 213 599 207 q 621 286 621 249 q 621 360 621 324 q 543 360 582 360 q 465 360 504 360 q 465 463 465 411 q 465 567 465 515 q 659 567 561 567 q 853 567 757 567 q 853 308 853 439 q 853 50 853 178 m 235 1033 q 312 1142 274 1088 q 389 1251 350 1197 q 512 1251 450 1251 q 633 1251 574 1251 q 710 1142 672 1197 q 788 1033 749 1088 q 683 1033 736 1033 q 576 1033 629 1033 q 544 1081 560 1057 q 511 1129 528 1106 q 478 1081 494 1106 q 446 1033 463 1057 q 341 1033 394 1033 q 235 1033 288 1033 z "},"Ġ":{"ha":939,"x_min":43,"x_max":853,"o":"m 853 50 q 853 50 853 50 q 853 50 853 50 q 584 -17 708 -8 q 360 6 460 -26 q 189 106 260 39 q 81 264 118 172 q 43 464 43 356 q 78 662 43 571 q 180 819 113 753 q 343 924 247 886 q 561 960 439 961 q 829 915 683 960 q 829 798 829 857 q 829 681 829 739 q 616 733 714 726 q 445 713 518 740 q 331 624 372 685 q 290 474 290 564 q 320 333 290 394 q 404 238 350 272 q 528 203 458 203 q 575 205 551 203 q 621 213 599 207 q 621 286 621 249 q 621 360 621 324 q 543 360 582 360 q 465 360 504 360 q 465 463 465 411 q 465 567 465 515 q 659 567 561 567 q 853 567 757 567 q 853 308 853 439 q 853 50 853 178 m 510 1028 q 510 1028 510 1028 q 510 1028 510 1028 q 437 1047 469 1028 q 385 1099 404 1067 q 365 1169 365 1131 q 385 1240 365 1208 q 437 1290 404 1271 q 510 1310 469 1310 q 581 1290 549 1310 q 633 1240 614 1271 q 653 1169 653 1208 q 633 1099 653 1131 q 581 1047 614 1067 q 510 1028 549 1028 z "},"Ḡ":{"ha":939,"x_min":43,"x_max":853,"o":"m 853 50 q 853 50 853 50 q 853 50 853 50 q 584 -17 708 -8 q 360 6 460 -26 q 189 106 260 39 q 81 264 118 172 q 43 464 43 356 q 78 662 43 571 q 180 819 113 753 q 343 924 247 886 q 561 960 439 961 q 829 915 683 960 q 829 798 829 857 q 829 681 829 739 q 616 733 714 726 q 445 713 518 740 q 331 624 372 685 q 290 474 290 564 q 320 333 290 394 q 404 238 350 272 q 528 203 458 203 q 575 205 551 203 q 621 213 599 207 q 621 286 621 249 q 621 360 621 324 q 543 360 582 360 q 465 360 504 360 q 465 463 465 411 q 465 567 465 515 q 659 567 561 567 q 853 567 757 567 q 853 308 853 439 q 853 50 853 178 m 279 1033 q 279 1124 279 1078 q 279 1215 279 1171 q 511 1215 394 1215 q 742 1215 628 1215 q 742 1124 742 1171 q 742 1033 742 1078 q 511 1033 628 1033 q 279 1033 394 1033 z "},"Ḫ":{"ha":963,"x_min":90,"x_max":872,"o":"m 333 0 q 213 0 274 0 q 90 0 151 0 q 90 472 90 233 q 90 944 90 711 q 213 944 151 944 q 333 944 274 944 q 333 774 333 860 q 333 604 333 689 q 482 604 407 604 q 629 604 557 604 q 629 774 629 689 q 629 944 629 860 q 751 944 690 944 q 872 944 813 944 q 872 472 872 711 q 872 0 872 233 q 751 0 813 0 q 629 0 690 0 q 629 191 629 94 q 629 381 629 288 q 482 381 557 381 q 333 381 407 381 q 333 191 333 288 q 333 0 333 94 m 481 -335 q 481 -335 481 -335 q 481 -335 481 -335 q 374 -317 421 -335 q 294 -267 328 -299 q 244 -190 261 -235 q 226 -94 226 -146 q 308 -94 267 -94 q 390 -94 350 -94 q 414 -153 390 -131 q 481 -175 438 -175 q 548 -153 525 -175 q 571 -94 571 -131 q 653 -94 611 -94 q 735 -94 694 -94 q 717 -190 735 -146 q 667 -267 700 -235 q 588 -317 635 -299 q 481 -335 540 -335 z "},"Ĥ":{"ha":963,"x_min":90,"x_max":872,"o":"m 333 0 q 213 0 274 0 q 90 0 151 0 q 90 472 90 233 q 90 944 90 711 q 213 944 151 944 q 333 944 274 944 q 333 774 333 860 q 333 604 333 689 q 482 604 407 604 q 629 604 557 604 q 629 774 629 689 q 629 944 629 860 q 751 944 690 944 q 872 944 813 944 q 872 472 872 711 q 872 0 872 233 q 751 0 813 0 q 629 0 690 0 q 629 191 629 94 q 629 381 629 288 q 482 381 557 381 q 333 381 407 381 q 333 191 333 288 q 333 0 333 94 m 206 1032 q 283 1141 244 1086 q 360 1250 321 1196 q 483 1250 421 1250 q 604 1250 544 1250 q 681 1141 643 1196 q 758 1032 719 1086 q 653 1032 707 1032 q 547 1032 600 1032 q 515 1080 531 1056 q 482 1128 499 1104 q 449 1080 465 1104 q 417 1032 433 1056 q 312 1032 365 1032 q 206 1032 258 1032 z "},"Ḥ":{"ha":963,"x_min":90,"x_max":872,"o":"m 333 0 q 213 0 274 0 q 90 0 151 0 q 90 472 90 233 q 90 944 90 711 q 213 944 151 944 q 333 944 274 944 q 333 774 333 860 q 333 604 333 689 q 482 604 407 604 q 629 604 557 604 q 629 774 629 689 q 629 944 629 860 q 751 944 690 944 q 872 944 813 944 q 872 472 872 711 q 872 0 872 233 q 751 0 813 0 q 629 0 690 0 q 629 191 629 94 q 629 381 629 288 q 482 381 557 381 q 333 381 407 381 q 333 191 333 288 q 333 0 333 94 m 481 -82 q 481 -82 481 -82 q 481 -82 481 -82 q 552 -101 519 -82 q 604 -153 585 -121 q 624 -224 624 -185 q 604 -293 624 -261 q 552 -344 585 -325 q 481 -364 519 -364 q 408 -344 440 -364 q 356 -293 375 -325 q 336 -224 336 -261 q 356 -153 336 -185 q 408 -101 375 -121 q 481 -82 440 -82 z "},"Í":{"ha":438,"x_min":97,"x_max":485,"o":"m 97 0 q 97 472 97 233 q 97 944 97 711 q 219 944 158 944 q 340 944 281 944 q 340 472 340 711 q 340 0 340 233 q 219 0 281 0 q 97 0 158 0 m 104 1032 q 173 1148 139 1089 q 242 1264 207 1207 q 364 1264 303 1264 q 485 1264 425 1264 q 401 1148 443 1207 q 317 1032 358 1089 q 211 1032 265 1032 q 104 1032 157 1032 z "},"Ĭ":{"ha":438,"x_min":-35,"x_max":474,"o":"m 97 0 q 97 472 97 233 q 97 944 97 711 q 219 944 158 944 q 340 944 281 944 q 340 472 340 711 q 340 0 340 233 q 219 0 281 0 q 97 0 158 0 m 219 1019 q 219 1019 219 1019 q 219 1019 219 1019 q 113 1038 160 1019 q 33 1088 67 1056 q -17 1164 0 1119 q -35 1260 -35 1208 q 47 1260 6 1260 q 129 1260 89 1260 q 153 1201 129 1224 q 219 1179 176 1179 q 287 1201 264 1179 q 310 1260 310 1224 q 392 1260 350 1260 q 474 1260 433 1260 q 456 1164 474 1208 q 406 1088 439 1119 q 326 1038 374 1056 q 219 1019 279 1019 z "},"Î":{"ha":438,"x_min":-56,"x_max":497,"o":"m 97 0 q 97 472 97 233 q 97 944 97 711 q 219 944 158 944 q 340 944 281 944 q 340 472 340 711 q 340 0 340 233 q 219 0 281 0 q 97 0 158 0 m -56 1032 q 22 1141 -17 1086 q 99 1250 60 1196 q 222 1250 160 1250 q 343 1250 283 1250 q 420 1141 382 1196 q 497 1032 458 1086 q 392 1032 446 1032 q 286 1032 339 1032 q 253 1080 269 1056 q 221 1128 238 1104 q 188 1080 204 1104 q 156 1032 172 1056 q 51 1032 104 1032 q -56 1032 -3 1032 z "},"Ï":{"ha":438,"x_min":-87,"x_max":528,"o":"m 97 0 q 97 472 97 233 q 97 944 97 711 q 219 944 158 944 q 340 944 281 944 q 340 472 340 711 q 340 0 340 233 q 219 0 281 0 q 97 0 158 0 m 57 1026 q 57 1026 57 1026 q 57 1026 57 1026 q -16 1046 17 1026 q -68 1097 -49 1065 q -87 1168 -87 1129 q -68 1238 -87 1207 q -16 1289 -49 1269 q 57 1308 17 1308 q 128 1289 96 1308 q 181 1238 161 1269 q 200 1168 200 1207 q 181 1097 200 1129 q 128 1046 161 1065 q 57 1026 96 1026 m 385 1026 q 385 1026 385 1026 q 385 1026 385 1026 q 312 1046 344 1026 q 260 1097 279 1065 q 240 1168 240 1129 q 260 1238 240 1207 q 312 1289 279 1269 q 385 1308 344 1308 q 456 1289 424 1308 q 508 1238 489 1269 q 528 1168 528 1207 q 508 1097 528 1129 q 456 1046 489 1065 q 385 1026 424 1026 z "},"Ḯ":{"ha":438,"x_min":-87,"x_max":528,"o":"m 97 0 q 97 472 97 233 q 97 944 97 711 q 219 944 158 944 q 340 944 281 944 q 340 472 340 711 q 340 0 340 233 q 219 0 281 0 q 97 0 158 0 m 57 1026 q 57 1026 57 1026 q 57 1026 57 1026 q -16 1046 17 1026 q -68 1097 -49 1065 q -87 1168 -87 1129 q -68 1238 -87 1207 q -16 1289 -49 1269 q 57 1308 17 1308 q 128 1289 96 1308 q 181 1238 161 1269 q 200 1168 200 1207 q 181 1097 200 1129 q 128 1046 161 1065 q 57 1026 96 1026 m 385 1026 q 385 1026 385 1026 q 385 1026 385 1026 q 312 1046 344 1026 q 260 1097 279 1065 q 240 1168 240 1129 q 260 1238 240 1207 q 312 1289 279 1269 q 385 1308 344 1308 q 456 1289 424 1308 q 508 1238 489 1269 q 528 1168 528 1207 q 508 1097 528 1129 q 456 1046 489 1065 q 385 1026 424 1026 m 104 1347 q 173 1463 139 1404 q 242 1579 207 1522 q 364 1579 303 1579 q 485 1579 425 1579 q 401 1463 443 1522 q 317 1347 358 1404 q 211 1347 265 1347 q 104 1347 157 1347 z "},"İ":{"ha":438,"x_min":75,"x_max":363,"o":"m 97 0 q 97 472 97 233 q 97 944 97 711 q 219 944 158 944 q 340 944 281 944 q 340 472 340 711 q 340 0 340 233 q 219 0 281 0 q 97 0 158 0 m 219 1026 q 219 1026 219 1026 q 219 1026 219 1026 q 147 1046 179 1026 q 94 1097 114 1065 q 75 1168 75 1129 q 94 1238 75 1207 q 147 1289 114 1269 q 219 1308 179 1308 q 291 1289 258 1308 q 343 1238 324 1269 q 363 1168 363 1207 q 343 1097 363 1129 q 291 1046 324 1065 q 219 1026 258 1026 z "},"Ị":{"ha":438,"x_min":75,"x_max":363,"o":"m 97 0 q 97 472 97 233 q 97 944 97 711 q 219 944 158 944 q 340 944 281 944 q 340 472 340 711 q 340 0 340 233 q 219 0 281 0 q 97 0 158 0 m 219 -82 q 219 -82 219 -82 q 219 -82 219 -82 q 291 -101 258 -82 q 343 -153 324 -121 q 363 -224 363 -185 q 343 -293 363 -261 q 291 -344 324 -325 q 219 -364 258 -364 q 147 -344 179 -364 q 94 -293 114 -325 q 75 -224 75 -261 q 94 -153 75 -185 q 147 -101 114 -121 q 219 -82 179 -82 z "},"Ȉ":{"ha":438,"x_min":-158,"x_max":463,"o":"m 97 0 q 97 472 97 233 q 97 944 97 711 q 219 944 158 944 q 340 944 281 944 q 340 472 340 711 q 340 0 340 233 q 219 0 281 0 q 97 0 158 0 m 214 1032 q 119 1032 167 1032 q 22 1032 71 1032 q -68 1148 -22 1089 q -158 1264 -114 1207 q -47 1264 -103 1264 q 65 1264 10 1264 q 140 1148 101 1207 q 214 1032 178 1089 m 463 1032 q 367 1032 415 1032 q 269 1032 318 1032 q 192 1148 231 1089 q 114 1264 153 1207 q 226 1264 169 1264 q 339 1264 283 1264 q 401 1148 369 1207 q 463 1032 432 1089 z "},"Ì":{"ha":438,"x_min":-46,"x_max":340,"o":"m 97 0 q 97 472 97 233 q 97 944 97 711 q 219 944 158 944 q 340 944 281 944 q 340 472 340 711 q 340 0 340 233 q 219 0 281 0 q 97 0 158 0 m 335 1032 q 229 1032 283 1032 q 122 1032 175 1032 q 38 1148 81 1089 q -46 1264 -4 1207 q 77 1264 15 1264 q 199 1264 139 1264 q 267 1148 232 1207 q 335 1032 301 1089 z "},"Ỉ":{"ha":438,"x_min":89,"x_max":379,"o":"m 97 0 q 97 472 97 233 q 97 944 97 711 q 219 944 158 944 q 340 944 281 944 q 340 472 340 711 q 340 0 340 233 q 219 0 281 0 q 97 0 158 0 m 126 1114 q 126 1114 126 1114 q 126 1114 126 1114 q 201 1133 179 1121 q 224 1164 224 1144 q 183 1204 224 1197 q 89 1196 142 1211 q 89 1265 89 1231 q 89 1335 89 1300 q 240 1344 175 1356 q 342 1294 306 1333 q 379 1189 379 1254 q 345 1085 379 1124 q 253 1027 311 1046 q 126 1001 196 1008 q 126 1058 126 1029 q 126 1114 126 1086 z "},"Ȋ":{"ha":438,"x_min":-35,"x_max":474,"o":"m 97 0 q 97 472 97 233 q 97 944 97 711 q 219 944 158 944 q 340 944 281 944 q 340 472 340 711 q 340 0 340 233 q 219 0 281 0 q 97 0 158 0 m 219 1272 q 219 1272 219 1272 q 219 1272 219 1272 q 326 1254 279 1272 q 406 1203 374 1236 q 456 1127 439 1171 q 474 1032 474 1083 q 392 1032 433 1032 q 310 1032 350 1032 q 287 1090 310 1068 q 219 1113 264 1113 q 153 1090 176 1113 q 129 1032 129 1068 q 47 1032 89 1032 q -35 1032 6 1032 q -17 1127 -35 1083 q 33 1203 0 1171 q 113 1254 67 1236 q 219 1272 160 1272 z "},"Ī":{"ha":438,"x_min":-11,"x_max":451,"o":"m 97 0 q 97 472 97 233 q 97 944 97 711 q 219 944 158 944 q 340 944 281 944 q 340 472 340 711 q 340 0 340 233 q 219 0 281 0 q 97 0 158 0 m -11 1032 q -11 1123 -11 1076 q -11 1214 -11 1169 q 221 1214 104 1214 q 451 1214 338 1214 q 451 1123 451 1169 q 451 1032 451 1076 q 221 1032 338 1032 q -11 1032 104 1032 z "},"Ĩ":{"ha":438,"x_min":-21,"x_max":471,"o":"m 97 0 q 97 472 97 233 q 97 944 97 711 q 219 944 158 944 q 340 944 281 944 q 340 472 340 711 q 340 0 340 233 q 219 0 281 0 q 97 0 158 0 m 344 1257 q 408 1257 376 1257 q 471 1257 440 1257 q 460 1153 471 1197 q 431 1081 450 1110 q 383 1038 411 1051 q 319 1024 356 1024 q 247 1040 275 1024 q 197 1073 218 1057 q 149 1089 175 1089 q 117 1073 128 1089 q 106 1029 107 1057 q 43 1029 75 1029 q -21 1029 11 1029 q -10 1133 -21 1089 q 19 1206 0 1176 q 67 1249 39 1235 q 129 1263 94 1263 q 203 1247 175 1263 q 254 1215 232 1231 q 301 1199 276 1199 q 333 1215 322 1199 q 344 1257 344 1232 z "},"Ĵ":{"ha":603,"x_min":28,"x_max":681,"o":"m 526 326 q 526 326 526 326 q 526 326 526 326 q 499 157 526 231 q 413 40 472 83 q 258 -14 353 -4 q 28 7 164 -24 q 28 122 28 64 q 28 238 28 181 q 222 220 161 200 q 283 326 283 240 q 283 635 283 479 q 283 944 283 792 q 406 944 344 944 q 526 944 467 944 q 526 635 526 792 q 526 326 526 479 m 128 1032 q 205 1141 167 1086 q 282 1250 243 1196 q 405 1250 343 1250 q 526 1250 467 1250 q 603 1141 565 1196 q 681 1032 642 1086 q 576 1032 629 1032 q 469 1032 522 1032 q 437 1080 453 1056 q 404 1128 421 1104 q 372 1080 388 1104 q 339 1032 356 1056 q 234 1032 288 1032 q 128 1032 181 1032 z "},"Ķ":{"ha":896,"x_min":90,"x_max":910,"o":"m 90 0 q 90 472 90 233 q 90 944 90 711 q 213 944 151 944 q 333 944 274 944 q 333 762 333 854 q 333 579 333 669 q 476 762 404 669 q 618 944 547 854 q 756 944 686 944 q 893 944 825 944 q 716 720 806 833 q 539 496 626 607 q 724 249 631 374 q 910 0 818 124 q 765 0 838 0 q 619 0 692 0 q 476 198 549 99 q 333 394 404 297 q 333 198 333 297 q 333 0 333 99 q 213 0 274 0 q 90 0 151 0 m 342 -311 q 367 -197 354 -254 q 392 -85 379 -140 q 498 -85 444 -85 q 603 -85 551 -85 q 563 -197 583 -140 q 522 -311 542 -254 q 432 -311 478 -311 q 342 -311 386 -311 z "},"Ĺ":{"ha":671,"x_min":90,"x_max":629,"o":"m 90 0 q 90 472 90 233 q 90 944 90 711 q 213 944 151 944 q 333 944 274 944 q 333 583 333 765 q 333 221 333 400 q 482 221 407 221 q 629 221 557 221 q 629 110 629 167 q 629 0 629 54 q 360 0 496 0 q 90 0 224 0 m 143 1032 q 212 1148 178 1089 q 281 1264 246 1207 q 403 1264 342 1264 q 524 1264 464 1264 q 440 1148 482 1207 q 356 1032 397 1089 q 250 1032 304 1032 q 143 1032 196 1032 z "},"Ľ":{"ha":671,"x_min":90,"x_max":690,"o":"m 90 0 q 90 472 90 233 q 90 944 90 711 q 213 944 151 944 q 333 944 274 944 q 333 583 333 765 q 333 221 333 400 q 482 221 407 221 q 629 221 557 221 q 629 110 629 167 q 629 0 629 54 q 360 0 496 0 q 90 0 224 0 m 415 718 q 442 867 429 792 q 469 1014 456 942 q 580 1014 524 1014 q 690 1014 636 1014 q 653 867 672 942 q 615 718 635 792 q 515 718 565 718 q 415 718 465 718 z "},"Ļ":{"ha":671,"x_min":90,"x_max":629,"o":"m 90 0 q 90 472 90 233 q 90 944 90 711 q 213 944 151 944 q 333 944 274 944 q 333 583 333 765 q 333 221 333 400 q 482 221 407 221 q 629 221 557 221 q 629 110 629 167 q 629 0 629 54 q 360 0 496 0 q 90 0 224 0 m 229 -311 q 254 -197 242 -254 q 279 -85 267 -140 q 385 -85 332 -85 q 490 -85 439 -85 q 450 -197 471 -140 q 410 -311 429 -254 q 319 -311 365 -311 q 229 -311 274 -311 z "},"Ḷ":{"ha":671,"x_min":90,"x_max":629,"o":"m 90 0 q 90 472 90 233 q 90 944 90 711 q 213 944 151 944 q 333 944 274 944 q 333 583 333 765 q 333 221 333 400 q 482 221 407 221 q 629 221 557 221 q 629 110 629 167 q 629 0 629 54 q 360 0 496 0 q 90 0 224 0 m 360 -82 q 360 -82 360 -82 q 360 -82 360 -82 q 431 -101 399 -82 q 483 -153 464 -121 q 503 -224 503 -185 q 483 -293 503 -261 q 431 -344 464 -325 q 360 -364 399 -364 q 287 -344 319 -364 q 235 -293 254 -325 q 215 -224 215 -261 q 235 -153 215 -185 q 287 -101 254 -121 q 360 -82 319 -82 z "},"Ḻ":{"ha":671,"x_min":90,"x_max":629,"o":"m 90 0 q 90 472 90 233 q 90 944 90 711 q 213 944 151 944 q 333 944 274 944 q 333 583 333 765 q 333 221 333 400 q 482 221 407 221 q 629 221 557 221 q 629 110 629 167 q 629 0 629 54 q 360 0 496 0 q 90 0 224 0 m 129 -269 q 129 -178 129 -225 q 129 -87 129 -132 q 361 -87 244 -87 q 592 -87 478 -87 q 592 -178 592 -132 q 592 -269 592 -225 q 361 -269 478 -269 q 129 -269 244 -269 z "},"Ṃ":{"ha":1192,"x_min":90,"x_max":1101,"o":"m 90 0 q 90 472 90 233 q 90 944 90 711 q 264 944 176 944 q 438 944 351 944 q 517 658 478 803 q 596 371 557 513 q 674 658 635 513 q 753 944 714 803 q 925 944 839 944 q 1096 944 1011 944 q 1099 472 1097 711 q 1101 0 1100 233 q 984 0 1043 0 q 867 0 925 0 q 867 320 867 158 q 867 640 867 482 q 782 320 825 482 q 697 0 739 158 q 592 0 646 0 q 486 0 539 0 q 403 315 444 156 q 319 629 361 474 q 319 315 319 474 q 319 0 319 156 q 206 0 264 0 q 90 0 147 0 m 592 -82 q 592 -82 592 -82 q 592 -82 592 -82 q 663 -101 631 -82 q 715 -153 696 -121 q 735 -224 735 -185 q 715 -293 735 -261 q 663 -344 696 -325 q 592 -364 631 -364 q 519 -344 551 -364 q 467 -293 486 -325 q 447 -224 447 -261 q 467 -153 447 -185 q 519 -101 486 -121 q 592 -82 551 -82 z "},"Ń":{"ha":963,"x_min":90,"x_max":872,"o":"m 90 0 q 90 472 90 233 q 90 944 90 711 q 213 944 151 944 q 335 944 275 944 q 484 678 408 813 q 633 411 560 543 q 633 678 633 543 q 633 944 633 813 q 753 944 693 944 q 872 944 813 944 q 872 472 872 711 q 872 0 872 233 q 751 0 813 0 q 628 0 689 0 q 478 267 554 132 q 329 533 403 401 q 329 267 329 401 q 329 0 329 132 q 210 0 269 0 q 90 0 150 0 m 365 1032 q 434 1148 400 1089 q 503 1264 468 1207 q 625 1264 564 1264 q 746 1264 686 1264 q 662 1148 704 1207 q 578 1032 619 1089 q 472 1032 526 1032 q 365 1032 418 1032 z "},"Ň":{"ha":963,"x_min":90,"x_max":872,"o":"m 90 0 q 90 472 90 233 q 90 944 90 711 q 213 944 151 944 q 335 944 275 944 q 484 678 408 813 q 633 411 560 543 q 633 678 633 543 q 633 944 633 813 q 753 944 693 944 q 872 944 813 944 q 872 472 872 711 q 872 0 872 233 q 751 0 813 0 q 628 0 689 0 q 478 267 554 132 q 329 533 403 401 q 329 267 329 401 q 329 0 329 132 q 210 0 269 0 q 90 0 150 0 m 757 1264 q 680 1148 718 1207 q 603 1032 642 1089 q 481 1032 543 1032 q 358 1032 419 1032 q 281 1148 319 1089 q 204 1264 243 1207 q 310 1264 257 1264 q 415 1264 364 1264 q 448 1213 432 1239 q 481 1163 464 1188 q 513 1213 497 1188 q 546 1264 529 1239 q 652 1264 599 1264 q 757 1264 706 1264 z "},"Ņ":{"ha":963,"x_min":90,"x_max":872,"o":"m 90 0 q 90 472 90 233 q 90 944 90 711 q 213 944 151 944 q 335 944 275 944 q 484 678 408 813 q 633 411 560 543 q 633 678 633 543 q 633 944 633 813 q 753 944 693 944 q 872 944 813 944 q 872 472 872 711 q 872 0 872 233 q 751 0 813 0 q 628 0 689 0 q 478 267 554 132 q 329 533 403 401 q 329 267 329 401 q 329 0 329 132 q 210 0 269 0 q 90 0 150 0 m 350 -311 q 375 -197 363 -254 q 400 -85 388 -140 q 506 -85 453 -85 q 611 -85 560 -85 q 571 -197 592 -140 q 531 -311 550 -254 q 440 -311 486 -311 q 350 -311 394 -311 z "},"Ṅ":{"ha":963,"x_min":90,"x_max":872,"o":"m 90 0 q 90 472 90 233 q 90 944 90 711 q 213 944 151 944 q 335 944 275 944 q 484 678 408 813 q 633 411 560 543 q 633 678 633 543 q 633 944 633 813 q 753 944 693 944 q 872 944 813 944 q 872 472 872 711 q 872 0 872 233 q 751 0 813 0 q 628 0 689 0 q 478 267 554 132 q 329 533 403 401 q 329 267 329 401 q 329 0 329 132 q 210 0 269 0 q 90 0 150 0 m 481 1026 q 481 1026 481 1026 q 481 1026 481 1026 q 408 1046 440 1026 q 356 1097 375 1065 q 336 1168 336 1129 q 356 1238 336 1207 q 408 1289 375 1269 q 481 1308 440 1308 q 552 1289 519 1308 q 604 1238 585 1269 q 624 1168 624 1207 q 604 1097 624 1129 q 552 1046 585 1065 q 481 1026 519 1026 z "},"Ṇ":{"ha":963,"x_min":90,"x_max":872,"o":"m 90 0 q 90 472 90 233 q 90 944 90 711 q 213 944 151 944 q 335 944 275 944 q 484 678 408 813 q 633 411 560 543 q 633 678 633 543 q 633 944 633 813 q 753 944 693 944 q 872 944 813 944 q 872 472 872 711 q 872 0 872 233 q 751 0 813 0 q 628 0 689 0 q 478 267 554 132 q 329 533 403 401 q 329 267 329 401 q 329 0 329 132 q 210 0 269 0 q 90 0 150 0 m 481 -82 q 481 -82 481 -82 q 481 -82 481 -82 q 552 -101 519 -82 q 604 -153 585 -121 q 624 -224 624 -185 q 604 -293 624 -261 q 552 -344 585 -325 q 481 -364 519 -364 q 408 -344 440 -364 q 356 -293 375 -325 q 336 -224 336 -261 q 356 -153 336 -185 q 408 -101 375 -121 q 481 -82 440 -82 z "},"Ṉ":{"ha":963,"x_min":90,"x_max":872,"o":"m 90 0 q 90 472 90 233 q 90 944 90 711 q 213 944 151 944 q 335 944 275 944 q 484 678 408 813 q 633 411 560 543 q 633 678 633 543 q 633 944 633 813 q 753 944 693 944 q 872 944 813 944 q 872 472 872 711 q 872 0 872 233 q 751 0 813 0 q 628 0 689 0 q 478 267 554 132 q 329 533 403 401 q 329 267 329 401 q 329 0 329 132 q 210 0 269 0 q 90 0 150 0 m 250 -269 q 250 -178 250 -225 q 250 -87 250 -132 q 482 -87 365 -87 q 713 -87 599 -87 q 713 -178 713 -132 q 713 -269 713 -225 q 482 -269 599 -269 q 250 -269 365 -269 z "},"Ñ":{"ha":963,"x_min":90,"x_max":872,"o":"m 90 0 q 90 472 90 233 q 90 944 90 711 q 213 944 151 944 q 335 944 275 944 q 484 678 408 813 q 633 411 560 543 q 633 678 633 543 q 633 944 633 813 q 753 944 693 944 q 872 944 813 944 q 872 472 872 711 q 872 0 872 233 q 751 0 813 0 q 628 0 689 0 q 478 267 554 132 q 329 533 403 401 q 329 267 329 401 q 329 0 329 132 q 210 0 269 0 q 90 0 150 0 m 606 1257 q 669 1257 638 1257 q 732 1257 701 1257 q 722 1153 732 1197 q 692 1081 711 1110 q 644 1038 672 1051 q 581 1024 617 1024 q 508 1040 536 1024 q 458 1073 479 1057 q 410 1089 436 1089 q 378 1073 389 1089 q 367 1029 368 1057 q 304 1029 336 1029 q 240 1029 272 1029 q 251 1133 240 1089 q 281 1206 261 1176 q 328 1249 300 1235 q 390 1263 356 1263 q 465 1247 436 1263 q 515 1215 493 1231 q 563 1199 538 1199 q 594 1215 583 1199 q 606 1257 606 1232 z "},"Ó":{"ha":1022,"x_min":43,"x_max":979,"o":"m 511 -22 q 511 -22 511 -22 q 511 -22 511 -22 q 324 15 410 -22 q 175 118 238 51 q 78 276 113 185 q 43 474 43 367 q 78 671 43 581 q 175 827 113 761 q 324 930 238 893 q 511 967 410 967 q 698 930 613 967 q 847 827 783 893 q 944 671 910 761 q 979 474 979 581 q 944 276 979 367 q 847 118 910 185 q 698 15 783 51 q 511 -22 613 -22 m 511 203 q 511 203 511 203 q 511 203 511 203 q 628 237 579 203 q 703 332 676 271 q 731 474 731 393 q 703 614 731 554 q 628 708 676 674 q 511 742 579 742 q 395 708 444 742 q 319 615 346 675 q 292 474 292 554 q 319 332 292 393 q 395 237 346 271 q 511 203 444 203 m 396 1032 q 465 1148 431 1089 q 533 1264 499 1207 q 656 1264 594 1264 q 776 1264 717 1264 q 692 1148 735 1207 q 608 1032 650 1089 q 503 1032 557 1032 q 396 1032 449 1032 z "},"Ŏ":{"ha":1022,"x_min":43,"x_max":979,"o":"m 511 -22 q 511 -22 511 -22 q 511 -22 511 -22 q 324 15 410 -22 q 175 118 238 51 q 78 276 113 185 q 43 474 43 367 q 78 671 43 581 q 175 827 113 761 q 324 930 238 893 q 511 967 410 967 q 698 930 613 967 q 847 827 783 893 q 944 671 910 761 q 979 474 979 581 q 944 276 979 367 q 847 118 910 185 q 698 15 783 51 q 511 -22 613 -22 m 511 203 q 511 203 511 203 q 511 203 511 203 q 628 237 579 203 q 703 332 676 271 q 731 474 731 393 q 703 614 731 554 q 628 708 676 674 q 511 742 579 742 q 395 708 444 742 q 319 615 346 675 q 292 474 292 554 q 319 332 292 393 q 395 237 346 271 q 511 203 444 203 m 511 1019 q 511 1019 511 1019 q 511 1019 511 1019 q 405 1038 451 1019 q 325 1088 358 1056 q 274 1164 292 1119 q 257 1260 257 1208 q 339 1260 297 1260 q 421 1260 381 1260 q 444 1201 421 1224 q 511 1179 468 1179 q 578 1201 556 1179 q 601 1260 601 1224 q 683 1260 642 1260 q 765 1260 725 1260 q 748 1164 765 1208 q 698 1088 731 1119 q 618 1038 665 1056 q 511 1019 571 1019 z "},"Ô":{"ha":1022,"x_min":43,"x_max":979,"o":"m 511 -22 q 511 -22 511 -22 q 511 -22 511 -22 q 324 15 410 -22 q 175 118 238 51 q 78 276 113 185 q 43 474 43 367 q 78 671 43 581 q 175 827 113 761 q 324 930 238 893 q 511 967 410 967 q 698 930 613 967 q 847 827 783 893 q 944 671 910 761 q 979 474 979 581 q 944 276 979 367 q 847 118 910 185 q 698 15 783 51 q 511 -22 613 -22 m 511 203 q 511 203 511 203 q 511 203 511 203 q 628 237 579 203 q 703 332 676 271 q 731 474 731 393 q 703 614 731 554 q 628 708 676 674 q 511 742 579 742 q 395 708 444 742 q 319 615 346 675 q 292 474 292 554 q 319 332 292 393 q 395 237 346 271 q 511 203 444 203 m 236 1032 q 313 1141 275 1086 q 390 1250 351 1196 q 513 1250 451 1250 q 635 1250 575 1250 q 712 1141 674 1196 q 789 1032 750 1086 q 684 1032 738 1032 q 578 1032 631 1032 q 545 1080 561 1056 q 513 1128 529 1104 q 480 1080 496 1104 q 447 1032 464 1056 q 342 1032 396 1032 q 236 1032 289 1032 z "},"Ố":{"ha":1022,"x_min":43,"x_max":1046,"o":"m 511 -22 q 511 -22 511 -22 q 511 -22 511 -22 q 324 15 410 -22 q 175 118 238 51 q 78 276 113 185 q 43 474 43 367 q 78 671 43 581 q 175 827 113 761 q 324 930 238 893 q 511 967 410 967 q 698 930 613 967 q 847 827 783 893 q 944 671 910 761 q 979 474 979 581 q 944 276 979 367 q 847 118 910 185 q 698 15 783 51 q 511 -22 613 -22 m 511 203 q 511 203 511 203 q 511 203 511 203 q 628 237 579 203 q 703 332 676 271 q 731 474 731 393 q 703 614 731 554 q 628 708 676 674 q 511 742 579 742 q 395 708 444 742 q 319 615 346 675 q 292 474 292 554 q 319 332 292 393 q 395 237 346 271 q 511 203 444 203 m 236 1032 q 313 1141 275 1086 q 390 1250 351 1196 q 513 1250 451 1250 q 635 1250 575 1250 q 712 1141 674 1196 q 789 1032 750 1086 q 684 1032 738 1032 q 578 1032 631 1032 q 545 1080 561 1056 q 513 1128 529 1104 q 480 1080 496 1104 q 447 1032 464 1056 q 342 1032 396 1032 q 236 1032 289 1032 m 665 1258 q 734 1374 700 1315 q 803 1490 768 1433 q 925 1490 864 1490 q 1046 1490 986 1490 q 962 1374 1004 1433 q 878 1258 919 1315 q 772 1258 826 1258 q 665 1258 718 1258 z "},"Ộ":{"ha":1022,"x_min":43,"x_max":979,"o":"m 511 -22 q 511 -22 511 -22 q 511 -22 511 -22 q 324 15 410 -22 q 175 118 238 51 q 78 276 113 185 q 43 474 43 367 q 78 671 43 581 q 175 827 113 761 q 324 930 238 893 q 511 967 410 967 q 698 930 613 967 q 847 827 783 893 q 944 671 910 761 q 979 474 979 581 q 944 276 979 367 q 847 118 910 185 q 698 15 783 51 q 511 -22 613 -22 m 511 203 q 511 203 511 203 q 511 203 511 203 q 628 237 579 203 q 703 332 676 271 q 731 474 731 393 q 703 614 731 554 q 628 708 676 674 q 511 742 579 742 q 395 708 444 742 q 319 615 346 675 q 292 474 292 554 q 319 332 292 393 q 395 237 346 271 q 511 203 444 203 m 236 1032 q 313 1141 275 1086 q 390 1250 351 1196 q 513 1250 451 1250 q 635 1250 575 1250 q 712 1141 674 1196 q 789 1032 750 1086 q 684 1032 738 1032 q 578 1032 631 1032 q 545 1080 561 1056 q 513 1128 529 1104 q 480 1080 496 1104 q 447 1032 464 1056 q 342 1032 396 1032 q 236 1032 289 1032 m 511 -81 q 511 -81 511 -81 q 511 -81 511 -81 q 583 -100 550 -81 q 635 -151 615 -119 q 654 -222 654 -183 q 635 -292 654 -260 q 583 -343 615 -324 q 511 -362 550 -362 q 438 -343 471 -362 q 386 -292 406 -324 q 367 -222 367 -260 q 386 -151 367 -183 q 438 -100 406 -119 q 511 -81 471 -81 z "},"Ồ":{"ha":1022,"x_min":43,"x_max":979,"o":"m 511 -22 q 511 -22 511 -22 q 511 -22 511 -22 q 324 15 410 -22 q 175 118 238 51 q 78 276 113 185 q 43 474 43 367 q 78 671 43 581 q 175 827 113 761 q 324 930 238 893 q 511 967 410 967 q 698 930 613 967 q 847 827 783 893 q 944 671 910 761 q 979 474 979 581 q 944 276 979 367 q 847 118 910 185 q 698 15 783 51 q 511 -22 613 -22 m 511 203 q 511 203 511 203 q 511 203 511 203 q 628 237 579 203 q 703 332 676 271 q 731 474 731 393 q 703 614 731 554 q 628 708 676 674 q 511 742 579 742 q 395 708 444 742 q 319 615 346 675 q 292 474 292 554 q 319 332 292 393 q 395 237 346 271 q 511 203 444 203 m 236 1032 q 313 1141 275 1086 q 390 1250 351 1196 q 513 1250 451 1250 q 635 1250 575 1250 q 712 1141 674 1196 q 789 1032 750 1086 q 684 1032 738 1032 q 578 1032 631 1032 q 545 1080 561 1056 q 513 1128 529 1104 q 480 1080 496 1104 q 447 1032 464 1056 q 342 1032 396 1032 q 236 1032 289 1032 m 896 1258 q 790 1258 844 1258 q 683 1258 736 1258 q 599 1374 642 1315 q 515 1490 557 1433 q 638 1490 576 1490 q 760 1490 700 1490 q 828 1374 793 1433 q 896 1258 863 1315 z "},"Ổ":{"ha":1022,"x_min":43,"x_max":979,"o":"m 511 -22 q 511 -22 511 -22 q 511 -22 511 -22 q 324 15 410 -22 q 175 118 238 51 q 78 276 113 185 q 43 474 43 367 q 78 671 43 581 q 175 827 113 761 q 324 930 238 893 q 511 967 410 967 q 698 930 613 967 q 847 827 783 893 q 944 671 910 761 q 979 474 979 581 q 944 276 979 367 q 847 118 910 185 q 698 15 783 51 q 511 -22 613 -22 m 511 203 q 511 203 511 203 q 511 203 511 203 q 628 237 579 203 q 703 332 676 271 q 731 474 731 393 q 703 614 731 554 q 628 708 676 674 q 511 742 579 742 q 395 708 444 742 q 319 615 346 675 q 292 474 292 554 q 319 332 292 393 q 395 237 346 271 q 511 203 444 203 m 236 1032 q 313 1141 275 1086 q 390 1250 351 1196 q 513 1250 451 1250 q 635 1250 575 1250 q 712 1141 674 1196 q 789 1032 750 1086 q 684 1032 738 1032 q 578 1032 631 1032 q 545 1080 561 1056 q 513 1128 529 1104 q 480 1080 496 1104 q 447 1032 464 1056 q 342 1032 396 1032 q 236 1032 289 1032 m 688 1340 q 688 1340 688 1340 q 688 1340 688 1340 q 763 1359 740 1347 q 785 1390 785 1371 q 744 1431 785 1424 q 650 1422 703 1438 q 650 1492 650 1457 q 650 1561 650 1526 q 801 1571 736 1582 q 903 1520 867 1560 q 940 1415 940 1481 q 906 1311 940 1350 q 815 1253 872 1272 q 688 1228 757 1235 q 688 1284 688 1256 q 688 1340 688 1313 z "},"Ỗ":{"ha":1022,"x_min":43,"x_max":979,"o":"m 511 -22 q 511 -22 511 -22 q 511 -22 511 -22 q 324 15 410 -22 q 175 118 238 51 q 78 276 113 185 q 43 474 43 367 q 78 671 43 581 q 175 827 113 761 q 324 930 238 893 q 511 967 410 967 q 698 930 613 967 q 847 827 783 893 q 944 671 910 761 q 979 474 979 581 q 944 276 979 367 q 847 118 910 185 q 698 15 783 51 q 511 -22 613 -22 m 511 203 q 511 203 511 203 q 511 203 511 203 q 628 237 579 203 q 703 332 676 271 q 731 474 731 393 q 703 614 731 554 q 628 708 676 674 q 511 742 579 742 q 395 708 444 742 q 319 615 346 675 q 292 474 292 554 q 319 332 292 393 q 395 237 346 271 q 511 203 444 203 m 236 1032 q 313 1141 275 1086 q 390 1250 351 1196 q 513 1250 451 1250 q 635 1250 575 1250 q 712 1141 674 1196 q 789 1032 750 1086 q 684 1032 738 1032 q 578 1032 631 1032 q 545 1080 561 1056 q 513 1128 529 1104 q 480 1080 496 1104 q 447 1032 464 1056 q 342 1032 396 1032 q 236 1032 289 1032 m 636 1536 q 700 1536 668 1536 q 763 1536 732 1536 q 752 1433 763 1476 q 722 1360 742 1389 q 675 1317 703 1331 q 611 1303 647 1303 q 538 1319 567 1303 q 488 1352 510 1336 q 440 1368 467 1368 q 409 1352 419 1368 q 397 1308 399 1336 q 335 1308 367 1308 q 271 1308 303 1308 q 281 1412 271 1368 q 311 1485 292 1456 q 358 1528 331 1514 q 421 1542 386 1542 q 495 1526 467 1542 q 546 1494 524 1510 q 593 1478 568 1478 q 625 1494 614 1478 q 636 1536 636 1511 z "},"Ö":{"ha":1022,"x_min":43,"x_max":979,"o":"m 511 -22 q 511 -22 511 -22 q 511 -22 511 -22 q 324 15 410 -22 q 175 118 238 51 q 78 276 113 185 q 43 474 43 367 q 78 671 43 581 q 175 827 113 761 q 324 930 238 893 q 511 967 410 967 q 698 930 613 967 q 847 827 783 893 q 944 671 910 761 q 979 474 979 581 q 944 276 979 367 q 847 118 910 185 q 698 15 783 51 q 511 -22 613 -22 m 511 203 q 511 203 511 203 q 511 203 511 203 q 628 237 579 203 q 703 332 676 271 q 731 474 731 393 q 703 614 731 554 q 628 708 676 674 q 511 742 579 742 q 395 708 444 742 q 319 615 346 675 q 292 474 292 554 q 319 332 292 393 q 395 237 346 271 q 511 203 444 203 m 349 1026 q 349 1026 349 1026 q 349 1026 349 1026 q 276 1046 308 1026 q 224 1097 243 1065 q 204 1168 204 1129 q 224 1238 204 1207 q 276 1289 243 1269 q 349 1308 308 1308 q 420 1289 388 1308 q 472 1238 453 1269 q 492 1168 492 1207 q 472 1097 492 1129 q 420 1046 453 1065 q 349 1026 388 1026 m 676 1026 q 676 1026 676 1026 q 676 1026 676 1026 q 603 1046 636 1026 q 551 1097 571 1065 q 532 1168 532 1129 q 551 1238 532 1207 q 603 1289 571 1269 q 676 1308 636 1308 q 748 1289 715 1308 q 800 1238 781 1269 q 819 1168 819 1207 q 800 1097 819 1129 q 748 1046 781 1065 q 676 1026 715 1026 z "},"Ȫ":{"ha":1022,"x_min":43,"x_max":979,"o":"m 511 -22 q 511 -22 511 -22 q 511 -22 511 -22 q 324 15 410 -22 q 175 118 238 51 q 78 276 113 185 q 43 474 43 367 q 78 671 43 581 q 175 827 113 761 q 324 930 238 893 q 511 967 410 967 q 698 930 613 967 q 847 827 783 893 q 944 671 910 761 q 979 474 979 581 q 944 276 979 367 q 847 118 910 185 q 698 15 783 51 q 511 -22 613 -22 m 511 203 q 511 203 511 203 q 511 203 511 203 q 628 237 579 203 q 703 332 676 271 q 731 474 731 393 q 703 614 731 554 q 628 708 676 674 q 511 742 579 742 q 395 708 444 742 q 319 615 346 675 q 292 474 292 554 q 319 332 292 393 q 395 237 346 271 q 511 203 444 203 m 349 1026 q 349 1026 349 1026 q 349 1026 349 1026 q 276 1046 308 1026 q 224 1097 243 1065 q 204 1168 204 1129 q 224 1238 204 1207 q 276 1289 243 1269 q 349 1308 308 1308 q 420 1289 388 1308 q 472 1238 453 1269 q 492 1168 492 1207 q 472 1097 492 1129 q 420 1046 453 1065 q 349 1026 388 1026 m 676 1026 q 676 1026 676 1026 q 676 1026 676 1026 q 603 1046 636 1026 q 551 1097 571 1065 q 532 1168 532 1129 q 551 1238 532 1207 q 603 1289 571 1269 q 676 1308 636 1308 q 748 1289 715 1308 q 800 1238 781 1269 q 819 1168 819 1207 q 800 1097 819 1129 q 748 1046 781 1065 q 676 1026 715 1026 m 281 1347 q 281 1438 281 1392 q 281 1529 281 1485 q 513 1529 396 1529 q 743 1529 629 1529 q 743 1438 743 1485 q 743 1347 743 1392 q 513 1347 629 1347 q 281 1347 396 1347 z "},"Ȱ":{"ha":1022,"x_min":43,"x_max":979,"o":"m 511 -22 q 511 -22 511 -22 q 511 -22 511 -22 q 324 15 410 -22 q 175 118 238 51 q 78 276 113 185 q 43 474 43 367 q 78 671 43 581 q 175 827 113 761 q 324 930 238 893 q 511 967 410 967 q 698 930 613 967 q 847 827 783 893 q 944 671 910 761 q 979 474 979 581 q 944 276 979 367 q 847 118 910 185 q 698 15 783 51 q 511 -22 613 -22 m 511 203 q 511 203 511 203 q 511 203 511 203 q 628 237 579 203 q 703 332 676 271 q 731 474 731 393 q 703 614 731 554 q 628 708 676 674 q 511 742 579 742 q 395 708 444 742 q 319 615 346 675 q 292 474 292 554 q 319 332 292 393 q 395 237 346 271 q 511 203 444 203 m 511 1026 q 511 1026 511 1026 q 511 1026 511 1026 q 438 1046 471 1026 q 386 1097 406 1065 q 367 1168 367 1129 q 386 1238 367 1207 q 438 1289 406 1269 q 511 1308 471 1308 q 583 1289 550 1308 q 635 1238 615 1269 q 654 1168 654 1207 q 635 1097 654 1129 q 583 1046 615 1065 q 511 1026 550 1026 m 281 1347 q 281 1438 281 1392 q 281 1529 281 1485 q 513 1529 396 1529 q 743 1529 629 1529 q 743 1438 743 1485 q 743 1347 743 1392 q 513 1347 629 1347 q 281 1347 396 1347 z "},"Ọ":{"ha":1022,"x_min":43,"x_max":979,"o":"m 511 -22 q 511 -22 511 -22 q 511 -22 511 -22 q 324 15 410 -22 q 175 118 238 51 q 78 276 113 185 q 43 474 43 367 q 78 671 43 581 q 175 827 113 761 q 324 930 238 893 q 511 967 410 967 q 698 930 613 967 q 847 827 783 893 q 944 671 910 761 q 979 474 979 581 q 944 276 979 367 q 847 118 910 185 q 698 15 783 51 q 511 -22 613 -22 m 511 203 q 511 203 511 203 q 511 203 511 203 q 628 237 579 203 q 703 332 676 271 q 731 474 731 393 q 703 614 731 554 q 628 708 676 674 q 511 742 579 742 q 395 708 444 742 q 319 615 346 675 q 292 474 292 554 q 319 332 292 393 q 395 237 346 271 q 511 203 444 203 m 511 -81 q 511 -81 511 -81 q 511 -81 511 -81 q 583 -100 550 -81 q 635 -151 615 -119 q 654 -222 654 -183 q 635 -292 654 -260 q 583 -343 615 -324 q 511 -362 550 -362 q 438 -343 471 -362 q 386 -292 406 -324 q 367 -222 367 -260 q 386 -151 367 -183 q 438 -100 406 -119 q 511 -81 471 -81 z "},"Ő":{"ha":1022,"x_min":43,"x_max":979,"o":"m 511 -22 q 511 -22 511 -22 q 511 -22 511 -22 q 324 15 410 -22 q 175 118 238 51 q 78 276 113 185 q 43 474 43 367 q 78 671 43 581 q 175 827 113 761 q 324 930 238 893 q 511 967 410 967 q 698 930 613 967 q 847 827 783 893 q 944 671 910 761 q 979 474 979 581 q 944 276 979 367 q 847 118 910 185 q 698 15 783 51 q 511 -22 613 -22 m 511 203 q 511 203 511 203 q 511 203 511 203 q 628 237 579 203 q 703 332 676 271 q 731 474 731 393 q 703 614 731 554 q 628 708 676 674 q 511 742 579 742 q 395 708 444 742 q 319 615 346 675 q 292 474 292 554 q 319 332 292 393 q 395 237 346 271 q 511 203 444 203 m 517 1032 q 591 1148 553 1089 q 665 1264 629 1207 q 777 1264 721 1264 q 889 1264 833 1264 q 799 1148 844 1207 q 708 1032 753 1089 q 613 1032 661 1032 q 517 1032 565 1032 m 268 1032 q 331 1148 300 1089 q 393 1264 363 1207 q 505 1264 449 1264 q 617 1264 561 1264 q 539 1148 578 1207 q 461 1032 500 1089 q 365 1032 414 1032 q 268 1032 317 1032 z "}}}
